SplineFontDB: 3.2
FontName: UnaScript-Regular
FullName: Una Script Regular
FamilyName: Una Script
Weight: Regular
Copyright: This work (Una Script by Una Ada) is free of known copyright restrictions.
UComments: "2020-7-9: Created with FontForge (http://fontforge.org)"
Version: 2021.05.30
ItalicAngle: 0
UnderlinePosition: -100
UnderlineWidth: 50
Ascent: 760
Descent: 240
InvalidEm: 0
LayerCount: 2
Layer: 0 0 "Back" 1
Layer: 1 0 "Fore" 0
XUID: [1021 809 -1299049482 11933]
BaseHoriz: 1 'romn'
BaseScript: 'latn' 0  480
FSType: 0
OS2Version: 0
OS2_WeightWidthSlopeOnly: 0
OS2_UseTypoMetrics: 1
CreationTime: 1594321298
ModificationTime: 1622531445
PfmFamily: 65
TTFWeight: 400
TTFWidth: 5
LineGap: 640
VLineGap: 0
OS2TypoAscent: 980
OS2TypoAOffset: 0
OS2TypoDescent: -980
OS2TypoDOffset: 0
OS2TypoLinegap: 640
OS2WinAscent: 1200
OS2WinAOffset: 0
OS2WinDescent: 980
OS2WinDOffset: 0
HheadAscent: 980
HheadAOffset: 0
HheadDescent: 980
HheadDOffset: 0
OS2CapHeight: 740
OS2XHeight: 500
OS2Vendor: 'PfEd'
Lookup: 260 0 0 "'abvm' Above Base Mark in Latin lookup 1" { "'abvm' Above Base Mark in Latin lookup 1-1"  } ['abvm' ('DFLT' <'dflt' > 'latn' <'dflt' > ) ]
Lookup: 258 0 0 "'kern' Horizontal Kerning in Latin lookup 0" { "'kern' Horizontal Kerning in Latin lookup 0-1" [150,15,4] } ['kern' ('DFLT' <'dflt' > 'latn' <'dflt' > ) ]
MarkAttachClasses: 1
DEI: 91125
KernClass2: 10 10 "'kern' Horizontal Kerning in Latin lookup 0-1"
 6 zero O
 18 seven F P Y Yacute
 38 A Agrave Aacute Atilde Adieresis Aring
 1 T
 137 a c e m n o r s u v w agrave aacute atilde adieresis aring egrave eacute edieresis ograve oacute otilde odieresis ugrave uacute udieresis
 1 q
 24 g j y z yacute ydieresis
 25 b d f h i k l p t x thorn
 7 section
 23 comma period underscore
 47 quotedbl quotesingle asterisk asciicircum grave
 11 V backslash

StartChar: exclam
Encoding: 33 33 0
Width: 382
VWidth: 1253
Flags: W
HStem: -93 206<212.729 315.489> 730 20G<106 129>
VStem: 110 180<197.051 422.638> 164 198<-35.3688 56.5625>
LayerCount: 2
Fore
SplineSet
200 164 m 0xe0
 154 164 114 200 110 248 c 0
 100 408 70 522 26 626 c 0
 22 636 20 648 20 658 c 0
 20 694 40 728 76 742 c 0
 88 748 100 750 112 750 c 0
 146 750 180 728 194 694 c 0
 244 572 278 442 290 260 c 0
 290 258 290 256 290 254 c 0
 290 208 254 168 206 164 c 0
 204 164 202 164 200 164 c 0xe0
272 -93 m 0
 242 -93 212 -79 196 -51 c 2
 178 -25 l 2
 170 -9 164 7 164 23 c 0
 164 53 180 81 208 99 c 0
 222 109 240 113 256 113 c 0
 286 113 316 99 332 71 c 2
 348 43 l 2
 358 29 362 11 362 -5 c 0xd0
 362 -35 348 -65 320 -81 c 0
 304 -89 288 -93 272 -93 c 0
EndSplineSet
Validated: 1
EndChar

StartChar: quotedbl
Encoding: 34 34 1
Width: 490
VWidth: 1126
Flags: W
HStem: 729 20G<117 141 330 353>
VStem: 72 180<398.632 578.908>
LayerCount: 2
Fore
SplineSet
162 366 m 0
 116 366 76 402 72 448 c 0
 70 484 66 525 36 633 c 0
 34 641 32 649 32 659 c 0
 32 697 58 733 96 745 c 0
 104 747 112 749 122 749 c 0
 160 749 196 723 208 683 c 0
 238 579 246 520 252 462 c 0
 252 460 252 458 252 456 c 0
 252 410 216 370 170 366 c 0
 166 366 164 366 162 366 c 0
380 396 m 0
 340 396 304 422 294 464 c 0
 290 474 288 486 284 500 c 0
 274 546 266 587 252 619 c 0
 246 631 244 643 244 655 c 0
 244 691 264 723 298 737 c 0
 310 743 324 745 336 745 c 0
 370 745 402 727 416 693 c 0
 436 651 440 618 460 542 c 0
 462 530 466 518 468 508 c 0
 470 500 470 494 470 486 c 0
 470 446 442 408 402 398 c 0
 396 396 388 396 380 396 c 0
EndSplineSet
Validated: 1
EndChar

StartChar: numbersign
Encoding: 35 35 2
Width: 836
VWidth: 1248
Flags: W
HStem: -10 21G<394 435> 501 178<49.6133 156> 544 180<611.688 787.538>
VStem: 324 176<20.5401 142.57>
LayerCount: 2
Fore
SplineSet
740 544 m 0xb0
 690 540 642 534 594 530 c 1
 590 494 584 458 578 422 c 1
 610 426 644 430 680 434 c 0
 684 434 690 436 694 436 c 0
 750 436 780 390 780 344 c 0
 780 304 758 266 706 256 c 0
 648 248 594 242 544 236 c 1
 530 180 516 118 500 56 c 0
 490 10 454 -10 416 -10 c 0
 372 -10 324 22 324 78 c 0
 324 86 324 92 326 100 c 0
 336 144 348 184 356 226 c 1
 354 226 352 226 348 226 c 0
 322 226 294 228 270 230 c 1
 246 154 226 114 210 84 c 0
 194 56 164 40 132 40 c 0
 116 40 102 44 88 52 c 0
 58 68 42 98 42 130 c 0
 42 144 46 160 54 174 c 0
 64 192 76 218 88 254 c 1
 48 268 30 302 30 336 c 0
 30 382 62 428 118 428 c 0
 124 428 130 428 136 426 c 0
 136 426 136 426 138 426 c 0
 144 450 150 474 156 500 c 1
 140 500 125 501 111 501 c 0
 109 501 107 501 107 501 c 2
 49 501 20 544 20 588 c 0
 20 632 48 677 104 679 c 0xd0
 134 681 164 680 196 682 c 1
 200 704 206 728 210 752 c 0
 220 828 262 854 300 854 c 0
 344 854 388 828 388 744 c 0
 388 742 388 738 388 734 c 0
 388 728 388 722 386 716 c 0
 384 708 382 700 382 694 c 1
 398 694 414 696 430 696 c 0
 430 702 430 706 430 710 c 0
 436 798 482 844 526 844 c 0
 568 844 610 824 610 712 c 1
 646 716 682 720 720 724 c 0
 724 724 728 724 730 724 c 0
 788 724 816 680 816 634 c 0
 816 592 792 550 740 544 c 0xb0
394 408 m 1
 400 444 406 480 410 516 c 1
 388 514 364 512 342 510 c 1
 334 472 326 438 318 408 c 1
 330 406 342 406 356 406 c 0
 368 406 382 406 394 408 c 1
EndSplineSet
Validated: 1
EndChar

StartChar: dollar
Encoding: 36 36 3
Width: 742
VWidth: 1243
Flags: W
HStem: -7 184<105.372 360.763> 934 20G<262 285>
VStem: 364 182<-114.438 -7> 542 180<203.367 262.636>
LayerCount: 2
Fore
SplineSet
688 111 m 0xd0
 658 71 608 41 540 21 c 1
 544 21 l 1
 544 17 546 7 546 -9 c 0
 546 -39 542 -93 518 -149 c 0
 504 -183 470 -205 434 -205 c 0
 422 -205 412 -201 400 -197 c 0
 366 -183 344 -149 344 -115 c 0
 344 -103 346 -91 352 -79 c 0
 362 -55 364 -33 364 -23 c 0
 364 -19 364 -11 364 -7 c 1xe0
 362 -7 360 -7 358 -7 c 0
 334 -7 310 -7 290 -7 c 0
 210 -7 156 -3 146 -1 c 0
 100 5 66 43 66 89 c 0
 66 91 66 95 66 97 c 0
 72 143 110 177 154 177 c 0
 156 177 160 177 164 177 c 0
 166 177 224 171 296 171 c 0
 316 171 334 173 354 173 c 0
 500 181 536 211 542 217 c 0
 542 221 542 225 538 233 c 0
 506 313 400 329 266 341 c 0
 216 347 170 351 132 363 c 0
 30 395 20 467 20 499 c 0
 20 535 32 587 88 641 c 0
 116 667 152 693 198 715 c 0
 214 723 232 731 248 737 c 1
 244 743 240 747 236 753 c 2
 187 824 l 2
 181 836 177 850 177 864 c 0
 177 896 195 928 227 944 c 0
 241 950 255 954 269 954 c 0
 301 954 333 936 349 904 c 2
 401 798 l 2
 407 786 411 809 411 795 c 0
 411 785 406 775 402 765 c 1
 426 753 444 733 452 707 c 0
 454 699 454 691 454 685 c 0
 454 645 428 607 388 595 c 0
 388 595 338 583 286 557 c 0
 262 547 244 535 232 527 c 1
 250 525 268 523 284 521 c 0
 350 515 432 507 506 481 c 0
 604 445 670 385 704 301 c 0
 718 269 722 241 722 217 c 0
 722 167 702 131 688 111 c 0xd0
EndSplineSet
Validated: 1
EndChar

StartChar: percent
Encoding: 37 37 4
Width: 1296
VWidth: 1232
Flags: W
HStem: 2 180<898.316 1034.05> 485 20G<981 985.333> 727 180<536.984 660> 777 180<225.123 363.345> 926 20G<876 897>
VStem: 706 178<200.221 297.25>
LayerCount: 2
Fore
SplineSet
20 725 m 0xec
 41 867 129 957 288 957 c 0xd4
 314 957 340 955 368 951 c 0
 374 949 382 947 390 945 c 0
 462 912 535 907 603 907 c 0
 630 907 655 908 680 908 c 0
 740 908 798 918 848 940 c 0
 860 944 870 946 882 946 c 0
 912 946 940 932 958 908 c 0
 968 892 972 876 972 858 c 0
 972 836 964 812 946 794 c 0
 844 692 688 402 470 44 c 0
 454 16 424 2 394 2 c 0
 340 2 302 48 302 92 c 0
 302 108 308 124 316 138 c 0
 454 364 568 602 660 728 c 1
 640 728 620 727 599 727 c 0
 578 727 557 728 536 731 c 1
 518 669 488 589 444 543 c 0
 390 483 324 451 262 451 c 2
 246 451 l 2
 238 451 230 453 224 455 c 0
 152 479 104 511 72 553 c 0
 32 603 24 661 20 707 c 0
 20 713 20 719 20 725 c 0xec
200 709 m 1
 204 679 210 669 214 663 c 0
 222 653 240 641 266 631 c 1
 276 635 294 645 314 667 c 0
 328 683 352 713 364 759 c 1
 350 765 338 771 328 775 c 0
 314 777 300 777 288 777 c 0
 229 777 212 760 200 709 c 1
918 8 m 0
 813 29 706 84 706 242 c 0
 706 246 706 250 706 254 c 0
 708 306 726 373 760 411 c 0
 786 439 818 461 860 477 c 0
 920 503 978 505 984 505 c 1
 986 475 l 1
 1002 483 1020 485 1040 485 c 0
 1080 485 1122 471 1164 443 c 0
 1220 405 1276 320 1276 244 c 0
 1276 234 1274 222 1272 212 c 0
 1264 172 1240 116 1160 66 c 0
 1112 38 1028 2 962 2 c 0
 946 2 936 4 930 6 c 0
 928 6 924 8 918 8 c 0
980 178 m 1
 980 178 l 1
962 182 m 1
 962 182 l 1
960 321 m 1
 948 319 936 315 924 309 c 0
 886 293 886 258 884 246 c 0
 884 208 890 198 954 184 c 0
 958 184 964 182 968 182 c 0
 980 184 1008 192 1040 206 c 0
 1074 222 1088 236 1094 244 c 1
 1092 248 1084 275 1072 285 c 0
 1062 295 1050 301 1042 305 c 1
 1034 301 1024 301 1014 301 c 0
 994 301 974 307 960 321 c 1
EndSplineSet
Validated: 1
EndChar

StartChar: ampersand
Encoding: 38 38 5
Width: 688
VWidth: 1276
Flags: W
HStem: -279 472<315 434.127> 87 174<555.521 634.624> 941 20G<347 397>
VStem: 88 178<199.773 264.81> 286 180<-188.531 14.6264 871 923.228>
LayerCount: 2
Fore
SplineSet
612 87 m 4x78
 552 63 500 45 456 33 c 5
 464 19 468 1 468 -19 c 4
 468 -31 466 -45 466 -61 c 4
 466 -97 470 -139 476 -159 c 4
 480 -169 482 -179 482 -189 c 4
 482 -225 458 -261 422 -273 c 4
 412 -277 402 -279 392 -279 c 4
 354 -279 320 -255 306 -219 c 4
 290 -173 286 -109 286 -63 c 4
 286 -37 288 -15 288 -7 c 4
 288 1 290 7 292 15 c 5
 262 17 236 23 212 35 c 4
 156 63 116 113 94 183 c 4
 94 185 92 189 92 191 c 4
 88 205 88 221 88 235 c 4
 88 277 100 319 126 355 c 4
 138 371 150 385 166 397 c 5
 104 425 58 457 36 503 c 4
 24 525 20 547 20 569 c 4
 20 587 22 605 30 623 c 4
 34 631 38 637 42 643 c 4
 72 685 116 717 170 743 c 4
 204 759 238 769 274 771 c 5
 282 819 282 871 282 871 c 4
 282 921 322 961 372 961 c 6
 422 961 462 919 462 871 c 4
 462 867 462 791 448 723 c 5
 468 707 482 685 494 661 c 4
 500 649 502 635 502 623 c 4
 502 589 484 557 452 541 c 4
 440 535 428 533 414 533 c 4
 380 533 344 549 332 583 c 4
 330 589 318 591 310 593 c 4
 308 593 306 593 304 593 c 4
 278 593 248 583 224 569 c 5
 236 563 252 555 276 547 c 4
 328 529 392 513 454 497 c 6
 460 495 l 6
 500 481 526 449 526 409 c 4
 526 407 526 403 526 401 c 4
 524 359 490 323 448 317 c 4
 318 301 282 263 274 251 c 4
 268 243 266 237 266 231 c 4
 266 203 286 201 290 199 c 4
 296 197 306 193 324 193 c 4xb8
 334 193 346 195 362 197 c 4
 408 205 468 223 544 255 c 4
 554 259 566 261 576 261 c 4
 612 261 646 239 662 203 c 4
 666 193 668 181 668 169 c 4
 668 135 648 101 612 87 c 4x78
EndSplineSet
Validated: 1
EndChar

StartChar: quotesingle
Encoding: 39 39 6
Width: 296
VWidth: 1119
Flags: W
HStem: 728 20G<105 129>
VStem: 20 176<624.04 717.65>
LayerCount: 2
Fore
SplineSet
186 362 m 0
 154 362 124 378 108 408 c 0
 96 428 68 502 24 630 c 0
 20 640 20 648 20 658 c 0
 20 696 44 732 80 744 c 0
 90 748 100 748 110 748 c 0
 148 748 184 724 196 688 c 0
 222 608 256 512 266 494 c 0
 272 482 276 468 276 454 c 0
 276 422 260 390 230 374 c 0
 216 366 200 362 186 362 c 0
264 496 m 1
 264 496 264 496 264 494 c 1
 264 496 264 496 264 496 c 1
EndSplineSet
Validated: 9
EndChar

StartChar: parenleft
Encoding: 40 40 7
Width: 444
VWidth: 1294
Flags: W
HStem: 562 174<322.214 393.8>
VStem: 20 180<126.367 379.968>
LayerCount: 2
Fore
SplineSet
330 -186 m 0
 314 -186 300 -182 284 -172 c 0
 214 -132 142 -84 90 -8 c 0
 44 60 20 144 20 246 c 0
 20 264 20 284 22 302 c 0
 22 304 22 306 22 308 c 0
 42 454 94 658 306 732 c 0
 316 736 326 736 336 736 c 0
 372 736 408 714 420 676 c 0
 424 666 424 656 424 646 c 0
 424 610 402 574 366 562 c 0
 274 530 224 446 202 286 c 1
 202 272 200 258 200 246 c 0
 200 94 266 46 376 -18 c 0
 406 -36 422 -64 422 -96 c 0
 422 -110 416 -128 408 -142 c 0
 392 -170 362 -186 330 -186 c 0
EndSplineSet
Validated: 1
EndChar

StartChar: parenright
Encoding: 41 41 8
Width: 492
VWidth: 1301
Flags: W
HStem: 567 174<52.4258 121.723>
VStem: 292 180<118.581 375.155>
LayerCount: 2
Fore
SplineSet
242 -203 m 0
 222 -203 202 -197 184 -183 c 0
 162 -165 152 -139 152 -113 c 0
 152 -93 158 -71 172 -55 c 0
 250 39 292 143 292 251 c 0
 292 269 290 289 288 307 c 0
 266 437 202 519 78 567 c 0
 42 581 20 615 20 651 c 0
 20 661 22 673 26 683 c 0
 40 719 74 741 110 741 c 0
 120 741 132 739 142 735 c 0
 326 663 436 527 466 333 c 0
 466 333 466 331 466 329 c 0
 470 301 472 273 472 247 c 0
 472 173 458 103 432 33 c 0
 406 -37 364 -107 312 -171 c 0
 294 -191 268 -203 242 -203 c 0
EndSplineSet
Validated: 1
EndChar

StartChar: asterisk
Encoding: 42 42 9
Width: 640
VWidth: 1054
Flags: W
HStem: 720 20G<218 241 454 477>
LayerCount: 2
Fore
SplineSet
620 522 m 0
 618 484 590 452 556 440 c 1
 556 440 556 438 558 438 c 0
 570 422 578 402 578 382 c 0
 578 356 566 330 544 312 c 0
 528 298 508 292 488 292 c 0
 460 292 434 304 418 326 c 0
 400 348 380 370 358 394 c 1
 292 322 l 2
 274 302 250 292 226 292 c 0
 204 292 182 300 166 316 c 0
 146 334 136 358 136 382 c 0
 136 388 136 392 138 398 c 1
 134 398 132 398 132 398 c 0
 124 396 118 394 110 394 c 0
 70 394 32 422 22 464 c 0
 20 472 20 478 20 486 c 0
 20 526 48 562 88 572 c 0
 92 574 120 580 164 588 c 1
 148 604 140 628 140 648 c 0
 140 672 148 692 164 710 c 0
 182 730 206 740 230 740 c 0
 252 740 274 732 290 716 c 0
 294 714 318 690 354 656 c 1
 400 706 l 2
 416 726 442 736 466 736 c 0
 488 736 508 728 526 712 c 0
 546 696 556 670 556 646 c 0
 556 634 554 624 550 614 c 1
 590 604 620 568 620 526 c 0
 620 524 620 524 620 522 c 0
EndSplineSet
Validated: 1
EndChar

StartChar: plus
Encoding: 43 43 10
Width: 732
VWidth: 1224
Flags: W
HStem: 289 178<52.2191 184.557> 381 180<449.758 679.727> 723 20G<299 350>
VStem: 236 180<535 710.858> 252 180<133.122 317>
LayerCount: 2
Fore
SplineSet
712 471 m 0x70
 712 421 672 381 622 381 c 0
 622 381 622 381 620 381 c 2
 618 381 l 2x70
 586 381 510 371 426 355 c 1
 432 193 l 2
 432 143 394 101 344 101 c 0
 344 99 342 99 342 99 c 0
 292 99 252 139 252 187 c 2
 246 317 l 1
 204 309 164 299 130 291 c 0
 124 289 116 289 110 289 c 0
 70 289 32 317 22 359 c 0
 20 365 20 371 20 377 c 0
 20 419 48 457 90 467 c 0xa8
 106 471 166 485 240 501 c 1
 236 651 l 2
 236 653 236 653 236 655 c 0
 236 701 276 741 322 743 c 0
 324 743 324 743 326 743 c 0
 374 743 414 703 416 657 c 2
 420 535 l 1
 500 551 576 561 620 561 c 0
 622 561 622 561 624 561 c 0
 672 561 712 521 712 471 c 0x70
EndSplineSet
Validated: 1
EndChar

StartChar: comma
Encoding: 44 44 11
Width: 252
VWidth: 1435
Flags: W
HStem: -217 364<74.8148 167.983>
VStem: 52 180<-84.6727 77.2519>
LayerCount: 2
Fore
SplineSet
110 -217 m 0
 90 -217 70 -211 54 -197 c 0
 32 -179 20 -153 20 -127 c 0
 20 -107 26 -87 40 -71 c 0
 50 -59 52 -39 52 -21 c 0
 52 1 50 19 46 29 c 0
 44 37 42 47 42 55 c 0
 42 95 66 129 106 143 c 0
 114 145 122 147 132 147 c 0
 170 147 206 121 218 83 c 0
 222 75 232 35 232 -17 c 0
 232 -69 222 -131 180 -183 c 0
 162 -205 136 -217 110 -217 c 0
EndSplineSet
Validated: 1
EndChar

StartChar: hyphen
Encoding: 45 45 12
Width: 544
VWidth: 1209
Flags: W
HStem: 335 180<53.9099 348.691> 367 180<301.25 493.065>
LayerCount: 2
Fore
SplineSet
148 515 m 2x80
 239 515 336 537 426 547 c 1
 434 547 l 2
 480 547 520 513 524 467 c 1
 524 457 l 2
 524 411 490 373 446 367 c 0x40
 414 363 380 356 350 352 c 0
 286 342 218 335 146 335 c 2
 104 335 l 1
 58 339 20 379 20 427 c 2
 20 431 l 1
 22 479 62 515 108 515 c 2
 148 515 l 2x80
EndSplineSet
Validated: 1
EndChar

StartChar: period
Encoding: 46 46 13
Width: 234
VWidth: 1405
Flags: W
HStem: -114 218<64.303 172.5>
VStem: 20 194<-70.168 15.4375>
LayerCount: 2
Fore
SplineSet
124 -114 m 0
 112 -114 100 -110 88 -106 c 0
 58 -94 36 -70 26 -42 c 0
 22 -28 20 -16 20 -4 c 0
 20 24 30 46 34 54 c 0
 50 86 82 104 116 104 c 0
 130 104 144 100 156 94 c 0
 186 78 202 48 204 16 c 1
 210 4 214 -8 214 -22 c 0
 214 -34 210 -46 206 -58 c 0
 192 -92 158 -114 124 -114 c 0
EndSplineSet
Validated: 1
EndChar

StartChar: slash
Encoding: 47 47 14
Width: 438
VWidth: 1252
Flags: W
HStem: -3 21G<104 127> 727 20G<308 332>
VStem: 20 172<29.0625 100.031> 242 176<617.395 713.951>
LayerCount: 2
Fore
SplineSet
110 -3 m 0
 98 -3 86 -1 74 5 c 0
 42 19 20 51 20 87 c 0
 20 99 22 111 28 123 c 0
 146 399 222 613 242 683 c 0
 254 723 288 747 328 747 c 0
 336 747 346 745 354 743 c 0
 392 731 418 695 418 657 c 0
 418 647 416 639 414 631 c 0
 388 541 300 305 192 53 c 0
 178 17 144 -3 110 -3 c 0
EndSplineSet
Validated: 1
EndChar

StartChar: zero
Encoding: 48 48 15
Width: 746
VWidth: 1255
Flags: W
HStem: -11 178<247.177 381.141> 529 226<314.357 443>
VStem: 20 178<227.403 391.683> 544 182<322.16 477.144>
LayerCount: 2
Fore
SplineSet
70 127 m 0
 34 189 20 251 20 307 c 0
 20 411 66 501 114 569 c 0
 138 601 266 755 366 755 c 0
 396 755 424 743 444 709 c 1
 488 707 530 695 568 673 c 0
 618 645 658 601 686 547 c 0
 714 495 726 443 726 395 c 0
 726 289 668 191 584 111 c 0
 502 35 400 -11 304 -11 c 0
 212 -11 126 29 70 127 c 0
278 487 m 1
 272 481 268 473 262 465 c 0
 218 401 198 343 198 323 c 0
 198 295 206 251 226 215 c 0
 250 173 276 167 300 167 c 0
 350 169 412 197 462 243 c 0
 510 287 544 349 544 407 c 0
 544 449 526 489 480 517 c 0
 466 525 452 529 434 529 c 0
 408 529 380 519 348 499 c 0
 332 489 316 485 300 485 c 0
 292 485 286 485 278 487 c 1
EndSplineSet
Validated: 1
EndChar

StartChar: one
Encoding: 49 49 16
Width: 452
VWidth: 1251
Flags: W
HStem: 1 21G<306 357> 725 20G<327 344>
VStem: 238 180<35.3285 476.597> 250 182<209.275 479>
LayerCount: 2
Fore
SplineSet
330 1 m 4xe0
 282 1 242 39 240 87 c 4
 240 111 238 137 238 161 c 4xe0
 238 239 242 317 246 387 c 4
 248 417 250 449 250 479 c 5
 220 461 186 443 148 425 c 4
 136 419 124 417 112 417 c 4
 78 417 44 437 28 469 c 4
 22 481 20 495 20 507 c 4
 20 541 38 573 72 589 c 4
 170 635 238 677 270 715 c 4
 288 735 314 745 340 745 c 4
 348 745 358 743 366 741 c 4
 400 729 424 699 428 663 c 4
 432 629 432 593 432 555 c 4xd0
 432 499 430 439 426 377 c 4
 422 307 418 235 418 161 c 4
 418 139 420 115 420 93 c 4
 420 91 420 91 420 89 c 4
 420 41 380 1 334 1 c 4
 332 1 332 1 330 1 c 4xe0
EndSplineSet
Validated: 1
EndChar

StartChar: two
Encoding: 50 50 17
Width: 644
VWidth: 1257
Flags: W
HStem: 10 182<280.877 574.522> 22 180<350.539 591.102> 560 180<57.207 287.729>
LayerCount: 2
Fore
SplineSet
348 10 m 0xa0
 278 10 212 17 170 38 c 0
 126 60 108 90 100 112 c 0
 92 130 88 148 88 170 c 0
 88 186 90 202 96 220 c 0
 104 246 118 274 138 310 c 0
 172 366 232 474 286 548 c 0
 288 552 290 554 292 556 c 1
 264 558 236 560 210 560 c 0
 170 560 136 558 116 556 c 1
 112 556 l 2
 64 556 22 594 20 642 c 1
 20 646 l 2
 20 692 58 734 104 736 c 0
 144 738 180 740 214 740 c 0
 334 740 418 726 480 694 c 0
 509 682 532 654 532 614 c 0
 532 596 528 578 516 562 c 0
 455 475 363 329 312 246 c 0
 298 224 288 206 280 194 c 1
 294 192 316 192 344 192 c 0xa0
 386 192 444 194 526 202 c 1
 534 202 l 2
 578 202 618 168 624 120 c 1
 624 112 l 2
 624 68 590 28 544 22 c 0x60
 466 14 402 10 348 10 c 0xa0
EndSplineSet
Validated: 1
EndChar

StartChar: three
Encoding: 51 51 18
Width: 746
VWidth: 1238
Flags: W
HStem: 20 180<189.267 536.823> 30 180<175.773 417.369> 522 178<53.4213 171.549> 560 180<182.189 368.537>
VStem: 20 542<562.012 670.856>
LayerCount: 2
Fore
SplineSet
110 522 m 4x28
 66 522 20 559 20 614 c 4
 20 652 46 688 86 700 c 4x28
 160 722 252 740 336 740 c 4
 404 740 468 728 518 696 c 4
 550 677 562 642 562 594 c 4
 562 548 548 504 522 464 c 5
 556 450 584 434 610 414 c 4
 670 368 706 308 720 236 c 4
 724 220 726 204 726 188 c 4
 726 158 716 128 698 102 c 4
 654 46 570 20 420 20 c 4x98
 364 20 300 24 226 30 c 4
 178 34 144 74 144 120 c 6
 144 128 l 5
 148 176 188 210 234 210 c 6
 242 210 l 5x48
 314 202 374 200 424 200 c 6
 466 200 l 5x88
 504 202 528 206 542 210 c 5
 534 242 502 306 330 326 c 4
 288 333 250 366 250 416 c 4
 250 446 266 476 292 492 c 4
 334 520 358 542 370 558 c 5
 360 560 348 560 334 560 c 4x58
 286 560 222 550 134 526 c 4
 126 524 118 522 110 522 c 4x28
EndSplineSet
Validated: 1
EndChar

StartChar: four
Encoding: 52 52 19
Width: 612
VWidth: 1226
Flags: W
HStem: -8 21G<477 529> 216 180<201.107 377.942> 732 2G<114 167 474 525>
VStem: 20 206<449.361 600.845> 406 186<29.6953 236.559> 406 180<422.417 719.672>
LayerCount: 2
Fore
SplineSet
226 634 m 5xf4
 222 554 204 474 200 400 c 5
 216 396 234 396 252 396 c 4
 294 396 342 404 402 426 c 5
 402 508 404 590 406 668 c 4
 410 716 450 754 498 754 c 6
 502 754 l 5
 548 752 586 714 586 666 c 4
 586 664 586 662 586 660 c 4xf4
 584 602 582 540 582 478 c 4
 582 360 586 238 590 118 c 5
 592 84 l 5xf8
 592 34 554 -8 504 -8 c 6
 502 -8 l 6
 452 -8 412 30 412 78 c 5
 410 112 l 5
 410 154 408 196 406 238 c 5
 352 222 302 216 254 216 c 4
 194 216 138 226 80 248 c 4
 48 260 26 290 22 324 c 4
 20 344 20 364 20 382 c 4
 20 474 38 563 48 650 c 4
 52 698 92 732 136 732 c 6
 144 732 l 5
 190 728 226 690 226 644 c 6
 226 634 l 5xf4
EndSplineSet
Validated: 1
EndChar

StartChar: five
Encoding: 53 53 20
Width: 702
VWidth: 1242
Flags: W
HStem: 2 180<243.901 483.067> 618 176<520.635 651.8>
LayerCount: 2
Fore
SplineSet
592 794 m 4
 638 794 682 761 682 706 c 4
 682 666 656 628 616 618 c 4
 512 592 410 576 306 564 c 1
 288 548 274 534 262 522 c 1
 344 508 412 490 470 468 c 0
 568 434 652 377 674 282 c 0
 674 278 676 274 676 270 c 0
 676 262 676 254 676 246 c 0
 676 154 636 100 602 68 c 0
 550 24 476 2 380 2 c 0
 308 2 224 14 128 38 c 0
 75 50 46 108 46 164 c 0
 46 202 58 240 86 270 c 0
 104 290 128 298 154 298 c 0
 176 298 198 292 214 276 c 0
 232 258 242 232 242 208 c 0
 242 204 242 200 242 196 c 1
 300 186 346 182 380 182 c 0
 452 182 478 198 484 204 c 0
 488 208 496 214 496 238 c 0
 496 240 496 243 496 246 c 0
 492 254 470 276 406 300 c 0
 334 328 230 348 100 362 c 0
 59 365 20 402 20 450 c 0
 20 460 22 470 24 478 c 0
 32 504 46 532 64 560 c 1
 42 576 26 600 22 630 c 1
 22 638 l 2
 22 684 58 722 106 726 c 0
 266 738 420 754 570 792 c 4
 578 794 586 794 592 794 c 4
EndSplineSet
Validated: 1
EndChar

StartChar: six
Encoding: 54 54 21
Width: 682
VWidth: 1275
Flags: W
HStem: 9 176<343.002 424.382> 337 180<415.592 481.523> 669 172<308.75 370.018>
VStem: 20 176<347.132 538.371> 482 180<248.427 335.931>
LayerCount: 2
Fore
SplineSet
206 345 m 1
 252 430 355 517 468 517 c 0
 508 517 546 507 580 481 c 0
 628 449 662 393 662 313 c 0
 662 245 634 173 588 117 c 0
 528 45 442 9 356 9 c 0
 268 9 180 45 118 117 c 0
 56 189 20 307 20 425 c 0
 20 515 40 605 86 675 c 0
 130 747 196 801 276 835 c 0
 288 839 300 841 310 841 c 0
 355 841 400 808 400 753 c 0
 400 717 380 683 346 669 c 4
 252 629 198 541 196 429 c 4
 198 399 200 371 206 345 c 1
342 187 m 1
 350 185 360 185 370 185 c 0
 408 187 436 215 448 229 c 0
 462 245 482 289 482 317 c 0
 482 329 476 337 464 337 c 0
 458 337 448 335 434 327 c 0
 394 307 352 261 344 201 c 0
 344 197 342 191 342 187 c 1
EndSplineSet
Validated: 1
EndChar

StartChar: seven
Encoding: 55 55 22
Width: 724
VWidth: 1245
Flags: W
HStem: -3 21G<309.5 353> 563 180<212.257 443.626>
VStem: 246 172<30.8279 90.3631>
LayerCount: 2
Fore
SplineSet
212 531 m 0
 212 484 175 441 122 441 c 0
 88 441 58 459 42 491 c 0
 26 519 20 547 20 575 c 0
 20 607 28 639 48 667 c 0
 60 687 80 701 104 707 c 0
 210 731 270 743 356 743 c 0
 434 743 522 733 586 715 c 0
 624 703 650 667 650 629 c 0
 650 621 650 615 648 607 c 0
 632 543 628 521 596 441 c 1
 600 441 604 443 606 443 c 2
 614 443 l 2
 660 443 700 407 704 361 c 1
 704 353 l 2
 704 307 668 267 622 263 c 0
 586 261 550 255 516 249 c 1
 486 187 454 119 418 47 c 0
 402 15 370 -3 336 -3 c 0
 283 -3 246 44 246 87 c 0
 246 101 250 115 256 127 c 0
 266 147 276 167 286 185 c 1
 238 185 196 224 196 277 c 0
 196 309 214 341 246 357 c 0
 286 377 336 393 388 407 c 1
 420 481 426 499 446 559 c 1
 422 561 380 563 354 563 c 0
 298 563 276 557 210 545 c 1
 210 541 212 535 212 531 c 0
EndSplineSet
Validated: 1
EndChar

StartChar: eight
Encoding: 56 56 23
Width: 686
VWidth: 1291
Flags: W
HStem: -9 176<319.371 462.316> 503 21G<85.5 112> 573 178<344.469 458.065>
VStem: 486 180<191.129 252.452>
LayerCount: 2
Fore
SplineSet
376 -9 m 0
 256 -9 134 40 134 159 c 0
 134 255 226 353 284 403 c 1
 250 425 200 451 158 477 c 0
 146 483 136 493 130 505 c 1
 122 503 116 503 108 503 c 0
 63 503 20 537 20 591 c 0
 20 625 40 659 72 673 c 0
 178 723 264 747 344 751 c 0
 354 751 364 753 376 753 c 0
 482 753 652 697 652 567 c 0
 652 553 650 539 644 523 c 0
 638 495 622 465 600 437 c 0
 590 425 580 415 570 403 c 1
 632 343 666 277 666 213 c 0
 666 155 640 99 578 51 c 0
 526 11 450 -9 376 -9 c 0
318 177 m 1
 332 173 358 169 402 167 c 0
 446 169 484 199 486 223 c 0
 486 225 480 241 436 281 c 0
 432 285 428 289 424 293 c 1
 362 249 328 211 318 177 c 1
344 571 m 1
 374 551 402 533 428 517 c 1
 442 529 452 541 460 551 c 1
 440 563 412 573 374 573 c 0
 364 573 354 573 344 571 c 1
EndSplineSet
Validated: 1
EndChar

StartChar: nine
Encoding: 57 57 24
Width: 584
VWidth: 1275
Flags: W
HStem: 11 21G<458 483> 267 180<202.112 379.758> 559 180<234.802 362.497>
VStem: 20 180<456.636 526.229> 370 194<69.4238 278.65> 370 178<44.0505 278.45>
LayerCount: 2
Fore
SplineSet
460 11 m 4xf4
 456 11 454 11 452 13 c 4
 404 17 370 57 370 101 c 6
 370 109 l 5
 374 173 378 231 382 281 c 5
 338 273 300 267 264 267 c 4
 226 267 190 273 158 283 c 5
 154 283 l 5
 84 309 52 355 38 389 c 4
 22 425 20 463 20 497 c 4
 20 557 52 619 106 665 c 4
 162 713 232 739 306 739 c 4
 308 739 310 739 312 739 c 4
 388 733 446 709 488 667 c 4
 526 629 542 585 552 547 c 4
 552 545 552 541 554 539 c 4
 562 501 564 453 564 391 c 4xf8
 564 315 560 217 548 95 c 4
 544 47 506 11 460 11 c 4xf4
212 455 m 4
 226 451 242 447 266 447 c 4
 294 447 330 453 382 465 c 5
 378 492 375 526 360 541 c 4
 350 549 330 557 302 559 c 4
 264 559 238 541 226 531 c 4
 208 515 200 499 200 493 c 4
 200 481 200 465 202 459 c 4
 204 459 206 457 212 455 c 4
EndSplineSet
Validated: 1
EndChar

StartChar: colon
Encoding: 58 58 25
Width: 310
VWidth: 1318
Flags: W
HStem: 10 212<140.762 241.983> 322 190<65.4216 188.578>
VStem: 20 214<364.687 469.313> 94 196<64.984 167.202>
LayerCount: 2
Fore
SplineSet
144 512 m 4xe0
 189 512 234 478 234 424 c 4
 234 384 210 350 172 336 c 5
 138 326 l 6
 128 324 120 322 110 322 c 4
 65 322 20 356 20 410 c 4
 20 450 44 484 82 498 c 5
 116 508 l 5
 126 512 136 512 144 512 c 4xe0
290 100 m 4xd0
 290 55 252 10 200 10 c 4
 164 10 132 30 116 64 c 5
 102 96 l 6
 96 108 94 118 94 130 c 4
 94 166 116 200 150 214 c 4
 162 220 172 222 184 222 c 4
 220 222 254 200 268 168 c 6
 282 136 l 6
 288 124 290 112 290 100 c 4xd0
EndSplineSet
Validated: 1
EndChar

StartChar: semicolon
Encoding: 59 59 26
AltUni2: 00037e.ffffffff.0
Width: 320
VWidth: 1392
Flags: W
HStem: 303 248<140.554 236.561>
VStem: 106 192<393.939 505.793> 120 180<4.36806 164.081>
LayerCount: 2
Fore
SplineSet
196 551 m 4xc0
 260 551 298 491 298 437 c 4
 298 433 298 429 298 425 c 4
 292 371 252 323 204 307 c 4
 194 305 184 303 176 303 c 4
 130 303 86 337 86 393 c 4
 86 413 94 435 106 451 c 5
 106 454 106 457 106 460 c 0
 106 512 153 551 196 551 c 4xc0
152 383 m 5
 152 383 l 5
110 -241 m 0
 86 -241 62 -231 44 -213 c 0
 28 -195 20 -173 20 -151 c 0
 20 -127 30 -103 48 -85 c 0
 60 -75 80 -47 96 -1 c 0
 112 37 120 79 120 105 c 0
 120 107 120 107 120 109 c 0
 120 157 160 195 208 197 c 2
 208 197 208 197 210 197 c 0
 258 197 298 157 300 109 c 0xa0
 300 41 278 -29 264 -65 c 0
 250 -103 220 -173 172 -217 c 0
 154 -233 132 -241 110 -241 c 0
EndSplineSet
Validated: 1
EndChar

StartChar: less
Encoding: 60 60 27
Width: 586
VWidth: 1264
Flags: W
HStem: 14 21G<473 500.5> 716 20G<382 404>
LayerCount: 2
Fore
SplineSet
566 104 m 4
 566 49 523 14 478 14 c 4
 468 14 458 16 448 20 c 4
 354 52 226 152 46 336 c 4
 28 354 20 376 20 398 c 4
 20 420 28 442 44 460 c 4
 142 568 230 646 340 720 c 4
 356 730 374 736 390 736 c 4
 418 736 446 722 464 698 c 4
 474 682 480 664 480 646 c 4
 480 618 466 590 442 572 c 4
 364 520 302 468 236 400 c 5
 398 244 474 200 508 190 c 4
 544 178 566 142 566 104 c 4
EndSplineSet
Validated: 1
EndChar

StartChar: equal
Encoding: 61 61 28
Width: 552
VWidth: 1253
Flags: W
HStem: 154 180<65.3286 374.459> 190 176<333.91 481.456> 428 186<59.0775 482.234> 444 176<282.269 499.185>
VStem: 20 512<471.043 576.706>
LayerCount: 2
Fore
SplineSet
442 620 m 4x18
 486 620 532 584 532 530 c 4
 532 490 508 456 468 444 c 4x18
 440 436 394 436 282 434 c 4
 228 434 146 434 126 430 c 4
 120 428 116 428 110 428 c 4
 63 428 20 465 20 520 c 4
 20 562 50 598 94 606 c 4
 128 614 186 614 280 614 c 4x28
 328 614 402 616 420 618 c 4
 428 620 434 620 442 620 c 4x18
416 618 m 5
 416 618 l 5
422 618 m 5
 422 618 l 5
424 366 m 4x48
 469 366 512 331 512 276 c 4
 512 238 490 204 452 190 c 4x48
 382 166 186 156 126 154 c 5
 122 154 l 6
 74 154 36 192 34 240 c 5
 34 244 l 6
 34 292 72 332 120 334 c 4x88
 228 338 364 350 394 360 c 4
 404 364 414 366 424 366 c 4x48
EndSplineSet
Validated: 1
EndChar

StartChar: greater
Encoding: 62 62 29
Width: 728
VWidth: 1281
Flags: W
HStem: 10 21G<233 256>
LayerCount: 2
Fore
SplineSet
20 736 m 0
 20 788 66 828 110 828 c 0
 126 828 142 822 158 814 c 0
 314 715 495 667 660 572 c 0
 684 560 700 538 706 512 c 0
 706 506 708 502 708 496 c 0
 708 476 700 454 688 438 c 0
 640 378 584 328 526 274 c 0
 452 208 378 140 316 48 c 0
 298 22 270 10 242 10 c 0
 224 10 206 14 190 24 c 0
 166 42 152 70 152 98 c 0
 152 116 158 134 168 150 c 0
 240 258 328 338 404 408 c 0
 426 428 448 448 470 468 c 1
 327 529 197 577 62 660 c 0
 34 676 20 706 20 736 c 0
EndSplineSet
Validated: 1
EndChar

StartChar: question
Encoding: 63 63 30
Width: 654
VWidth: 1257
Flags: W
HStem: -108 210<311.625 382.125> 150 180<336.346 589.305> 160 180<336 375.161 377.979 386.878 390.253 601.643> 694 180<52.6294 347.415>
VStem: 228 236<-45.9866 39.9866>
LayerCount: 2
Fore
SplineSet
532 340 m 5xb8
 544 340 l 6
 590 340 630 304 634 258 c 5
 634 250 l 6
 634 204 600 164 552 160 c 5
 548 160 l 5xb8
 488 154 436 150 388 150 c 4
 364 150 344 152 324 154 c 4
 204 168 160 232 144 284 c 4
 142 292 141 300 141 308 c 0
 141 314 141 319 142 324 c 4
 152 394 212 478 302 596 c 4
 318 618 338 646 356 670 c 5
 342 674 324 678 302 680 c 4
 250 688 184 692 110 694 c 4
 60 694 20 734 20 784 c 4
 20 834 62 874 110 874 c 4
 210 872 294 866 360 854 c 4
 432 842 530 814 560 736 c 4
 565 724 568 712 568 701 c 0
 568 695 567 689 566 684 c 4
 556 636 518 584 446 488 c 4
 414 448 384 406 358 368 c 4
 350 354 342 342 336 334 c 5
 346 332 358 330 376 330 c 4xd8
 418 330 474 334 532 340 c 5xb8
374 102 m 4
 420 102 464 65 464 12 c 4
 464 -20 446 -50 418 -66 c 6
 362 -98 l 6
 348 -106 332 -108 318 -108 c 4
 272 -108 228 -71 228 -18 c 4
 228 14 246 44 274 60 c 6
 330 90 l 6
 344 98 360 102 374 102 c 4
EndSplineSet
Validated: 1
EndChar

StartChar: at
Encoding: 64 64 31
Width: 894
VWidth: 1185
Flags: W
HStem: -166 182<343.981 629.442> 494 20G<440 497> 556 180<359.888 627.359>
VStem: 20 180<185.971 412.166> 266 180<231.604 315.809> 694 180<357.378 510.379>
LayerCount: 2
Fore
SplineSet
738 108 m 4
 792 108 830 63 830 18 c 4
 830 4 826 -10 820 -22 c 4
 763 -129 637 -166 460 -166 c 4
 452 -166 446 -166 438 -164 c 4
 372 -164 310 -150 256 -120 c 4
 204 -94 158 -56 122 -8 c 4
 56 78 20 192 20 312 c 6
 20 322 l 5
 22 436 68 540 152 618 c 4
 227 685 338 736 474 736 c 6
 490 736 l 6
 584 736 664 720 726 688 c 4
 824 640 858 570 866 520 c 4
 868 520 868 518 868 518 c 5
 872 490 874 464 874 438 c 4
 874 358 852 288 810 240 c 4
 788 214 752 186 700 172 c 5
 679 130 646 99 602 80 c 4
 552 56 500 50 464 50 c 6
 450 50 l 6
 340 50 266 132 266 254 c 6
 266 258 l 5
 268 314 284 372 312 416 c 4
 350 478 408 514 472 514 c 6
 474 514 l 6
 520 514 560 500 588 472 c 4
 606 454 626 422 626 370 c 4
 626 360 624 352 620 342 c 5
 624 342 628 344 632 344 c 4
 635 344 637 344 639 344 c 0
 663 344 670 353 674 358 c 4
 684 370 694 398 694 438 c 4
 694 452 692 468 690 486 c 4
 686 504 664 518 648 526 c 4
 610 546 552 556 488 556 c 6
 478 556 l 6
 330 556 200 464 200 320 c 6
 200 310 l 6
 200 154 288 16 440 16 c 4
 450 16 460 16 470 16 c 4
 614 16 650 44 660 60 c 4
 676 90 706 108 738 108 c 4
464 230 m 6
 488 230 540 238 540 256 c 4
 540 266 542 274 544 282 c 5
 534 282 l 6
 504 282 478 298 462 318 c 5
 454 304 446 280 446 256 c 4
 446 242 448 234 450 230 c 5
 464 230 l 6
EndSplineSet
Validated: 1
EndChar

StartChar: A
Encoding: 65 65 32
AltUni2: 000391.ffffffff.0 000410.ffffffff.0
Width: 788
VWidth: 1263
Flags: W
HStem: 4 21G<87.5 118> 737 20G<346.5 390>
AnchorPoint: "bottom" 400 44 basechar 0
AnchorPoint: "top" 362 753 basechar 0
LayerCount: 2
Fore
SplineSet
284 667 m 2
 284 715 319 757 374 757 c 0
 406 757 436 741 452 711 c 2
 756 176 l 2
 764 162 768 148 768 132 c 0
 768 87 729 42 676 42 c 0
 644 42 614 60 598 88 c 2
 530 212 l 1
 274 184 l 1
 264 166 254 150 246 134 c 0
 196 46 176 30 158 18 c 0
 144 8 126 4 110 4 c 0
 65 4 20 41 20 94 c 0
 20 120 32 144 52 162 c 0
 64 174 92 226 128 294 c 0
 132 302 138 312 142 322 c 0
 152 350 168 376 182 408 c 0
 250 562 284 618 284 655 c 2
 284 667 l 2
374 376 m 1
 436 384 l 1
 396 452 l 1
 388 428 384 402 374 376 c 1
EndSplineSet
Validated: 1
EndChar

StartChar: B
Encoding: 66 66 33
AltUni2: 000392.ffffffff.0 000412.ffffffff.0
Width: 850
VWidth: 1289
Flags: W
HStem: -59 180<507.873 644.299> -13 21G<287 320> 591 180<234.263 516.617>
VStem: 649 179<125.1 224.895>
LayerCount: 2
Fore
SplineSet
698 579 m 0x70
 698 499 665 487 612 437 c 1
 636 431 658 421 676 411 c 0
 766 363 820 291 828 205 c 1
 828 203 l 1
 830 191 830 179 830 167 c 0
 830 77 800 18 748 -21 c 0
 712 -47 668 -59 616 -59 c 0xb0
 556 -59 486 -43 402 -9 c 0
 390 -3 380 5 370 13 c 1
 355 -2 334 -13 306 -13 c 0
 268 -13 232 11 220 49 c 0
 218 53 72 481 24 619 c 0
 22 627 20 637 20 647 c 0
 20 694 55 731 96 737 c 0
 100 739 208 755 322 765 c 0
 372 769 418 771 456 771 c 2
 492 771 l 1
 550 769 612 761 646 713 c 1
 686 665 698 617 698 579 c 0x70
436 165 m 0
 448 165 460 163 470 157 c 0
 542 127 588 121 616 121 c 0
 630 121 640 123 642 125 c 0
 644 127 649 137 649 164 c 0
 649 171 649 178 648 187 c 0
 646 211 628 233 594 251 c 0
 556 271 484 295 358 295 c 2
 356 295 l 2
 346 295 338 295 330 299 c 1
 350 235 368 179 380 143 c 1
 396 157 416 165 436 165 c 0
230 573 m 1
 246 525 264 497 284 439 c 1
 292 451 304 461 318 467 c 0
 466 531 512 555 518 577 c 0
 518 581 518 585 514 589 c 1
 504 589 486 591 458 591 c 0
 415 591 289 583 230 573 c 1
EndSplineSet
Validated: 1
EndChar

StartChar: C
Encoding: 67 67 34
AltUni2: 000421.ffffffff.0
Width: 692
VWidth: 1244
Flags: W
HStem: 96 182<251.41 509.221> 138 176<516.975 641.043> 554 180<302.74 442.044>
LayerCount: 2
Fore
SplineSet
582 314 m 0x60
 628 314 672 280 672 224 c 0
 672 184 644 148 604 138 c 0x60
 502 112 448 98 376 98 c 0
 372 98 366 96 360 96 c 0
 266 96 192 118 134 160 c 0
 64 210 26 300 20 402 c 1
 20 418 l 1
 30 502 68 588 132 642 c 0
 194 694 280 726 378 734 c 1
 386 734 l 2
 432 734 472 698 476 652 c 1
 476 648 l 2
 476 600 440 558 392 554 c 0
 326 550 216 516 200 406 c 1
 206 340 232 312 242 304 c 0
 262 290 298 278 362 278 c 0xa0
 416 278 460 286 560 312 c 0
 568 314 574 314 582 314 c 0x60
EndSplineSet
Validated: 1
EndChar

StartChar: D
Encoding: 68 68 35
Width: 812
VWidth: 1253
Flags: W
VStem: 612 180<301.473 399.373>
LayerCount: 2
Fore
SplineSet
20 603 m 4
 20 657 61 692 106 695 c 4
 132 695 158 697 184 697 c 4
 462 697 673 630 766 459 c 4
 768 457 770 453 770 449 c 4
 786 409 792 373 792 341 c 4
 792 285 772 243 752 213 c 4
 680 109 520 57 278 57 c 6
 270 57 l 6
 226 57 190 89 182 131 c 4
 146 329 82 481 34 557 c 4
 24 571 20 587 20 603 c 4
256 515 m 5
 292 433 322 337 344 239 c 5
 500 247 580 283 604 315 c 4
 606 319 612 327 612 341 c 4
 612 351 610 363 604 379 c 5
 553 473 408 507 256 515 c 5
EndSplineSet
Validated: 1
EndChar

StartChar: E
Encoding: 69 69 36
AltUni2: 000395.ffffffff.0 000415.ffffffff.0
Width: 574
VWidth: 1257
Flags: W
HStem: 11 180<236.96 376.504> 657 180<204.328 314.587>
VStem: 20 180<575.469 647.741> 36 180<223.606 324.934>
LayerCount: 2
Fore
SplineSet
464 245 m 0xd0
 509 245 554 206 554 153 c 0
 554 121 536 91 506 75 c 0
 426 31 356 11 292 11 c 0
 274 11 258 13 244 15 c 0
 166 29 104 75 58 153 c 0
 42 177 36 220 36 255 c 0xd0
 36 328 65 395 98 443 c 1
 48 491 20 555 20 629 c 0xe0
 20 659 24 694 36 715 c 0xd0
 80 785 154 829 234 837 c 0
 242 837 248 839 256 839 c 0
 292 839 330 829 364 815 c 0
 408 795 448 765 486 723 c 0
 502 707 508 685 508 663 c 0
 508 639 500 613 480 597 c 0
 462 581 440 573 418 573 c 0
 394 573 370 583 352 603 c 0
 330 627 294 657 256 657 c 0
 254 657 252 657 250 657 c 0
 228 655 212 645 200 633 c 1
 200 631 200 629 200 627 c 0xe0
 200 587 222 563 268 547 c 0
 302 537 324 509 330 477 c 0
 330 471 332 467 332 461 c 0
 332 433 318 405 296 389 c 0
 240 347 216 295 216 253 c 0
 216 247 216 241 218 235 c 1
 240 203 260 195 274 193 c 0
 280 191 286 191 294 191 c 0
 320 191 360 201 420 233 c 0
 434 241 448 245 464 245 c 0xd0
EndSplineSet
Validated: 1
EndChar

StartChar: F
Encoding: 70 70 37
Width: 718
VWidth: 1248
Flags: W
HStem: -4 21G<231 283> 568 180<260 485.17>
VStem: 168 180<29.0782 218.406>
LayerCount: 2
Fore
SplineSet
636 626 m 4
 636 572 594 536 548 536 c 4
 540 536 534 536 526 538 c 4
 460 554 356 566 260 568 c 5
 278 524 294 478 308 428 c 4
 310 418 312 408 314 398 c 5
 596 438 l 6
 600 438 606 440 610 440 c 4
 654 440 690 408 698 362 c 4
 698 358 698 354 698 350 c 4
 698 308 666 268 622 260 c 5
 344 220 l 5
 346 186 348 152 348 120 c 4
 348 108 348 96 348 84 c 4
 348 34 308 -4 258 -4 c 6
 256 -4 l 6
 206 -2 168 38 168 88 c 6
 168 122 l 6
 168 322 104 508 38 594 c 4
 26 610 20 630 20 650 c 4
 20 700 56 731 96 738 c 4
 138 744 190 748 242 748 c 4
 360 748 488 734 570 714 c 4
 610 702 636 666 636 626 c 4
EndSplineSet
Validated: 1
EndChar

StartChar: G
Encoding: 71 71 38
Width: 816
VWidth: 1259
Flags: W
HStem: -8 178<683.369 764.998> 36 182<249.472 424.95> 498 244<403.842 476.698> 730 20G<371 393>
VStem: 20 176<265.38 396.115>
LayerCount: 2
Fore
SplineSet
552 586 m 0x28
 552 540 516 498 462 498 c 0
 422 498 384 526 374 566 c 1
 362 562 342 550 312 526 c 1
 238 442 196 378 196 322 c 1
 200 280 220 238 310 218 c 1
 318 218 l 2x68
 414 218 450 252 472 280 c 0
 488 302 514 314 540 314 c 0
 568 314 598 300 614 278 c 0
 620 270 626 262 632 256 c 0
 648 234 666 210 682 192 c 0
 696 176 704 170 708 170 c 0
 754 170 796 132 796 86 c 2
 796 82 l 1
 794 16 756 -8 710 -8 c 0x88
 660 -8 598 22 566 54 c 0
 552 68 542 80 530 92 c 1
 486 66 400 36 324 36 c 0
 308 36 294 38 280 40 c 0
 204 56 144 86 100 128 c 0
 42 186 20 252 20 318 c 0
 20 446 102 560 182 650 c 1
 190 658 l 1
 230 692 268 718 304 732 c 0
 332 744 358 750 384 750 c 0x58
 402 750 418 746 434 742 c 0
 468 732 526 700 550 608 c 0
 552 600 552 594 552 586 c 0x28
EndSplineSet
Validated: 1
EndChar

StartChar: H
Encoding: 72 72 39
AltUni2: 000397.ffffffff.0 00041d.ffffffff.0
Width: 806
VWidth: 1261
Flags: W
HStem: 20 15G<185 238 677 724> 712 20G<83 127 487 530>
VStem: 20 172<626.967 700.646> 126 180<53.0579 161.927> 422 172<648.494 710.985>
LayerCount: 2
Fore
SplineSet
786 104 m 4xe8
 786 58 752 14 696 14 c 4
 658 14 624 38 612 76 c 4
 592 134 574 196 558 254 c 4
 556 256 556 258 556 258 c 5
 478 258 418 244 378 216 c 4
 338 190 314 152 306 96 c 4
 298 52 260 20 216 20 c 6
 208 20 l 5
 162 26 126 64 126 110 c 6
 126 148 l 6xd8
 126 296 92 462 28 606 c 4
 22 618 20 630 20 642 c 4
 20 687 56 732 110 732 c 4
 144 732 178 712 192 678 c 4
 236 580 268 476 286 372 c 5
 344 408 416 430 502 436 c 5
 480 502 458 564 432 614 c 4
 426 626 422 640 422 654 c 4
 422 699 460 744 514 744 c 4
 546 744 578 726 594 694 c 4
 672 538 723 317 782 132 c 4
 786 122 786 112 786 104 c 4xe8
EndSplineSet
Validated: 1
EndChar

StartChar: I
Encoding: 73 73 40
AltUni2: 000399.ffffffff.0 000406.ffffffff.0
Width: 396
VWidth: 1253
Flags: W
HStem: 718 20G<83.5 126>
VStem: 20 170<646.427 704.985> 202 174<146.163 232.562>
AnchorPoint: "top" 110 732 basechar 0
AnchorPoint: "bottom" 302 110 basechar 0
LayerCount: 2
Fore
SplineSet
376 206 m 4
 376 158 341 116 286 116 c 4
 250 116 216 138 202 174 c 4
 190 208 176 244 164 278 c 4
 120 398 74 522 30 606 c 4
 24 620 20 634 20 648 c 4
 20 693 57 738 110 738 c 4
 142 738 174 720 190 688 c 4
 238 594 286 466 332 340 c 4
 344 306 358 272 370 238 c 4
 374 228 376 216 376 206 c 4
EndSplineSet
Validated: 1
EndChar

StartChar: J
Encoding: 74 74 41
AltUni2: 000408.ffffffff.0
Width: 530
VWidth: 1295
Flags: W
HStem: -52 178<51.5753 148.4> 732 20G<110.5 149>
LayerCount: 2
Fore
SplineSet
46 660 m 4
 46 708 85 752 136 752 c 4
 162 752 188 740 206 716 c 4
 248 664 390 472 478 254 c 4
 498 206 510 162 510 122 c 6
 510 112 l 6
 510 66 496 26 472 -8 c 4
 448 -36 400 -78 306 -78 c 4
 286 -78 266 -76 242 -72 c 6
 98 -52 l 6
 52 -46 20 -6 20 36 c 4
 20 40 20 44 20 48 c 4
 28 94 66 126 110 126 c 4
 114 126 118 126 122 126 c 6
 268 106 l 5
 272 106 l 5
 286 103 298 101 307 101 c 0
 319 101 327 104 330 106 c 5
 330 114 l 6
 330 126 328 150 312 184 c 5
 312 186 l 5
 248 342 142 506 64 606 c 4
 52 622 46 642 46 660 c 4
EndSplineSet
Validated: 1
EndChar

StartChar: K
Encoding: 75 75 42
AltUni2: 00039a.ffffffff.0 00041a.ffffffff.0
Width: 982
VWidth: 1278
Flags: W
HStem: -10 21G<290 348>
VStem: 458 176<721.898 817.036>
LayerCount: 2
Fore
SplineSet
544 848 m 0
 600 848 634 804 634 758 c 0
 634 750 632 740 630 732 c 0
 600 624 554 524 492 428 c 1
 690 364 826 300 926 228 c 0
 950 212 962 184 962 156 c 0
 962 136 958 118 946 102 c 0
 928 78 900 66 872 66 c 0
 854 66 836 70 820 82 c 0
 726 150 586 212 370 280 c 1
 380 218 390 154 400 94 c 0
 400 88 402 84 402 78 c 0
 402 34 370 -2 326 -10 c 1
 312 -10 l 2
 268 -10 230 22 222 66 c 0
 186 296 140 582 40 708 c 0
 26 724 20 744 20 764 c 0
 20 810 60 854 110 854 c 0
 136 854 162 842 180 820 c 0
 244 738 288 624 322 498 c 1
 384 586 428 682 458 784 c 0
 470 822 506 848 544 848 c 0
EndSplineSet
Validated: 1
EndChar

StartChar: L
Encoding: 76 76 43
Width: 648
VWidth: 1265
Flags: W
HStem: 15 180<234.527 440.566> 725 20G<91 145>
VStem: 20 180<288.968 707.512>
LayerCount: 2
Fore
SplineSet
538 295 m 0
 592 295 628 251 628 207 c 0
 628 195 626 183 620 171 c 0
 580 71 504 15 370 15 c 0
 302 15 220 31 124 61 c 0
 92 71 68 99 64 131 c 0
 34 297 20 417 20 567 c 0
 20 601 22 633 24 663 c 0
 28 709 68 745 114 745 c 2
 122 745 l 1
 168 741 204 701 204 655 c 2
 204 647 l 1
 202 621 200 593 200 565 c 0
 200 445 210 357 232 217 c 1
 296 201 340 195 370 195 c 0
 390 195 404 197 414 201 c 0
 436 207 444 215 454 239 c 0
 470 275 504 295 538 295 c 0
EndSplineSet
Validated: 1
EndChar

StartChar: M
Encoding: 77 77 44
AltUni2: 00039c.ffffffff.0 00041c.ffffffff.0
Width: 918
VWidth: 1274
Flags: W
HStem: -4 21G<85 124> 736 20G<609.5 642>
VStem: 720 178<136.202 281.967>
LayerCount: 2
Fore
SplineSet
898 194 m 4
 898 147 861 104 808 104 c 4
 766 104 728 134 720 178 c 4
 701 271 683 369 660 450 c 5
 638 400 600 330 550 276 c 4
 532 256 506 246 480 246 c 4
 454 248 430 260 414 282 c 4
 376 328 334 374 290 412 c 5
 286 368 282 322 276 282 c 4
 258 178 228 96 184 34 c 4
 166 10 138 -4 110 -4 c 4
 60 -4 20 43 20 88 c 4
 20 106 26 124 36 140 c 4
 102 232 112 402 118 582 c 4
 118 629 156 670 208 670 c 4
 222 670 236 666 250 660 c 4
 324 620 404 558 476 484 c 5
 506 542 532 614 544 682 c 4
 549 722 585 756 634 756 c 4
 650 756 666 752 680 742 c 4
 817 653 854 424 896 212 c 4
 898 206 898 200 898 194 c 4
EndSplineSet
Validated: 1
EndChar

StartChar: N
Encoding: 78 78 45
AltUni2: 00039d.ffffffff.0
Width: 858
VWidth: 1232
Flags: W
HStem: 14 21G<82.5 127> 112 180<512.958 625.213> 722 20G<167.5 209>
VStem: 20 170<45.0516 112.406> 658 180<332.206 543.461>
LayerCount: 2
Fore
SplineSet
524 712 m 0
 524 763 570 802 614 802 c 0
 632 802 648 796 664 786 c 0
 716 750 756 708 782 656 c 0
 812 602 830 536 836 456 c 0
 838 452 838 450 838 446 c 0
 834 312 796 216 724 160 c 0
 683 128 636 112 572 112 c 0
 540 112 506 116 470 126 c 0
 468 128 464 128 460 130 c 0
 402 152 348 204 284 296 c 0
 278 306 270 318 262 330 c 1
 248 234 228 140 190 64 c 0
 176 32 144 14 110 14 c 0
 55 14 20 58 20 102 c 0
 20 116 24 130 30 142 c 0
 84 256 96 484 104 642 c 1
 104 656 l 1
 106 700 141 742 194 742 c 0
 224 742 256 726 272 696 c 0
 278 688 282 678 288 668 c 0
 340 578 388 462 432 398 c 0
 482 326 510 306 522 298 c 1
 538 296 556 292 572 292 c 0
 588 292 604 296 616 304 c 0
 640 322 656 374 658 446 c 1
 646 558 614 602 562 638 c 0
 538 656 524 684 524 712 c 0
EndSplineSet
Validated: 1
EndChar

StartChar: O
Encoding: 79 79 46
AltUni2: 00039f.ffffffff.0 00041e.ffffffff.0
Width: 762
VWidth: 1265
Flags: W
HStem: 484 254<232.879 337.295> 512 180<357.059 507.597>
VStem: 562 180<342.413 465.538>
AnchorPoint: "top" 382 736 basechar 0
AnchorPoint: "bottom" 408 86 basechar 0
LayerCount: 2
Fore
SplineSet
414 692 m 6x60
 591 692 714 595 742 450 c 5
 742 335 715 252 648 192 c 4
 592 142 518 118 424 94 c 4
 418 94 410 92 404 92 c 6
 400 92 l 5
 294 96 212 114 150 152 c 4
 68 202 22 282 20 384 c 4
 20 390 20 396 22 404 c 4
 54 557 134 682 262 732 c 4
 272 736 284 738 294 738 c 4xa0
 326 738 358 720 374 692 c 5
 414 692 l 6x60
562 426 m 5
 549 488 484 512 408 512 c 4x60
 364 512 316 504 268 488 c 4
 260 486 250 484 242 484 c 5
 226 458 210 424 200 378 c 5
 204 336 222 318 242 306 c 4
 274 286 326 276 394 272 c 5
 530 306 558 332 562 426 c 5
EndSplineSet
Validated: 1
EndChar

StartChar: P
Encoding: 80 80 47
AltUni2: 0003a1.ffffffff.0 000420.ffffffff.0
Width: 630
VWidth: 1246
Flags: W
HStem: -8 21G<243 286.5> 230 180<280 412.246> 562 180<238.557 393.187>
VStem: 20 180<415.976 530.781>
LayerCount: 2
Fore
SplineSet
350 82 m 0
 350 37 313 -8 260 -8 c 0
 226 -8 198 10 182 40 c 0
 102 190 56 278 28 392 c 0
 28 398 26 402 26 408 c 0
 26 414 24 422 24 432 c 0
 22 452 20 472 20 492 c 0
 20 524 24 554 38 584 c 0
 64 648 122 694 210 722 c 0
 250 734 288 742 326 742 c 0
 386 742 444 724 494 692 c 0
 562 646 604 574 610 498 c 1
 610 484 l 1
 600 370 554 292 472 256 c 0
 426 236 376 230 330 230 c 0
 312 230 296 232 280 232 c 1
 302 190 314 174 340 124 c 0
 348 110 350 96 350 82 c 0
200 486 m 0
 200 468 202 444 206 428 c 0
 206 416 228 414 248 414 c 2
 280 414 l 1
 300 412 320 410 338 410 c 0
 362 410 384 414 398 420 c 0
 404 422 424 430 430 490 c 1
 426 506 414 528 392 542 c 0
 374 554 352 562 326 562 c 0
 286 562 211 536 204 514 c 0
 200 506 200 498 200 486 c 0
EndSplineSet
Validated: 1
EndChar

StartChar: Q
Encoding: 81 81 48
Width: 822
VWidth: 1328
Flags: W
HStem: -220 444<241.5 460> 418 266<240.939 351.941> 488 178<417.391 584.447>
VStem: 20 179<261.117 396.16> 612 180<334.016 460.717>
LayerCount: 2
Fore
SplineSet
714 70 m 4xd8
 765 70 802 27 802 -20 c 4
 802 -38 796 -58 784 -74 c 4
 742 -128 684 -160 622 -162 c 4
 564 -162 508 -134 464 -84 c 4
 459 -81 456 -79 453 -79 c 0
 448 -79 442 -85 424 -98 c 4
 396 -120 362 -156 332 -190 c 4
 316 -210 290 -220 266 -220 c 4
 217 -220 176 -176 176 -130 c 4
 176 -108 184 -86 198 -70 c 4
 244 -20 282 20 320 48 c 5
 228 58 138 80 78 148 c 4
 40 192 20 246 20 310 c 4
 20 322 20 332 22 344 c 4
 36 486 122 606 260 674 c 4
 272 680 286 684 300 684 c 4xd8
 330 684 360 668 376 640 c 5
 420 656 475 666 528 666 c 4xb8
 564 666 598 660 632 646 c 4
 702 616 754 560 784 476 c 4
 788 470 790 462 790 454 c 4
 792 442 792 430 792 418 c 4
 792 328 754 236 696 174 c 4
 656 132 604 100 544 76 c 5
 556 70 566 64 578 56 c 4
 584 50 590 44 596 38 c 4
 606 26 612 20 619 20 c 0
 625 20 632 25 642 34 c 4
 664 54 686 70 714 70 c 4xd8
212 268 m 4
 234 242 294 228 390 224 c 5
 530 240 612 312 612 418 c 6xd8
 612 426 l 5
 596 462 576 476 564 480 c 4
 550 486 534 488 518 488 c 4xb8
 464 488 400 462 324 426 c 4
 312 420 300 418 286 418 c 4
 270 418 254 422 240 430 c 5
 218 400 204 364 200 326 c 4
 199 320 199 316 199 311 c 0
 199 283 209 271 212 268 c 4
EndSplineSet
Validated: 1
EndChar

StartChar: R
Encoding: 82 82 49
Width: 868
VWidth: 1285
Flags: W
HStem: 16 21G<242 299> 532 180<244 418.922>
VStem: 460 180<361.307 490.499>
LayerCount: 2
Fore
SplineSet
848 58 m 0
 848 11 805 -32 758 -32 c 0
 734 -32 710 -24 694 -6 c 0
 606 84 490 138 376 146 c 0
 366 146 358 148 350 152 c 1
 350 140 352 128 354 116 c 0
 354 112 354 108 354 104 c 0
 354 62 322 22 276 16 c 0
 272 16 268 16 264 16 c 0
 220 16 182 48 176 94 c 0
 154 260 100 404 38 562 c 0
 29 579 20 597 20 622 c 0
 20 671 60 712 106 712 c 2
 210 712 l 2
 288 712 364 710 428 696 c 0
 516 676 576 632 614 562 c 0
 618 556 622 550 624 542 c 0
 634 502 640 464 640 428 c 0
 640 376 628 322 604 282 c 0
 602 280 602 276 600 274 c 1
 610 270 620 264 628 260 c 0
 700 226 766 178 822 120 c 0
 838 104 848 80 848 58 c 0
244 532 m 1
 272 458 298 376 318 300 c 1
 328 310 342 318 358 322 c 0
 406 336 438 354 450 374 c 0
 456 386 460 412 460 428 c 0
 460 446 456 466 452 484 c 1
 424 524 366 530 244 532 c 1
EndSplineSet
Validated: 1
EndChar

StartChar: S
Encoding: 83 83 50
AltUni2: 000405.ffffffff.0
Width: 814
VWidth: 1219
Flags: W
HStem: -45 180<329.836 612.138> 321 180<294.903 519.168> 727 20G<315 357>
LayerCount: 2
Fore
SplineSet
450 501 m 4
 643 501 769 341 794 173 c 5
 794 153 l 6
 794 99 772 53 732 17 c 4
 684 -23 614 -43 520 -45 c 4
 516 -45 512 -45 508 -45 c 4
 434 -45 346 -33 252 -11 c 4
 210 -1 182 35 182 75 c 4
 182 132 226 167 274 167 c 4
 280 167 286 167 292 165 c 4
 374 145 448 135 510 135 c 6
 526 135 l 5
 586 137 608 149 614 155 c 5
 604 213 576 263 536 291 c 4
 510 311 482 321 450 321 c 4
 442 321 434 321 426 319 c 4
 422 319 418 317 414 317 c 4
 342 317 266 331 202 361 c 4
 122 397 64 453 30 521 c 4
 24 533 20 549 20 563 c 4
 20 612 59 645 98 651 c 4
 184 661 240 689 254 703 c 5
 270 731 300 747 330 747 c 4
 384 747 422 705 422 659 c 4
 422 643 418 629 410 615 c 4
 388 571 342 539 292 519 c 5
 328 505 368 497 404 497 c 4
 420 499 434 501 450 501 c 4
252 699 m 5
 252 699 l 5
EndSplineSet
Validated: 1
EndChar

StartChar: T
Encoding: 84 84 51
AltUni2: 0003a4.ffffffff.0 000422.ffffffff.0
Width: 710
VWidth: 1246
Flags: W
HStem: -8 21G<407 462> 580 180<53.0505 335.811> 598 178<522.18 658.242>
VStem: 350 178<23.3539 271.003> 360 180<39.8189 575.324>
LayerCount: 2
Fore
SplineSet
612 598 m 4xa8
 580 594 548 592 518 588 c 5
 532 478 540 374 540 276 c 4xa8
 540 206 536 138 528 72 c 4
 524 26 484 -8 440 -8 c 6
 430 -8 l 5
 384 -2 350 36 350 80 c 6
 350 90 l 5xb0
 356 150 360 210 360 274 c 4
 360 370 352 470 338 578 c 5
 310 576 280 576 254 576 c 4
 202 576 152 578 104 580 c 4
 56 584 20 624 20 672 c 6
 20 676 l 5
 24 724 62 760 108 760 c 6
 116 760 l 5xc8
 158 758 200 756 244 756 c 4
 350 756 466 764 592 776 c 4
 596 776 600 776 604 776 c 4
 646 776 686 744 690 698 c 5
 690 688 l 6
 690 642 656 604 612 598 c 4xa8
EndSplineSet
Validated: 1
EndChar

StartChar: U
Encoding: 85 85 52
Width: 740
VWidth: 1243
Flags: W
HStem: 13 21G<374 500> 729 20G<80 133>
VStem: 20 180<498.055 715.949> 538 182<221.871 496.381>
AnchorPoint: "top" 292 759 basechar 0
AnchorPoint: "bottom" 458 9 basechar 0
LayerCount: 2
Fore
SplineSet
390 711 m 4
 390 759 434 801 480 801 c 4
 500 801 520 793 538 779 c 4
 644 689 676 589 690 539 c 4
 692 535 694 529 696 527 c 4
 698 519 700 511 702 503 c 4
 714 433 720 373 720 321 c 4
 720 231 702 167 666 117 c 4
 614 45 532 23 468 13 c 5
 450 13 l 5
 298 17 198 99 134 205 c 4
 72 309 36 455 20 653 c 4
 20 655 20 657 20 659 c 4
 20 705 56 745 104 749 c 4
 106 749 108 749 110 749 c 4
 156 749 196 713 200 665 c 4
 212 499 242 375 288 297 c 4
 328 229 378 197 448 193 c 5
 498 201 514 213 520 223 c 4
 530 237 538 265 538 321 c 4
 538 356 537 434 520 485 c 4
 508 523 488 585 422 641 c 4
 402 659 390 685 390 711 c 4
694 527 m 5
 694 527 l 5
EndSplineSet
Validated: 1
EndChar

StartChar: V
Encoding: 86 86 53
Width: 738
VWidth: 1230
Flags: W
HStem: -10 21G<475 505> 728 20G<603 652>
VStem: 538 180<455.284 715.371>
LayerCount: 2
Fore
SplineSet
414 28 m 0
 226 296 104 430 58 462 c 0
 34 480 20 508 20 538 c 0
 20 554 26 572 36 588 c 0
 54 612 82 626 110 626 c 0
 128 626 146 620 162 608 c 0
 242 552 368 394 464 266 c 1
 514 412 538 530 538 658 c 0
 538 708 578 748 628 748 c 0
 676 748 718 708 718 658 c 0
 718 462 668 268 570 44 c 0
 556 8 522 -10 488 -10 c 0
 462 -10 432 2 414 28 c 0
EndSplineSet
Validated: 1
EndChar

StartChar: W
Encoding: 87 87 54
Width: 1006
VWidth: 1251
Flags: W
HStem: 556 180<651.609 779.459>
LayerCount: 2
Fore
SplineSet
250 82 m 4
 222 82 196 94 178 118 c 4
 122 196 62 302 22 558 c 4
 22 564 20 568 20 574 c 4
 20 618 52 654 96 662 c 4
 100 662 106 664 110 664 c 4
 152 664 190 632 198 588 c 4
 224 426 256 336 290 278 c 5
 348 302 398 350 446 418 c 4
 462 444 492 458 524 458 c 4
 554 456 582 440 598 412 c 4
 630 356 684 324 726 306 c 5
 778 336 800 382 806 468 c 5
 794 544 762 556 722 556 c 4
 718 556 714 556 710 556 c 4
 662 556 620 594 618 644 c 4
 618 694 656 736 706 736 c 6
 716 736 l 6
 788 736 846 716 892 676 c 4
 944 634 974 568 984 484 c 4
 986 478 986 472 986 468 c 4
 980 356 950 200 764 124 c 4
 753 120 742 118 731 118 c 0
 721 118 711 119 702 122 c 4
 632 146 570 180 520 226 c 5
 448 150 364 102 268 82 c 4
 262 82 256 82 250 82 c 4
EndSplineSet
Validated: 1
EndChar

StartChar: X
Encoding: 88 88 55
AltUni2: 0003a7.ffffffff.0 000425.ffffffff.0
Width: 717
VWidth: 1255
Flags: W
HStem: 721 20G<90.5 125.5 558.5 596.5>
LayerCount: 2
Fore
SplineSet
697 39 m 4
 697 -11 659 -53 608 -53 c 4
 572 -53 545 -35 529 -9 c 4
 488 59 430 154 358 254 c 5
 298 170 243 81 189 -11 c 4
 172 -40 143 -55 112 -55 c 4
 55 -55 20 -11 20 35 c 4
 20 53 26 69 32 80 c 4
 99 193 167 300 242 401 c 5
 186 466 123 528 57 579 c 4
 34 596 22 623 22 649 c 4
 22 703 67 741 114 741 c 4
 137 741 153 734 167 722 c 4
 231 671 291 615 353 548 c 5
 401 608 453 666 504 723 c 4
 522 743 546 754 571 754 c 4
 622 754 661 708 661 662 c 4
 661 635 650 617 636 601 c 4
 579 537 524 473 470 406 c 5
 552 297 621 186 684 84 c 4
 693 69 697 54 697 39 c 4
EndSplineSet
Validated: 1
EndChar

StartChar: Y
Encoding: 89 89 56
AltUni2: 0003a5.ffffffff.0
Width: 702
VWidth: 1226
Flags: W
HStem: 728 26G<86 137 542.5 589>
VStem: 20 180<511.061 721.081> 315 184<-54.7075 269.401> 480 174<601.83 717.043> 502 180<486.209 661.452>
LayerCount: 2
Fore
SplineSet
480 658 m 0xd0
 480 704 515 748 570 748 c 0
 608 748 642 724 654 686 c 0xd0
 672 630 682 580 682 536 c 0
 682 486 670 442 648 406 c 0
 610 344 548 310 488 292 c 1
 496 230 499 202 499 132 c 0
 499 84 499 46 495 -6 c 0
 493 -54 453 -90 405 -90 c 0
 403 -90 401 -90 399 -90 c 0
 353 -88 315 -46 315 2 c 2
 315 6 l 1
 319 54 319 88 319 132 c 0
 319 196 316 216 308 272 c 1
 242 278 170 296 112 354 c 0
 48 418 20 513 20 642 c 2
 20 668 l 1
 22 714 62 754 110 754 c 2
 114 754 l 1
 160 752 200 714 200 666 c 2
 200 642 l 2
 200 562 212 508 240 482 c 0
 262 460 300 450 360 450 c 2
 376 450 l 1
 456 464 484 484 494 500 c 0
 500 508 502 522 502 538 c 0xe8
 502 562 496 592 484 630 c 0
 480 640 480 650 480 658 c 0xd0
EndSplineSet
Validated: 1
EndChar

StartChar: Z
Encoding: 90 90 57
Width: 760
VWidth: 1243
Flags: W
HStem: 45 173<627.498 708.875> 355 175<591.926 688.526> 547 179<88.136 304.835> 568 177<57.1997 258.849> 735 20G<485.5 505.5>
VStem: 162 180<113.185 229.811>
LayerCount: 2
Fore
SplineSet
627 530 m 4xec
 674 530 718 499 718 443 c 4
 718 401 694 367 656 355 c 4
 538 315 442 286 365 266 c 5
 353 235 348 209 345 189 c 4
 344 179 342 171 342 163 c 4
 342 161 342 159 342 157 c 4
 342 135 347 119 353 110 c 5
 359 112 371 113 389 120 c 4
 417 129 453 145 494 163 c 4
 531 177 574 194 619 212 c 4
 629 216 639 218 649 218 c 4
 687 216 721 198 734 160 c 4
 738 150 740 140 740 130 c 4
 740 90 718 57 682 45 c 4
 641 29 602 13 565 -3 c 4
 479 -40 406 -71 342 -71 c 4
 313 -71 290 -64 266 -52 c 4
 260 -50 255 -45 249 -41 c 4
 191 10 162 75 162 158 c 4
 162 179 162 196 166 216 c 4
 168 220 169 226 169 230 c 5
 165 230 161 231 157 231 c 4
 133 232 114 237 94 246 c 4
 55 266 40 299 35 313 c 4
 25 329 20 346 20 363 c 4
 20 390 31 414 51 432 c 4
 69 446 89 453 110 453 c 4
 137 453 161 442 177 422 c 4
 182 417 181 411 189 411 c 4
 199 411 215 415 235 419 c 5
 255 460 280 502 306 547 c 5xec
 225 547 153 549 90 568 c 4
 50 580 25 617 25 657 c 4
 25 659 25 660 25 662 c 4
 25 668 26 674 28 680 c 4
 40 720 78 745 118 745 c 4
 120 745 120 745 122 745 c 4xd4
 128 745 134 744 140 742 c 4
 176 733 215 726 261 726 c 4
 321 726 391 735 471 753 c 4
 477 754 482 755 489 755 c 4
 522 755 551 743 567 716 c 4
 577 700 582 683 582 666 c 4
 582 647 577 628 565 614 c 4
 531 568 505 525 481 486 c 5
 518 498 556 512 599 526 c 4
 607 528 617 530 627 530 c 4xec
EndSplineSet
Validated: 1
EndChar

StartChar: bracketleft
Encoding: 91 91 58
Width: 560
VWidth: 1235
Flags: W
HStem: -110 178<379.38 509.8> 536 178<222 338.633> 722 20G<369 397>
VStem: 78 178<34 277.927>
LayerCount: 2
Fore
SplineSet
452 68 m 4
 496 68 540 35 540 -20 c 4
 540 -60 514 -98 474 -110 c 4
 386 -134 288 -148 172 -152 c 5
 168 -152 l 6
 117 -152 78 -110 78 -62 c 4
 76 166 70 424 22 602 c 4
 20 610 20 616 20 622 c 4
 20 672 59 714 106 714 c 6
 148 714 l 6
 234 714 294 720 346 738 c 4
 356 742 364 742 374 742 c 4
 420 742 464 707 464 652 c 4
 464 614 440 578 402 566 c 4
 342 546 280 538 222 536 c 5
 246 382 254 204 256 34 c 5
 320 40 376 50 428 64 c 4
 436 66 444 68 452 68 c 4
EndSplineSet
Validated: 1
EndChar

StartChar: backslash
Encoding: 92 92 59
Width: 720
VWidth: 1231
Flags: W
HStem: 11 21G<597 620> 727 20G<96 119>
LayerCount: 2
Fore
SplineSet
610 11 m 0
 584 11 558 21 540 43 c 2
 508 83 l 2
 320 319 138 525 58 583 c 0
 32 601 20 629 20 655 c 0
 20 675 26 693 38 709 c 0
 54 733 82 747 110 747 c 0
 128 747 146 741 162 729 c 0
 258 661 390 519 650 197 c 2
 680 157 l 2
 694 139 700 119 700 99 c 0
 700 73 688 47 666 29 c 0
 650 17 630 11 610 11 c 0
EndSplineSet
Validated: 1
EndChar

StartChar: bracketright
Encoding: 93 93 60
Width: 578
VWidth: 1240
Flags: W
HStem: -136 178<151.087 354.75> 572 178<54.3285 309.814>
VStem: 312 180<244.839 576>
LayerCount: 2
Fore
SplineSet
404 776 m 4
 457 776 494 732 494 684 c 4
 494 650 492 618 492 586 c 4
 492 342 514 154 554 24 c 4
 558 14 558 4 558 -4 c 4
 558 -49 530 -78 494 -90 c 4
 402 -116 308 -132 214 -136 c 5
 210 -136 l 6
 162 -136 122 -100 120 -50 c 5
 120 -46 l 6
 120 0 158 40 206 42 c 4
 258 46 308 52 358 62 c 5
 328 196 314 366 312 576 c 5
 282 572 248 572 208 572 c 4
 178 572 142 572 106 574 c 4
 58 576 20 616 20 662 c 6
 20 666 l 5
 22 714 62 752 110 752 c 6
 114 752 l 6
 142 752 168 750 190 750 c 4
 304 750 350 762 370 770 c 4
 380 774 392 776 404 776 c 4
EndSplineSet
Validated: 1
EndChar

StartChar: asciicircum
Encoding: 94 94 61
AltUni2: 000302.ffffffff.0
Width: 686
VWidth: 1097
GlyphClass: 2
Flags: HWO
HStem: 726 20G<305.667 326.667>
AnchorPoint: "top" 346 342 mark 0
LayerCount: 2
Fore
SplineSet
666 434 m 0
 666 389 627 344 576 344 c 0
 546 344 518 358 500 384 c 0
 488 404 450 446 342 536 c 1
 290 474 238 402 186 322 c 0
 170 294 140 280 110 280 c 0
 57 280 20 324 20 370 c 0
 20 386 24 404 34 418 c 0
 110 536 188 638 266 720 c 0
 284 738 308 746 330 746 c 0
 350 746 370 740 386 728 c 0
 574 584 626 520 650 484 c 0
 660 468 666 452 666 434 c 0
EndSplineSet
Validated: 1
EndChar

StartChar: underscore
Encoding: 95 95 62
Width: 536
VWidth: 1430
Flags: W
HStem: -122 184<194.132 477.035> -76 176<51.6535 173.773>
LayerCount: 2
Fore
SplineSet
426 62 m 4x80
 472 62 516 27 516 -28 c 4
 516 -68 488 -104 448 -114 c 4
 428 -120 404 -122 378 -122 c 4x80
 282 -122 158 -96 86 -76 c 4
 46 -64 20 -30 20 10 c 4
 20 64 65 100 112 100 c 4x40
 118 100 126 100 134 98 c 4
 242 70 336 58 380 58 c 4
 403 58 407 62 426 62 c 4x80
EndSplineSet
Validated: 1
EndChar

StartChar: grave
Encoding: 96 96 63
Width: 434
VWidth: 1031
Flags: W
HStem: 432 322
LayerCount: 2
Fore
SplineSet
20 666 m 4
 20 720 63 754 110 754 c 4
 118 754 124 754 130 752 c 4
 190 740 264 690 382 590 c 4
 402 572 414 548 414 522 c 4
 414 502 406 480 390 462 c 4
 374 442 348 432 322 432 c 4
 302 432 280 438 264 454 c 4
 136 564 96 576 90 576 c 4
 48 586 20 624 20 666 c 4
EndSplineSet
Validated: 1
EndChar

StartChar: a
Encoding: 97 97 64
AltUni2: 000430.ffffffff.0
Width: 872
VWidth: 1314
Flags: W
HStem: -12 176<206.387 362.539> 4 180<716.57 819.383> 346 180<266.406 433.22>
AnchorPoint: "top" 330 522 basechar 0
AnchorPoint: "bottom" 296 -20 basechar 0
LayerCount: 2
Fore
SplineSet
544 412 m 0xa0
 544 387 532 366 520 350 c 1
 524 350 528 352 532 352 c 0
 564 352 596 334 612 306 c 0
 642 254 704 196 776 184 c 0
 820 176 852 138 852 94 c 0
 852 90 850 84 850 80 c 0
 842 36 806 4 762 4 c 0x60
 756 4 752 6 746 6 c 0
 666 18 598 58 546 106 c 1
 536 94 526 82 514 70 c 0
 466 28 404 2 322 -12 c 0
 320 -12 318 -12 316 -12 c 0
 300 -14 286 -16 270 -16 c 0
 188 -16 118 10 74 60 c 0
 48 88 20 134 20 204 c 0
 20 222 22 240 26 262 c 0
 46 360 108 444 192 490 c 0
 234 512 280 524 330 526 c 0
 382 526 434 516 488 494 c 0
 522 480 544 446 544 412 c 0xa0
338 346 m 0
 264 346 216 289 202 226 c 0
 201 221 200 212 200 204 c 0
 200 196 201 187 206 182 c 0
 214 172 238 164 270 164 c 0xa0
 278 164 286 166 294 166 c 0
 392 182 406 210 440 278 c 0
 446 286 450 294 454 304 c 0
 458 310 462 316 466 322 c 1
 461 321 455 320 450 320 c 0
 418 328 l 0
 390 340 362 346 338 346 c 0
EndSplineSet
Validated: 1
EndChar

StartChar: b
Encoding: 98 98 65
Width: 916
VWidth: 1217
Flags: W
HStem: -7 21G<436 469> 15 180<515.266 667.038> 393 180<475.456 619.599> 939 20G<83.5 126>
VStem: 716 180<231.472 322.19>
LayerCount: 2
Fore
SplineSet
20 869 m 4
 20 915 57 959 110 959 c 4
 142 959 172 943 188 913 c 4
 254 797 320 665 380 525 c 5
 420 555 466 571 512 573 c 5
 514 573 l 6
 590 573 666 553 732 519 c 4
 804 479 856 423 878 359 c 4
 890 323 896 289 896 257 c 4
 896 223 888 193 874 163 c 4
 844 101 786 55 698 25 c 4
 692 25 688 23 682 23 c 4
 652 17 624 15 594 15 c 4
 570 15 544 17 520 19 c 5
 504 3 484 -7 454 -7 c 4
 418 -7 382 15 370 53 c 5
 360 55 348 59 338 63 c 4
 302 75 278 111 278 147 c 4
 278 157 280 167 284 177 c 4
 288 193 298 207 312 217 c 5
 228 439 132 649 32 825 c 4
 24 839 20 855 20 869 c 4
712 241 m 4
 715 246 716 252 716 259 c 0
 716 273 711 290 706 303 c 4
 689 355 584 393 516 393 c 4
 494 391 472 373 456 345 c 5
 474 297 492 251 508 203 c 5
 538 199 566 195 594 195 c 4
 612 195 630 197 648 199 c 5
 682 211 706 227 712 241 c 4
EndSplineSet
Validated: 1
EndChar

StartChar: c
Encoding: 99 99 66
AltUni2: 000441.ffffffff.0
Width: 660
VWidth: 1293
Flags: W
HStem: -11 180<274.487 435.359> 365 180<281.906 447.116>
LayerCount: 2
Fore
SplineSet
350 -11 m 5
 342 -11 l 6
 203 -11 20 107 20 259 c 4
 20 261 20 263 20 265 c 4
 20 331 60 403 130 459 c 4
 170 489 214 513 258 529 c 4
 292 539 326 545 360 545 c 4
 378 545 396 543 414 539 c 4
 456 529 484 493 484 451 c 4
 484 396 442 361 394 361 c 4
 379 361 369 365 356 365 c 4
 326 365 284 349 250 323 c 4
 214 297 200 269 200 263 c 6
 200 261 l 6
 200 255 206 241 222 225 c 4
 254 193 304 169 342 169 c 4
 388 171 448 183 480 221 c 4
 498 243 524 255 550 255 c 4
 600 255 640 211 640 165 c 4
 640 145 632 125 620 109 c 4
 561 38 472 -3 350 -11 c 5
EndSplineSet
Validated: 1
EndChar

StartChar: d
Encoding: 100 100 67
Width: 694
VWidth: 1224
Flags: W
HStem: 18 180<233.55 416.977> 390 180<264.557 401.344> 932 20G<344 395>
VStem: 20 180<228.563 336.118> 282 180<816.541 917.717> 496 178<262.494 347.531>
LayerCount: 2
Fore
SplineSet
674 330 m 6
 674 141 523 22 330 18 c 5
 328 18 l 6
 246 18 174 40 120 80 c 4
 56 128 20 200 20 282 c 4
 20 433 145 536 284 564 c 4
 286 564 288 566 290 566 c 4
 314 568 336 570 360 570 c 4
 374 570 388 570 402 568 c 5
 394 586 384 604 376 622 c 4
 308 762 284 816 282 856 c 5
 282 860 l 6
 282 908 320 948 368 952 c 5
 372 952 l 6
 418 952 458 916 462 870 c 4
 468 846 508 762 538 700 c 4
 620 530 674 412 674 338 c 6
 674 330 l 6
318 388 m 4
 262 376 200 340 200 282 c 4
 200 256 208 238 226 224 c 4
 246 210 278 198 316 198 c 6
 326 198 l 5
 372 200 496 224 496 318 c 4
 496 328 494 338 492 348 c 5
 476 352 460 360 448 372 c 4
 440 378 406 390 356 390 c 4
 344 390 332 390 318 388 c 4
EndSplineSet
Validated: 1
EndChar

StartChar: e
Encoding: 101 101 68
AltUni2: 000435.ffffffff.0
Width: 736
VWidth: 1300
Flags: W
HStem: -62 180<275.636 535.812> 422 180<366 435.231>
AnchorPoint: "top" 392 598 basechar 0
AnchorPoint: "bottom" 376 -64 basechar 0
LayerCount: 2
Fore
SplineSet
626 172 m 0
 673 172 716 133 716 80 c 0
 716 50 700 20 670 2 c 0
 594 -40 492 -62 362 -62 c 0
 272 -62 186 -30 122 28 c 0
 58 86 20 166 20 250 c 0
 20 324 50 402 102 464 c 0
 164 536 252 582 356 600 c 0
 360 600 362 602 366 602 c 2
 388 602 l 2
 442 602 484 596 518 580 c 0
 570 558 606 518 618 468 c 0
 618 460 620 452 620 444 c 0
 618 410 614 358 584 314 c 0
 560 278 512 236 422 236 c 0
 420 236 418 236 416 236 c 2
 216 238 l 1
 200 238 l 1
 208 172 278 118 362 118 c 0
 460 118 534 132 582 160 c 0
 596 168 610 172 626 172 c 0
354 416 m 1
 418 416 l 2
 428 416 432 416 436 418 c 1
 424 420 408 422 380 422 c 0
 372 420 362 418 354 416 c 1
EndSplineSet
Validated: 1
EndChar

StartChar: f
Encoding: 102 102 69
Width: 686
VWidth: 1182
Flags: W
HStem: -6 21G<450 474> 202 204<392 576> 940 20G<254 310>
VStem: 384 174<26.9062 98.5971>
LayerCount: 2
Fore
SplineSet
666 292 m 4
 666 236 624 202 576 202 c 4
 550 202 532 211 506 214 c 5
 522 184 538 152 550 118 c 4
 556 106 558 94 558 82 c 4
 558 48 536 16 502 2 c 4
 490 -4 480 -6 468 -6 c 4
 432 -6 398 16 384 50 c 4
 358 112 328 170 294 226 c 5
 272 224 250 222 228 220 c 4
 224 220 220 220 216 220 c 4
 172 220 132 252 126 298 c 5
 126 308 l 6
 126 346 148 380 182 392 c 5
 162 420 144 444 126 466 c 4
 118 480 108 490 100 502 c 6
 100 502 100 504 98 504 c 4
 78 534 50 582 34 640 c 4
 24 672 20 702 20 730 c 4
 20 758 24 784 32 808 c 4
 50 854 90 918 186 948 c 5
 188 948 l 5
 216 956 242 960 266 960 c 4
 354 960 422 910 460 820 c 4
 460 816 462 812 462 808 c 4
 466 790 468 774 468 758 c 4
 468 718 454 688 440 668 c 4
 418 636 372 594 278 582 c 4
 274 582 270 582 266 582 c 5
 266 580 268 578 270 576 c 4
 304 532 348 474 392 406 c 5
 468 404 538 394 600 378 c 4
 640 368 666 332 666 292 c 4
202 748 m 4
 202 744 200 738 200 732 c 5
 214 748 234 758 256 762 c 4
 270 764 278 766 284 768 c 5
 280 774 278 778 276 778 c 4
 274 779 270 780 264 780 c 0
 258 780 250 779 240 776 c 4
 208 766 204 754 202 748 c 4
EndSplineSet
Validated: 1
EndChar

StartChar: g
Encoding: 103 103 70
Width: 848
VWidth: 1368
Flags: W
HStem: -8 180<208.481 388.581> 340 180<317.971 430.961>
VStem: 648 180<-557.014 -396.268>
LayerCount: 2
Fore
SplineSet
686 -742 m 4
 606 -742 484 -704 396 -666 c 4
 246 -600 174 -528 174 -446 c 4
 174 -392 214 -350 242 -322 c 4
 270 -298 308 -270 350 -246 c 4
 390 -220 486 -168 572 -156 c 5
 524 64 l 5
 458 18 374 -8 284 -8 c 4
 110 -8 20 102 20 212 c 4
 20 294 98 374 142 414 c 4
 188 454 278 520 372 520 c 4
 550 520 644 375 676 210 c 5
 774 -234 l 5
 814 -382 828 -480 828 -550 c 4
 828 -626 810 -664 790 -690 c 4
 764 -724 728 -742 686 -742 c 4
372 -448 m 5
 394 -464 434 -486 496 -512 c 4
 554 -536 610 -550 648 -558 c 5
 648 -524 644 -458 612 -332 c 5
 610 -334 608 -334 604 -334 c 4
 586 -334 534 -348 464 -386 c 4
 422 -410 392 -432 372 -448 c 5
200 208 m 5
 206 186 238 172 284 172 c 4
 358 172 428 202 456 248 c 4
 460 256 464 262 470 268 c 5
 436 340 392 340 372 340 c 4
 358 340 320 326 274 288 c 4
 232 254 208 222 200 208 c 5
EndSplineSet
Validated: 1
EndChar

StartChar: h
Encoding: 104 104 71
Width: 948
VWidth: 1224
Flags: W
HStem: -6 21G<351 393 822 864.5> 728 20G<83.5 123>
LayerCount: 2
Fore
SplineSet
928 82 m 0
 928 37 891 -6 838 -6 c 0
 806 -6 774 10 758 42 c 0
 684 184 612 236 582 236 c 2
 580 236 l 2
 572 236 556 236 530 202 c 0
 506 170 482 122 458 52 c 0
 444 18 412 -6 374 -6 c 2
 370 -6 l 2
 332 -6 298 20 286 58 c 0
 210 320 148 466 40 602 c 0
 26 618 20 638 20 658 c 0
 20 706 57 748 110 748 c 0
 136 748 162 738 180 714 c 0
 270 602 328 486 392 318 c 1
 433 370 495 416 578 416 c 2
 580 416 l 2
 742 416 860 234 918 124 c 0
 926 110 928 96 928 82 c 0
EndSplineSet
Validated: 1
EndChar

StartChar: i
Encoding: 105 105 72
AltUni2: 000456.ffffffff.0
Width: 632
VWidth: 1216
Flags: W
HStem: -10 21G<328 392> 490 20G<236 260> 558 176<111.874 263.043> 574 180<50.982 203.624>
VStem: 20 274<606.674 706.311>
LayerCount: 2
Fore
SplineSet
522 266 m 4xc8
 567 266 612 225 612 178 c 4
 612 152 602 128 582 110 c 4
 502 38 444 -10 340 -10 c 4
 316 -10 272 -2 238 52 c 4
 224 72 214 100 204 136 c 4
 188 190 172 272 150 406 c 4
 150 410 148 416 148 420 c 4
 148 462 180 500 224 508 c 4
 228 508 234 510 238 510 c 4
 282 510 320 478 328 434 c 4
 342 340 354 274 366 228 c 4
 370 206 374 190 378 178 c 5
 396 186 418 204 460 242 c 4
 478 258 500 266 522 266 c 4xc8
294 648 m 4
 294 593 250 558 204 558 c 4xe8
 196 558 186 560 176 562 c 4
 150 570 130 574 110 574 c 4
 60 574 20 614 20 664 c 4
 20 714 60 754 110 754 c 4xd8
 150 754 188 748 232 734 c 4xe8
 270 722 294 686 294 648 c 4
EndSplineSet
Validated: 1
EndChar

StartChar: j
Encoding: 106 106 73
AltUni2: 000458.ffffffff.0
Width: 652
VWidth: 1265
Flags: W
HStem: -702 180<252.65 404.772> -300 180<242.088 355.395> 492 20G<232.5 281> 568 214<127.442 194.427>
VStem: 20 180<-476.635 -344.189> 44 232<635.076 715.458> 168 180<356.95 479.271> 452 180<-474.173 -320.285>
LayerCount: 2
Fore
SplineSet
168 420 m 0xf3
 168 469 205 512 260 512 c 0
 302 512 340 482 348 438 c 0xf3
 370 320 452 120 518 -42 c 0
 564 -156 606 -254 622 -316 c 0
 624 -318 624 -320 624 -320 c 1
 630 -346 632 -372 632 -398 c 0
 632 -470 610 -538 568 -592 c 0
 512 -662 428 -702 336 -702 c 0
 256 -702 180 -676 122 -630 c 0
 56 -578 20 -504 20 -428 c 0xf9
 20 -304 74 -230 118 -190 c 0
 170 -146 238 -120 304 -120 c 2
 356 -120 l 1
 354 -118 354 -114 352 -110 c 0
 278 68 196 268 170 406 c 0
 170 410 168 416 168 420 c 0xf3
452 -400 m 0
 452 -366 444 -347 434 -318 c 1
 418 -318 402 -312 388 -302 c 1
 378 -300 358 -300 340 -300 c 2
 304 -300 l 2
 288 -300 200 -306 200 -428 c 0xf9
 200 -478 264 -522 336 -522 c 0
 384 -522 412 -500 426 -480 c 0
 444 -458 452 -430 452 -400 c 0
380 -296 m 1
 380 -296 l 1
276 658 m 0xf5
 276 607 231 568 186 568 c 0
 168 568 150 572 136 584 c 1
 84 618 l 2
 58 636 44 664 44 692 c 0
 44 710 50 728 60 744 c 0
 78 768 106 782 134 782 c 0
 152 782 170 776 186 766 c 2
 236 732 l 2
 262 714 276 686 276 658 c 0xf5
EndSplineSet
Validated: 1
EndChar

StartChar: k
Encoding: 107 107 74
Width: 938
VWidth: 1224
Flags: W
HStem: 4 21G<356 397.5> 394 180<391.78 547.597> 932 20G<82 123>
LayerCount: 2
Fore
SplineSet
20 860 m 0
 20 906 56 952 108 952 c 0
 138 952 168 938 186 912 c 0
 232 838 282 706 332 562 c 1
 394 570 450 574 500 574 c 0
 570 574 630 566 682 554 c 0
 716 546 744 516 750 482 c 0
 750 476 752 468 752 460 c 0
 752 418 736 366 704 298 c 0
 690 268 672 236 652 202 c 1
 770 176 846 142 892 96 c 0
 908 78 918 56 918 32 c 0
 918 8 908 -14 890 -32 c 0
 874 -50 850 -58 828 -58 c 0
 804 -58 780 -50 764 -32 c 0
 750 -16 694 20 490 48 c 0
 478 50 468 54 460 58 c 1
 445 28 419 4 376 4 c 0
 336 4 298 30 288 72 c 0
 208 402 112 692 34 812 c 0
 24 828 20 844 20 860 c 0
440 206 m 1
 496 286 530 348 550 392 c 1
 534 392 516 394 496 394 c 0
 464 394 428 392 390 388 c 1
 406 330 424 270 440 206 c 1
EndSplineSet
Validated: 1
EndChar

StartChar: l
Encoding: 108 108 75
Width: 600
VWidth: 1243
Flags: W
HStem: 19 21G<274 319> 943 20G<77 132>
VStem: 20 180<680.466 930.102>
LayerCount: 2
Fore
SplineSet
490 269 m 0
 534 269 580 234 580 179 c 0
 580 143 558 109 522 95 c 0
 449 67 356 19 282 19 c 0
 266 19 248 23 230 27 c 0
 224 29 218 31 212 33 c 0
 154 63 122 135 88 303 c 0
 68 409 44 663 20 863 c 1
 20 873 l 2
 20 919 54 957 100 963 c 1
 110 963 l 2
 154 963 194 929 200 883 c 0
 220 711 240 469 258 373 c 0
 276 275 290 227 300 203 c 1
 339 212 411 246 458 263 c 0
 468 267 480 269 490 269 c 0
EndSplineSet
Validated: 1
EndChar

StartChar: m
Encoding: 109 109 76
Width: 978
VWidth: 1305
Flags: W
HStem: 0 7G<197 247 848 895.5>
VStem: 138 176<31.4316 137.567>
LayerCount: 2
Fore
SplineSet
958 74 m 0
 958 28 923 -14 868 -14 c 0
 828 -14 790 14 780 56 c 0
 776 76 772 96 768 116 c 0
 752 186 738 254 718 314 c 1
 677 263 648 213 594 162 c 0
 578 146 554 136 530 136 c 0
 526 136 520 138 516 138 c 0
 488 142 464 162 450 188 c 0
 434 222 412 260 388 294 c 1
 360 225 336 141 314 64 c 0
 304 24 268 0 226 0 c 2
 218 0 l 1
 176 4 142 40 138 84 c 0
 132 184 116 324 48 386 c 0
 30 404 20 428 20 452 c 0
 20 474 28 496 44 514 c 0
 62 532 86 542 110 542 c 0
 132 542 154 534 172 518 c 0
 202 490 228 454 246 416 c 1
 254 432 264 446 272 458 c 0
 312 512 358 522 388 522 c 0
 402 520 416 516 428 508 c 0
 468 486 510 434 544 384 c 1
 546 384 548 386 548 388 c 0
 590 444 632 502 696 534 c 0
 708 540 720 544 734 544 c 0
 748 544 760 540 772 534 c 0
 838 504 870 428 892 364 c 0
 917 283 936 186 956 96 c 0
 958 88 958 82 958 74 c 0
336 354 m 1
 336 354 l 1
EndSplineSet
Validated: 1
EndChar

StartChar: n
Encoding: 110 110 77
Width: 742
VWidth: 1315
Flags: W
HStem: -6 21G<611 635>
VStem: 140 178<-11.7964 122.579> 544 178<26.8982 200.927>
LayerCount: 2
Fore
SplineSet
228 -44 m 2
 186 -44 150 -14 140 28 c 0
 123 106 83 293 48 328 c 0
 30 346 20 370 20 392 c 0
 20 416 28 438 46 454 c 0
 64 472 88 482 112 482 c 0
 132 482 154 474 172 458 c 0
 196 434 216 402 236 358 c 1
 263 412 307 460 346 494 c 0
 388 526 430 546 476 552 c 0
 480 554 484 554 490 554 c 0
 520 554 568 542 608 484 c 0
 628 456 646 420 662 376 c 0
 688 300 710 200 722 96 c 0
 722 92 722 88 722 84 c 0
 722 40 690 2 644 -4 c 0
 640 -6 636 -6 634 -6 c 0
 588 -6 550 28 544 74 c 0
 530 176 508 291 472 362 c 1
 448 348 424 320 402 286 c 0
 360 220 330 132 318 34 c 0
 312 -8 276 -42 232 -44 c 1
 228 -44 l 2
EndSplineSet
Validated: 1
EndChar

StartChar: o
Encoding: 111 111 78
AltUni2: 0003bf.ffffffff.0 00043e.ffffffff.0
Width: 728
VWidth: 1306
Flags: W
HStem: -12 180<276.454 445.263>
VStem: 20 180<233.14 344.689> 528 180<234.373 331.37>
AnchorPoint: "top" 362 594 basechar 0
AnchorPoint: "bottom" 358 -20 basechar 0
LayerCount: 2
Fore
SplineSet
358 -12 m 4
 280 -12 198 16 136 66 c 4
 62 124 20 206 20 294 c 4
 20 372 62 450 134 512 c 4
 200 566 282 598 358 598 c 4
 382 598 404 588 420 572 c 5
 422 574 422 574 424 574 c 6
 432 574 l 6
 496 574 564 538 620 478 c 4
 676 416 708 344 708 276 c 4
 708 198 664 122 588 66 c 4
 522 18 438 -12 358 -12 c 4
356 344 m 4
 320 344 291 367 276 392 c 5
 266 386 258 380 250 372 c 4
 218 348 200 318 200 294 c 4
 200 216 292 168 358 168 c 4
 400 168 446 184 482 212 c 4
 510 232 528 256 528 276 c 4
 528 296 514 326 490 352 c 4
 470 376 450 388 438 392 c 4
 436 390 432 386 426 378 c 4
 408 356 382 344 356 344 c 4
432 394 m 5
 432 394 l 5
EndSplineSet
Validated: 1
EndChar

StartChar: p
Encoding: 112 112 79
AltUni2: 000440.ffffffff.0
Width: 724
VWidth: 1285
Flags: W
HStem: -35 180<317.323 461.757> 391 180<238.381 435.298>
VStem: 184 178<-408.065 -226.69> 524 180<209.943 328.641>
LayerCount: 2
Fore
SplineSet
20 479 m 4
 20 524 53 569 108 569 c 4
 132 569 156 559 172 543 c 5
 210 561 250 571 294 571 c 4
 596 571 704 413 704 265 c 4
 704 193 670 117 608 57 c 4
 550 -1 480 -35 416 -35 c 6
 410 -35 l 6
 372 -35 342 -33 316 -29 c 5
 329 -132 344 -235 362 -337 c 4
 362 -341 362 -345 362 -349 c 4
 362 -397 324 -441 272 -441 c 4
 228 -441 190 -409 184 -365 c 4
 174 -309 166 -251 158 -197 c 4
 122 57 86 295 26 445 c 4
 22 457 20 467 20 479 c 4
408 145 m 6
 416 145 l 6
 428 145 456 157 482 185 c 4
 508 211 524 243 524 265 c 4
 524 301 512 327 482 347 c 4
 454 367 398 391 294 391 c 4
 264 391 246 379 238 375 c 5
 254 313 268 249 280 179 c 5
 302 159 324 145 408 145 c 6
EndSplineSet
Validated: 1
EndChar

StartChar: q
Encoding: 113 113 80
Width: 872
VWidth: 1354
Flags: W
HStem: -644 180<512.137 646.282> -288 180<504.664 622.992> 18 180<212.13 331.551>
VStem: 20 180<214.499 279.229> 308 180<-439.257 -302.462> 332 186<213.689 244.594 247.223 360.227> 340 198<201.25 351.445> 672 180<-437.878 -334.79>
LayerCount: 2
Fore
SplineSet
592 -644 m 0xf5
 514 -644 448 -622 398 -584 c 0
 358 -550 308 -488 308 -378 c 0xf9
 308 -261 327 -105 332 20 c 1xf5
 322 18 312 18 302 18 c 0
 268 18 150 24 76 100 c 0
 38 138 20 184 20 236 c 0
 20 302 50 368 110 426 c 0
 186 504 294 556 376 556 c 0
 382 556 388 556 394 554 c 0
 400 556 406 556 414 556 c 0
 458 556 496 524 502 480 c 0
 508 438 512 396 516 352 c 1
 530 304 538 272 538 246 c 0xf3
 538 216 530 186 518 158 c 1
 516 66 510 -26 504 -112 c 1
 522 -110 542 -108 560 -108 c 0
 630 -108 704 -138 760 -190 c 0
 820 -244 852 -312 852 -380 c 0
 852 -448 828 -514 782 -562 c 0
 732 -616 664 -644 592 -644 c 0xf5
490 -304 m 1
 490 -330 488 -356 488 -378 c 0
 488 -408 488 -464 592 -464 c 0
 644 -464 672 -422 672 -380 c 0
 672 -346 618 -288 560 -288 c 0
 530 -288 504 -298 490 -304 c 1
326 362 m 1
 298 350 266 328 238 300 c 0
 210 272 200 248 200 238 c 2
 200 236 l 2
 200 232 200 230 204 226 c 0
 218 212 256 198 302 198 c 0
 318 198 330 204 340 212 c 1xf3
 340 248 338 286 336 322 c 0
 334 336 330 350 326 362 c 1
EndSplineSet
Validated: 1
EndChar

StartChar: r
Encoding: 114 114 81
Width: 504
VWidth: 1284
Flags: W
HStem: 84 338<110 208> 328 180<297.068 415.667>
LayerCount: 2
Fore
SplineSet
484 406 m 4x40
 484 353 441 316 396 316 c 4
 382 316 368 320 354 326 c 4
 350 328 342 328 334 328 c 0x40
 323 328 310 327 298 326 c 5
 298 320 296 312 294 298 c 5
 294 272 l 6
 294 248 294 218 296 180 c 5
 296 172 l 6
 296 130 266 94 222 86 c 4
 218 84 212 84 208 84 c 4
 168 84 132 110 120 150 c 4
 106 204 74 244 52 264 c 4
 30 280 20 306 20 332 c 4
 20 352 26 374 40 390 c 4
 58 412 84 422 110 422 c 4x80
 120 422 132 420 142 416 c 5
 154 442 172 462 198 480 c 4
 202 484 208 486 214 490 c 4
 240 500 282 508 326 508 c 4
 364 508 404 502 436 486 c 4
 466 470 484 438 484 406 c 4x40
354 326 m 5
 354 326 l 5
EndSplineSet
Validated: 1
EndChar

StartChar: s
Encoding: 115 115 82
Width: 596
VWidth: 1338
Flags: W
HStem: -76 180<177.433 372.549>
LayerCount: 2
Fore
SplineSet
266 540 m 0
 313 540 356 505 356 450 c 0
 356 410 328 374 288 364 c 1
 294 360 298 358 302 356 c 0
 358 330 416 302 464 270 c 0
 492 252 576 196 576 108 c 0
 576 74 562 -10 444 -52 c 0
 382 -74 316 -76 290 -76 c 0
 204 -76 122 -72 62 -12 c 0
 44 4 36 28 36 52 c 0
 36 74 44 96 62 114 c 0
 80 132 104 142 126 142 c 0
 150 142 172 132 190 116 c 0
 198 108 232 104 290 104 c 0
 322 104 352 108 374 114 c 1
 332 145 278 168 226 194 c 0
 182 214 142 234 110 254 c 0
 86 268 20 308 20 380 c 0
 20 400 26 440 70 472 c 0
 107 504 194 528 246 538 c 0
 252 540 258 540 266 540 c 0
EndSplineSet
Validated: 1
EndChar

StartChar: t
Encoding: 116 116 83
Width: 688
VWidth: 1270
Flags: W
HStem: 12 180<302.618 434.339>
VStem: 130 180<532.716 772.949>
LayerCount: 2
Fore
SplineSet
576 320 m 4
 629 320 668 275 668 228 c 4
 668 212 662 194 652 180 c 4
 596 98 494 12 372 12 c 4
 228 12 143 83 116 202 c 4
 116 206 114 208 114 212 c 4
 112 234 110 258 110 282 c 5
 65 282 20 318 20 372 c 4
 20 408 40 440 74 454 c 4
 88 460 104 466 118 472 c 5
 120 486 120 500 122 512 c 4
 126 574 130 634 130 682 c 6
 130 718 l 6
 130 764 166 802 214 806 c 5
 218 806 l 6
 266 806 306 770 310 722 c 5
 310 690 l 6
 310 642 308 588 304 530 c 5
 354 542 408 552 468 562 c 4
 472 562 478 564 482 564 c 4
 526 564 564 532 570 486 c 4
 570 482 572 476 572 472 c 4
 572 430 540 392 494 384 c 4
 424 374 358 360 290 342 c 5
 290 304 290 268 294 236 c 4
 300 208 310 192 372 192 c 4
 414 192 468 228 502 280 c 4
 520 306 548 320 576 320 c 4
EndSplineSet
Validated: 1
EndChar

StartChar: u
Encoding: 117 117 84
Width: 602
VWidth: 1320
Flags: W
HStem: -8 180<282.291 344.671> 494 20G<78 134>
VStem: 20 180<318.742 482.646> 372 180<201.099 386.485>
AnchorPoint: "top" 252 530 basechar 0
AnchorPoint: "bottom" 316 -18 basechar 0
LayerCount: 2
Fore
SplineSet
316 -8 m 4
 268 -8 222 10 182 42 c 4
 150 66 120 102 96 146 c 4
 58 218 30 314 20 416 c 5
 20 424 l 6
 20 470 54 510 102 514 c 5
 112 514 l 6
 156 514 194 480 200 434 c 4
 216 272 278 172 316 172 c 4
 352 172 372 242 372 310 c 4
 372 348 348 396 336 408 c 4
 314 426 302 450 302 478 c 4
 302 496 310 516 322 534 c 4
 340 556 366 568 394 568 c 4
 412 568 432 562 448 550 c 4
 506 504 552 398 552 310 c 4
 552 120 458 -8 316 -8 c 4
338 408 m 5
 338 408 l 5
EndSplineSet
Validated: 1
EndChar

StartChar: v
Encoding: 118 118 85
Width: 646
VWidth: 1297
Flags: W
HStem: 482 20G<83 128>
VStem: 20 172<407.596 471.043> 376 180<281.054 531.018>
LayerCount: 2
Fore
SplineSet
20 412 m 4
 20 458 56 502 110 502 c 4
 146 502 178 480 192 448 c 4
 212 400 284 306 340 238 c 5
 364 296 376 376 376 472 c 4
 376 522 416 562 466 562 c 4
 516 562 556 522 556 472 c 4
 556 266 510 122 412 28 c 4
 394 12 372 4 350 4 c 4
 328 4 308 10 290 26 c 4
 242 68 72 270 28 376 c 4
 22 388 20 400 20 412 c 4
EndSplineSet
Validated: 1
EndChar

StartChar: w
Encoding: 119 119 86
Width: 766
VWidth: 1315
Flags: W
HStem: -15 21G<136.5 162> 30 180<487.348 553.332>
VStem: 20 180<206.608 372.518> 566 181<214.758 341.669>
LayerCount: 2
Fore
SplineSet
445 462 m 0
 445 518 490 551 534 551 c 0
 545 551 556 551 566 547 c 4
 618 526 665 488 699 437 c 4
 730 388 747 334 747 281 c 0
 747 274 747 267 746 260 c 4
 734 116 649 30 525 30 c 0
 517 30 509 30 501 31 c 4
 459 35 402 52 355 108 c 5
 307 46 247 5 198 -9 c 4
 184 -12 169 -15 155 -15 c 0
 118 -15 88 -1 66 23 c 4
 60 28 55 34 52 40 c 4
 25 85 20 163 20 217 c 0
 20 246 20 260 23 285 c 4
 28 347 43 441 87 509 c 4
 104 537 133 552 163 552 c 0
 215 552 253 505 253 462 c 0
 253 443 247 428 239 415 c 4
 222 384 208 334 203 274 c 4
 203 263 200 246 200 234 c 0
 200 223 200 213 201 204 c 5
 203 208 208 211 212 215 c 4
 241 251 265 295 275 338 c 4
 284 377 319 406 361 406 c 6
 369 406 l 5
 407 403 440 378 449 339 c 4
 476 234 494 212 516 210 c 4
 519 210 522 210 525 210 c 0
 541 210 545 215 547 218 c 4
 550 221 566 244 566 283 c 0
 566 323 532 366 503 378 c 4
 466 392 445 426 445 462 c 0
210 127 m 5
 210 127 l 5
EndSplineSet
Validated: 1
EndChar

StartChar: x
Encoding: 120 120 87
AltUni2: 000445.ffffffff.0
Width: 754
VWidth: 1274
Flags: W
HStem: 0 21G<630 670>
LayerCount: 2
Fore
SplineSet
734 92 m 4
 734 45 696 0 644 0 c 4
 616 0 590 14 572 38 c 4
 538 84 498 130 454 176 c 5
 374 16 l 6
 366 -2 358 -18 350 -34 c 4
 334 -66 302 -84 268 -84 c 4
 215 -84 178 -39 178 4 c 4
 178 18 182 32 188 44 c 4
 196 62 204 78 212 94 c 4
 248 168 284 240 318 306 c 5
 298 326 278 344 260 358 c 5
 234 339 203 297 198 270 c 4
 190 226 152 196 108 196 c 4
 104 196 98 198 94 198 c 4
 50 206 20 244 20 286 c 4
 20 292 20 298 22 304 c 4
 32 358 62 414 108 462 c 4
 134 490 188 538 252 552 c 4
 258 552 264 554 270 554 c 4
 290 554 308 548 324 536 c 4
 348 518 376 496 408 468 c 5
 444 526 478 574 510 608 c 4
 528 624 552 634 574 634 c 4
 596 634 620 624 638 608 c 4
 656 590 664 568 664 544 c 4
 664 520 656 498 638 480 c 4
 610 454 578 404 542 342 c 5
 606 280 670 210 718 144 c 4
 730 128 734 110 734 92 c 4
EndSplineSet
Validated: 1
EndChar

StartChar: y
Encoding: 121 121 88
Width: 760
VWidth: 1413
Flags: W
HStem: -977 178<375.056 557.324> -19 176<212.721 319.643> 157 4<222 224> 497 20G<124 167>
VStem: 20 180<163.523 388.201> 430 178<302.923 420.643> 558 182<-800.587 -651.156>
LayerCount: 2
Fore
SplineSet
140 517 m 0xda
 194 517 230 470 230 427 c 0
 230 413 228 399 220 385 c 0
 210 365 200 321 200 267 c 0
 200 263 200 259 200 255 c 0
 202 203 214 173 220 161 c 1
 314 163 348 189 366 209 c 0
 398 247 416 313 430 381 c 0
 438 423 476 453 518 453 c 2
 526 453 l 1
 572 449 606 409 608 363 c 0xbc
 610 207 624 -205 722 -645 c 0
 722 -647 722 -647 724 -649 c 0
 732 -695 740 -741 740 -785 c 0
 740 -841 728 -891 696 -929 c 0
 656 -973 602 -983 550 -983 c 0
 528 -983 508 -981 488 -979 c 0
 478 -979 468 -979 458 -977 c 1
 454 -977 l 1
 276 -960 158 -889 126 -733 c 0
 124 -727 124 -721 124 -715 c 0
 124 -559 314 -391 484 -343 c 1
 466 -217 452 -89 442 39 c 1
 388 3 314 -19 214 -19 c 0
 154 -19 102 11 66 67 c 0
 24 135 20 225 20 273 c 0
 20 347 36 417 60 467 c 0
 76 499 108 517 140 517 c 0xda
470 -799 m 0
 482 -799 492 -799 500 -801 c 0
 518 -801 544 -803 558 -803 c 1
 558 -785 l 2x9a
 558 -765 556 -735 546 -685 c 0
 534 -631 524 -577 514 -521 c 1
 468 -539 420 -569 378 -605 c 0
 330 -649 310 -687 306 -709 c 1
 310 -729 320 -743 334 -755 c 0
 360 -777 408 -791 470 -799 c 0
222 157 m 1xd8
 224 157 l 1
 222 157 l 1xd8
EndSplineSet
Validated: 1
EndChar

StartChar: z
Encoding: 122 122 89
Width: 822
VWidth: 1351
Flags: W
HStem: -871 180<317.094 549.663> -497 180<361.077 598.237> 287 180<53.9557 287.415>
VStem: 72 730<-607 -409>
LayerCount: 2
Fore
SplineSet
494 529 m 0
 540 529 584 488 584 441 c 0
 584 433 582 425 580 417 c 0
 564 353 504 275 408 155 c 0
 400 145 392 135 384 125 c 1
 476 109 548 73 602 41 c 0
 604 41 606 39 608 39 c 0
 680 -9 726 -99 752 -165 c 0
 784 -245 802 -335 802 -409 c 0
 802 -489 796 -551 786 -603 c 0
 774 -665 754 -715 722 -755 c 0
 642 -859 514 -871 410 -871 c 0
 340 -871 260 -849 198 -809 c 0
 118 -757 72 -685 72 -607 c 0
 72 -533 122 -457 210 -397 c 0
 284 -347 368 -317 438 -317 c 0
 494 -317 554 -317 614 -333 c 1
 606 -299 596 -263 584 -231 c 0
 558 -165 528 -127 510 -113 c 0
 456 -81 384 -49 294 -49 c 0
 272 -49 248 -51 224 -55 c 0
 220 -55 216 -55 212 -55 c 0
 163 -55 120 -18 120 35 c 0
 120 49 122 61 128 73 c 0
 154 126 230 219 290 295 c 1
 246 289 204 287 162 287 c 0
 142 287 122 287 102 289 c 0
 54 293 20 333 20 379 c 2
 20 387 l 1
 24 435 64 469 110 469 c 2
 118 469 l 1
 136 467 154 467 172 467 c 0
 264 467 364 487 462 523 c 0
 472 527 484 529 494 529 c 0
252 -607 m 0
 254 -621 270 -641 294 -657 c 0
 328 -679 374 -691 410 -691 c 0
 528 -691 564 -667 580 -645 c 0
 598 -623 610 -585 616 -529 c 1
 612 -527 608 -525 606 -523 c 0
 572 -499 514 -497 438 -497 c 0
 412 -497 364 -511 316 -543 c 0
 272 -571 254 -599 252 -607 c 0
EndSplineSet
Validated: 1
EndChar

StartChar: braceleft
Encoding: 123 123 90
Width: 570
VWidth: 1294
Flags: W
HStem: -236 180<314.859 418.25> 654 174<305.473 389.043>
VStem: 134 179<-54.5369 74.618>
LayerCount: 2
Fore
SplineSet
460 -26 m 4
 508 -26 550 -58 550 -114 c 4
 550 -150 528 -186 492 -200 c 4
 452 -214 390 -236 328 -236 c 4
 273 -236 203 -214 168 -162 c 4
 140 -118 134 -64 134 -22 c 4
 134 37 143 84 162 128 c 5
 144 134 124 138 104 140 c 4
 56 142 20 179 20 230 c 4
 20 264 40 296 72 310 c 4
 120 332 158 362 180 382 c 5
 158 396 132 414 108 438 c 4
 68 480 46 530 46 582 c 4
 46 626 62 688 136 744 c 4
 176 774 232 802 302 824 c 4
 312 828 322 828 330 828 c 4
 376 828 420 794 420 740 c 4
 420 702 396 666 360 654 c 4
 246 616 228 586 226 582 c 4
 228 564 268 538 290 524 c 4
 324 504 354 484 370 448 c 4
 370 446 372 444 372 440 c 4
 376 428 378 416 378 400 c 4
 378 362 362 314 308 258 c 5
 332 242 348 222 356 200 c 4
 362 186 366 170 366 156 c 4
 366 134 358 112 344 92 c 4
 330 70 318 36 314 2 c 4
 313 -5 313 -12 313 -18 c 0
 313 -34 315 -47 318 -54 c 5
 322 -54 326 -56 332 -56 c 4
 358 -56 396 -44 430 -30 c 4
 440 -26 450 -26 460 -26 c 4
EndSplineSet
Validated: 1
EndChar

StartChar: bar
Encoding: 124 124 91
Width: 260
VWidth: 1282
Flags: W
HStem: 934 20G<84 135>
VStem: 20 180<531.385 921.727> 62 178<-198.76 192.284>
LayerCount: 2
Fore
SplineSet
150 -230 m 2xa0
 106 -230 66 -194 62 -148 c 0xa0
 42 54 26 674 20 862 c 1
 20 866 l 2
 20 914 60 954 108 954 c 2
 112 954 l 2
 158 954 198 916 200 868 c 0xc0
 206 684 222 66 240 -132 c 1
 240 -142 l 2
 240 -186 206 -224 160 -230 c 1
 150 -230 l 2xa0
EndSplineSet
Validated: 1
EndChar

StartChar: braceright
Encoding: 125 125 92
Width: 484
VWidth: 1287
Flags: W
HStem: -235 180<162.629 277.882> 635 178<50.7929 196.586> 643 180<108.374 222>
VStem: 20 404<665.229 758.721> 160 304<231 333>
LayerCount: 2
Fore
SplineSet
108 635 m 4xc8
 63 635 20 670 20 723 c 4
 20 765 48 803 90 813 c 4xd0
 128 821 168 823 198 823 c 4
 216 823 232 821 244 821 c 4
 340 813 372 787 384 779 c 4
 408 759 424 729 424 697 c 4xb0
 424 645 398 593 368 531 c 4
 356 503 342 475 330 443 c 5
 358 437 386 429 416 415 c 4
 446 399 464 367 464 333 c 4
 464 323 462 311 458 301 c 4
 438 253 400 229 370 211 c 5
 420 119 464 -7 464 -97 c 4
 464 -139 442 -177 404 -201 c 4
 384 -213 362 -221 332 -227 c 4
 292 -233 250 -235 222 -235 c 6
 220 -235 l 6
 170 -235 130 -193 130 -145 c 4
 130 -95 170 -55 220 -55 c 4
 244 -55 264 -53 278 -53 c 5
 262 25 218 129 180 175 c 4
 168 191 160 211 160 231 c 4
 160 253 174 283 188 297 c 5
 182 301 176 303 172 307 c 4
 144 323 128 353 128 383 c 4
 128 389 128 395 130 401 c 4
 144 479 178 551 206 609 c 4
 212 619 216 631 222 643 c 5xa8
 194 643 160 643 130 637 c 4
 122 635 116 635 108 635 c 4xc8
EndSplineSet
Validated: 1
EndChar

StartChar: asciitilde
Encoding: 126 126 94
AltUni2: 000303.ffffffff.0
Width: 608
VWidth: 1803
Flags: W
HStem: 352 180<329.027 430.442> 392 178<189.543 281.633>
AnchorPoint: "top" 300 338 mark 0
LayerCount: 2
Fore
SplineSet
110 332 m 0x40
 86 332 62 340 44 360 c 0
 28 378 20 400 20 420 c 0
 20 448 35 473 54 492 c 0
 92 526 138 570 218 570 c 0x40
 248 570 282 564 324 548 c 0
 326 548 328 548 328 546 c 0
 350 536 366 532 380 532 c 0
 400 532 416 540 436 558 c 0
 454 574 476 582 496 582 c 0
 522 582 546 572 564 552 c 0
 580 534 588 512 588 492 c 0
 588 466 578 442 558 424 c 0
 510 382 462 358 408 352 c 0
 400 352 392 352 384 352 c 0x80
 344 352 302 360 254 382 c 0
 230 392 218 392 214 392 c 0
 205 388 184 368 172 356 c 0
 154 340 132 332 110 332 c 0x40
EndSplineSet
Validated: 1
EndChar

StartChar: exclamdown
Encoding: 161 161 95
Width: 382
VWidth: 1694
Flags: W
HStem: 402 206<67.5768 169.489>
VStem: 20 198<458.531 549.473> 92 180<31.9084 265.368>
LayerCount: 2
Fore
SplineSet
362 -226 m 0xa0
 362 -269 328 -316 272 -316 c 0
 236 -316 204 -296 188 -260 c 0
 138 -138 104 22 92 202 c 1
 92 210 l 2
 92 256 128 296 176 298 c 0
 178 298 180 298 182 298 c 0
 228 298 268 262 272 216 c 0
 282 56 312 -90 356 -192 c 0
 360 -202 362 -214 362 -226 c 0xa0
218 492 m 0xc0
 218 446 181 402 126 402 c 0
 96 402 68 416 50 444 c 2
 34 470 l 2
 24 486 20 502 20 518 c 0
 20 564 57 608 110 608 c 0
 140 608 170 594 186 566 c 1
 204 538 l 2
 212 524 218 508 218 492 c 0xc0
EndSplineSet
Validated: 1
EndChar

StartChar: cent
Encoding: 162 162 96
Width: 592
VWidth: 1484
Flags: W
HStem: -156 342<271.773 387.751> 54 174<455.661 538.172> 728 20G<203.5 251>
VStem: 20 180<215.591 313.053> 138 180<642.28 715.798> 240 180<-124.227 11.75>
LayerCount: 2
Fore
SplineSet
482 228 m 4x70
 525 228 572 190 572 138 c 4
 572 102 550 68 516 54 c 4x70
 486 42 458 32 428 24 c 5
 420 -74 l 6
 416 -122 376 -156 330 -156 c 6
 322 -156 l 5
 274 -152 240 -112 240 -66 c 6
 240 -58 l 5
 246 8 l 5
 202 14 164 28 130 52 c 4
 126 54 124 56 120 60 c 4
 74 102 40 162 26 224 c 4
 22 244 20 264 20 284 c 4xb4
 20 326 28 364 46 396 c 4
 48 398 50 402 50 404 c 4
 84 452 128 480 178 498 c 5
 160 542 150 590 140 642 c 4
 140 648 138 652 138 658 c 4
 138 705 177 748 230 748 c 4
 272 748 310 716 318 674 c 4xa8
 338 564 352 538 386 520 c 4
 388 520 388 518 390 518 c 4
 434 512 468 474 468 428 c 6
 468 424 l 5
 466 378 426 338 380 338 c 6
 338 338 l 6
 266 338 220 328 202 306 c 4
 200 302 200 294 200 286 c 4
 200 262 208 226 236 198 c 5
 250 190 270 186 298 186 c 4xb0
 336 186 386 196 446 220 c 4
 458 226 470 228 482 228 c 4x70
EndSplineSet
Validated: 1
EndChar

StartChar: sterling
Encoding: 163 163 97
Width: 722
VWidth: 1564
Flags: W
HStem: -74 178<438.347 668.5> -60 182<335.548 625.186> 236 186<333.307 499.777> 236 176<332 393.339 397.954 506.743> 569 179<232.94 327.85>
VStem: 156 180<116.734 208>
LayerCount: 2
Fore
SplineSet
446 236 m 4x2c
 423 236 424 242 394 242 c 4
 380 242 360 242 332 238 c 5
 336 214 336 192 336 170 c 4
 336 150 336 134 334 116 c 5
 366 120 400 122 432 122 c 4x6c
 494 122 558 116 624 104 c 4
 670 98 702 60 702 16 c 4
 702 12 700 6 700 2 c 4
 692 -42 654 -74 610 -74 c 4x8c
 606 -74 602 -74 596 -72 c 4
 540 -64 486 -60 436 -60 c 4
 356 -60 284 -70 220 -92 c 4
 210 -94 200 -96 192 -96 c 4
 145 -96 102 -57 102 -6 c 4
 102 14 108 36 122 52 c 4
 146 82 156 122 156 166 c 4
 156 180 156 194 154 208 c 5
 150 206 146 206 146 206 c 6
 138 204 132 202 126 202 c 4
 80 202 36 237 36 292 c 4
 36 330 60 366 98 378 c 5
 82 406 64 430 46 448 c 4
 30 466 20 488 20 512 c 4
 20 520 22 530 24 538 c 4
 54 640 126 714 218 740 c 4
 240 746 260 748 282 748 c 4
 338 748 390 728 428 694 c 4
 446 676 456 652 456 628 c 4
 456 606 448 584 432 566 c 4
 414 548 390 538 366 538 c 4
 346 538 324 546 306 562 c 4
 303 565 295 569 283 569 c 0
 278 569 272 568 266 566 c 4
 252 562 232 552 216 528 c 5
 240 494 262 454 282 412 c 5x5c
 332 420 368 422 396 422 c 4x2c
 438 422 460 416 478 412 c 4x1c
 514 400 538 364 538 326 c 4
 538 269 494 236 446 236 c 4x2c
EndSplineSet
Validated: 1
EndChar

StartChar: currency
Encoding: 164 164 98
Width: 790
VWidth: 1565
Flags: W
HStem: 9 21G<86 122> 107 180<319.534 486.795> 421 190<317.409 438.718> 421 178<364.749 472> 737 20G<118 153>
VStem: 120 180<306.523 406.143> 506 180<309.016 389.353>
LayerCount: 2
Fore
SplineSet
680 711 m 4xde
 724 711 770 676 770 621 c 4
 770 585 748 551 712 537 c 4
 700 533 680 511 660 491 c 4
 654 487 650 481 644 477 c 5
 672 437 686 393 686 345 c 4
 686 295 672 251 644 215 c 5
 700 103 l 6
 706 91 710 77 710 63 c 4
 710 20 671 -27 618 -27 c 4
 586 -27 554 -9 538 23 c 6
 490 119 l 5
 456 111 416 107 370 107 c 4
 368 107 366 107 364 107 c 4
 326 109 292 119 260 133 c 5
 178 39 l 6
 160 19 134 9 110 9 c 4
 62 9 20 53 20 99 c 4
 20 121 28 143 42 159 c 6
 138 265 l 5
 126 295 120 329 120 363 c 4
 120 413 134 457 158 495 c 5
 144 527 114 569 80 601 c 4
 62 619 52 643 52 665 c 4
 52 714 94 757 142 757 c 4
 164 757 186 749 204 731 c 4
 246 691 282 645 308 599 c 5xde
 323 605 343 611 364 611 c 4xee
 380 611 394 607 406 599 c 5
 438 599 470 595 498 585 c 5
 510 595 520 605 530 615 c 4
 566 653 598 687 648 705 c 4
 658 709 670 711 680 711 c 4xde
506 345 m 4
 506 389 450 421 402 421 c 4xee
 386 421 372 419 356 413 c 4
 344 409 332 407 322 407 c 5
 300 393 300 375 300 363 c 4
 300 347 300 293 374 287 c 5
 442 287 474 301 488 309 c 4
 498 317 506 325 506 345 c 4
EndSplineSet
Validated: 1
EndChar

StartChar: yen
Encoding: 165 165 99
Width: 612
VWidth: 1559
Flags: W
HStem: 735 20G<471.5 519>
VStem: 20 180<626.407 760.533> 76 476<106.25 222.392> 412 180<580.993 718.31>
LayerCount: 2
Fore
SplineSet
490 429 m 5xd0
 517 414 542 389 542 347 c 4
 542 313 524 281 490 265 c 4
 482 261 474 259 464 255 c 5
 522 251 552 207 552 163 c 4
 552 123 524 81 470 75 c 4
 448 73 426 71 402 69 c 5
 400 45 400 19 394 -5 c 4
 382 -53 342 -75 302 -75 c 4
 258 -75 214 -47 214 5 c 6
 214 9 l 6
 214 13 216 23 216 27 c 4
 218 39 220 53 220 65 c 5
 194 67 168 71 144 77 c 4
 104 87 76 123 76 163 c 4xa0
 76 201 92 225 118 241 c 5
 96 257 84 285 84 311 c 4
 84 366 130 403 174 403 c 4
 184 403 192 401 200 399 c 5
 170 415 140 437 116 463 c 4
 60 525 26 607 20 695 c 5
 20 699 l 6
 20 761 64 791 110 791 c 4
 152 791 196 763 200 707 c 4
 206 635 247 549 324 549 c 4
 361 549 412 584 412 630 c 0
 412 636 412 641 410 647 c 4
 408 653 408 659 408 665 c 4
 408 712 445 755 498 755 c 4
 540 755 578 725 588 683 c 4
 592 667 592 649 592 633 c 4
 592 552 550 469 490 429 c 5xd0
EndSplineSet
Validated: 1
EndChar

StartChar: brokenbar
Encoding: 166 166 100
Width: 410
VWidth: 1573
Flags: W
VStem: 158 174<181.861 288.44> 212 178<-171.541 68.8135>
LayerCount: 2
Fore
SplineSet
20 787 m 0x00
 20 833 57 877 110 877 c 0
 140 877 170 863 186 835 c 0
 226 771 260 575 290 455 c 0
 292 447 292 441 292 433 c 0
 292 393 264 357 224 347 c 0
 216 345 208 343 202 343 c 0
 162 343 124 371 114 413 c 0
 90 511 64 693 34 739 c 0
 24 753 20 771 20 787 c 0x00
158 229 m 0x80
 158 276 193 319 248 319 c 0
 286 319 320 297 332 259 c 0x80
 360 183 382 17 390 -107 c 1
 390 -115 l 2
 390 -161 354 -199 306 -203 c 0
 304 -203 302 -203 300 -203 c 0
 254 -203 214 -167 212 -119 c 0x40
 204 -11 184 139 162 201 c 0
 158 211 158 219 158 229 c 0x80
EndSplineSet
Validated: 1
EndChar

StartChar: section
Encoding: 167 167 101
Width: 760
VWidth: 1630
Flags: W
HStem: -234 180<286.229 527.085>
LayerCount: 2
Fore
SplineSet
696 100 m 4
 724 72 740 38 740 0 c 4
 740 -133 628 -205 504 -226 c 4
 472 -232 436 -234 400 -234 c 4
 376 -234 352 -232 330 -230 c 4
 284 -224 250 -186 250 -142 c 6
 250 -132 l 5
 256 -86 294 -52 340 -52 c 6
 350 -52 l 5
 366 -54 384 -54 400 -54 c 4
 462 -54 520 -42 548 -22 c 5
 544 -20 538 -18 532 -16 c 4
 506 -8 474 -2 442 6 c 4
 384 20 324 34 274 54 c 4
 172 100 150 166 150 214 c 4
 150 280 176 350 222 410 c 5
 196 414 170 420 148 426 c 4
 36 460 20 532 20 572 c 4
 20 644 54 712 114 764 c 4
 164 808 232 838 308 852 c 4
 314 852 318 854 324 854 c 4
 368 854 404 822 412 778 c 4
 412 774 414 768 414 764 c 4
 414 720 382 682 338 674 c 4
 274 664 222 632 206 596 c 5
 212 596 220 594 230 592 c 4
 260 586 294 582 330 578 c 4
 390 570 454 562 506 546 c 4
 624 508 640 430 640 388 c 4
 640 326 624 260 596 202 c 4
 588 188 580 174 572 160 c 5
 590 154 610 148 626 142 c 4
 656 130 678 116 696 100 c 4
442 360 m 4
 398 348 340 284 332 228 c 5
 338 224 350 218 372 210 c 5
 424 242 454 310 460 368 c 5
 454 364 448 362 442 360 c 4
EndSplineSet
Validated: 1
EndChar

StartChar: dieresis
Encoding: 168 168 102
AltUni2: 000308.ffffffff.0
Width: 580
VWidth: 1388
Flags: W
HStem: 516 212<101.969 169.458> 534 212<410.91 496.501>
VStem: 20 234<580.024 663.263> 348 212<597.499 683.09>
AnchorPoint: "top" 320 520 mark 0
LayerCount: 2
Fore
SplineSet
20 638 m 4xb0
 20 691 64 728 108 728 c 4
 124 728 140 722 156 714 c 5
 208 684 l 6
 238 666 254 638 254 606 c 4
 254 592 248 574 240 560 c 4
 224 532 194 516 162 516 c 4
 148 516 132 520 118 528 c 6
 64 560 l 5
 36 578 20 608 20 638 c 4xb0
560 624 m 4
 560 575 519 534 470 534 c 4
 446 534 424 542 406 560 c 6
 374 592 l 6
 356 610 348 632 348 656 c 4
 348 680 356 702 374 720 c 4
 392 736 414 746 438 746 c 4x70
 460 746 484 736 502 720 c 5
 534 688 l 6
 552 670 560 648 560 624 c 4
EndSplineSet
Validated: 1
EndChar

StartChar: copyright
Encoding: 169 169 103
Width: 1072
VWidth: 1529
Flags: W
HStem: -219 180<401.405 658.837> -5 180<428.089 569.576> 415 180<473.377 645.124> 679 202<414 607.904>
VStem: 20 180<145.722 399.07> 236 180<186.761 354.581> 872 180<165.837 410.577>
LayerCount: 2
Fore
SplineSet
536 -219 m 4
 396 -219 268 -173 174 -89 c 4
 74 -3 20 121 20 259 c 4
 20 339 36 423 68 499 c 4
 121 637 219 745 348 807 c 5
 354 849 392 881 436 881 c 4
 496 881 554 873 610 859 c 4
 632 857 658 855 682 853 c 4
 716 849 742 827 754 797 c 5
 800 771 840 741 878 703 c 4
 990 591 1052 439 1052 275 c 4
 1052 143 998 17 904 -75 c 4
 806 -167 676 -219 536 -219 c 4
582 679 m 5
 486 677 404 647 340 589 c 4
 236 497 200 357 200 259 c 4
 200 83 338 -39 536 -39 c 4
 724 -39 872 99 872 275 c 4
 872 467 754 623 582 679 c 5
660 259 m 4
 712 259 750 211 750 167 c 4
 750 151 744 135 736 121 c 4
 700 63 642 -5 504 -5 c 4
 416 -5 352 17 304 63 c 4
 258 109 236 177 236 261 c 4
 236 371 274 463 348 525 c 4
 402 571 470 595 544 595 c 4
 566 595 586 593 608 589 c 4
 652 581 684 545 684 501 c 4
 684 495 682 491 682 485 c 4
 674 443 636 411 594 411 c 4
 590 411 584 411 578 413 c 4
 568 415 558 415 548 415 c 4
 459 415 416 351 416 261 c 4
 416 188 430 175 504 175 c 4
 558 175 568 189 582 215 c 4
 600 243 630 259 660 259 c 4
EndSplineSet
Validated: 1
EndChar

StartChar: ordfeminine
Encoding: 170 170 104
Width: 858
VWidth: 1388
Flags: W
HStem: 564 172<736.164 803.032> 784 180<315.348 418>
VStem: 419 419<628.5 777.5>
LayerCount: 2
Fore
SplineSet
838 656 m 4
 838 601 789 564 746 564 c 4
 734 564 722 566 712 570 c 4
 658 594 608 620 558 654 c 5
 548 638 534 624 516 608 c 4
 474 570 414 536 332 502 c 5
 330 502 l 5
 294 488 256 480 222 480 c 4
 109 480 20 554 20 660 c 4
 20 676 22 692 26 708 c 4
 28 712 30 716 30 720 c 4
 90 856 252 964 398 964 c 4
 438 964 472 938 484 902 c 5
 490 904 496 904 502 904 c 4
 524 904 544 896 562 880 c 4
 642 810 704 770 782 736 c 4
 816 722 838 690 838 656 c 4
204 662 m 5
 208 662 212 660 218 660 c 4
 230 660 246 662 266 670 c 4
 326 694 370 718 396 742 c 4
 415 759 419 769 419 776 c 0
 419 779 419 782 418 784 c 5
 418 784 418 786 416 786 c 4
 412 784 404 784 398 784 c 4
 328 784 240 728 204 662 c 5
EndSplineSet
Validated: 1
EndChar

StartChar: guillemotleft
Encoding: 171 171 105
Width: 974
VWidth: 1598
Flags: W
LayerCount: 2
Fore
SplineSet
504 0 m 4
 504 -48 464 -92 414 -92 c 4
 386 -92 358 -78 340 -54 c 4
 268 46 164 118 62 180 c 4
 38 196 20 224 20 254 c 4
 20 284 34 312 58 330 c 4
 134 382 214 460 300 562 c 4
 318 584 344 594 370 594 c 4
 390 594 410 588 428 574 c 4
 448 556 460 530 460 506 c 4
 460 484 452 464 438 446 c 4
 378 376 320 314 264 264 c 5
 344 206 422 140 486 52 c 4
 498 36 504 18 504 0 c 4
864 -70 m 4
 838 -70 812 -60 794 -38 c 4
 724 46 624 134 526 200 c 4
 502 216 486 244 486 274 c 4
 486 276 486 278 486 280 c 4
 488 312 508 340 536 354 c 4
 642 408 718 464 760 520 c 4
 776 544 804 556 832 556 c 4
 850 556 870 550 886 538 c 4
 908 520 920 492 920 466 c 4
 920 446 916 428 904 412 c 4
 864 360 810 312 740 264 c 5
 812 206 880 140 932 78 c 4
 946 60 954 40 954 18 c 4
 954 -6 942 -32 922 -50 c 4
 904 -64 884 -70 864 -70 c 4
EndSplineSet
Validated: 1
EndChar

StartChar: logicalnot
Encoding: 172 172 106
Width: 720
VWidth: 1597
Flags: W
HStem: 14 21G<589 613> 362 182<66.139 498> 372 180<52.6319 328.811>
VStem: 498 180<104.281 366>
LayerCount: 2
Fore
SplineSet
594 550 m 4xd0
 641 550 682 508 682 460 c 4
 682 458 682 456 682 454 c 4
 678 414 678 374 678 338 c 4
 678 260 684 190 698 122 c 4
 700 116 700 110 700 104 c 4
 700 62 670 24 628 16 c 4
 622 16 616 14 610 14 c 4
 568 14 530 44 522 86 c 4
 506 166 498 248 498 336 c 4
 498 346 498 356 498 366 c 5
 448 364 394 362 338 362 c 4xd0
 266 362 186 366 102 372 c 4
 56 376 20 416 20 462 c 6
 20 470 l 5
 24 516 64 552 110 552 c 6
 118 552 l 5xb0
 194 546 264 544 332 544 c 4
 406 544 476 546 542 548 c 4
 558 550 574 550 588 550 c 4
 590 550 592 550 594 550 c 4xd0
EndSplineSet
Validated: 1
EndChar

StartChar: registered
Encoding: 174 174 107
Width: 1192
VWidth: 1531
Flags: W
HStem: -206 180<480.875 708.175> 440 178<471.69 601.054>
VStem: 20 180<221.698 465.322> 992 180<227.6 444.311>
LayerCount: 2
Fore
SplineSet
956 744 m 4
 1098 646 1172 502 1172 328 c 4
 1172 196 1106 58 990 -46 c 4
 876 -148 728 -206 584 -206 c 4
 466 -206 330 -150 216 -56 c 4
 116 27 20 155 20 316 c 4
 20 502 80 646 198 746 c 4
 263 802 345 841 440 868 c 5
 454 878 471 884 490 884 c 0
 493 884 495 884 498 884 c 5
 506 884 l 5
 552 894 600 900 650 904 c 5
 654 904 l 6
 694 904 730 878 742 842 c 5
 824 818 896 786 956 744 c 4
274 524 m 4
 274 569 312 612 362 612 c 0
 372 612 383 610 394 606 c 4
 400 608 404 610 410 610 c 4
 448 616 486 618 520 618 c 4
 616 618 698 596 746 554 c 4
 780 524 800 486 800 442 c 4
 800 406 786 368 760 334 c 4
 742 312 720 292 694 272 c 5
 728 252 756 232 776 212 c 4
 792 194 800 172 800 150 c 4
 800 126 790 102 772 84 c 4
 754 68 732 60 710 60 c 4
 686 60 662 70 644 88 c 4
 630 102 566 140 476 164 c 5
 474 148 472 132 470 116 c 4
 462 76 430 44 390 40 c 5
 456 0 526 -26 584 -26 c 4
 684 -26 788 16 870 88 c 4
 948 158 992 246 992 328 c 4
 992 576 768 680 518 702 c 5
 320 656 200 548 200 316 c 4
 200 252 232 184 290 122 c 5
 290 128 290 136 292 144 c 4
 298 190 302 236 302 278 c 4
 302 368 288 446 276 502 c 4
 274 510 274 516 274 524 c 4
470 438 m 5
 474 410 478 382 480 352 c 5
 520 375 572 400 602 430 c 5
 582 434 550 440 510 440 c 4
 498 440 484 438 470 438 c 5
EndSplineSet
Validated: 1
EndChar

StartChar: macron
Encoding: 175 175 108
Width: 904
VWidth: 1350
Flags: W
HStem: 346 178<50.9353 379.346> 374 180<449.499 853.018>
LayerCount: 2
Fore
SplineSet
110 346 m 4x80
 66 346 26 378 20 424 c 5
 20 434 l 6
 20 480 54 518 98 524 c 4x80
 282 548 588 554 794 554 c 4
 844 554 884 514 884 464 c 4
 884 414 844 374 794 374 c 4x40
 576 374 284 366 122 346 c 4
 118 346 114 346 110 346 c 4x80
EndSplineSet
Validated: 1
EndChar

StartChar: degree
Encoding: 176 176 109
AltUni2: 00030a.ffffffff.0
Width: 624
VWidth: 1396
Flags: W
HStem: 402 180<204.01 364.698> 946 20G<253 364>
VStem: 20 180<592.654 659.905> 424 180<637.844 756.277>
AnchorPoint: "top" 306 394 mark 0
LayerCount: 2
Fore
SplineSet
604 726 m 4
 604 531 488 420 308 402 c 5
 284 402 l 6
 218 402 136 412 78 466 c 4
 40 504 20 556 20 622 c 4
 20 710 86 802 188 868 c 5
 188 876 l 6
 188 924 228 966 278 966 c 4
 450 966 604 882 604 726 c 4
392 764 m 5
 332 746 280 718 242 684 c 4
 208 650 200 626 200 622 c 4
 200 606 202 598 204 596 c 6
 204 596 218 582 282 582 c 4
 286 582 290 582 294 582 c 4
 386 592 424 634 424 726 c 4
 424 742 412 754 392 764 c 5
EndSplineSet
Validated: 1
EndChar

StartChar: plusminus
Encoding: 177 177 110
Width: 786
VWidth: 1498
Flags: W
HStem: 112 180<547.243 733.371> 360 174<51.3536 148.708> 442 178<528 667.28> 448 180<530.57 728.205>
VStem: 292 178<641.265 779.733>
LayerCount: 2
Fore
SplineSet
292 722 m 4xc8
 292 768 328 810 382 810 c 4
 424 810 460 782 470 742 c 4
 480 700 488 660 496 620 c 5xa8
 552 624 612 628 670 628 c 4
 718 628 760 588 760 538 c 4
 760 488 718 448 670 448 c 4x98
 622 448 576 446 528 442 c 5xa8
 538 386 544 334 548 288 c 5
 592 290 636 292 676 292 c 4
 726 292 766 250 766 202 c 4
 766 152 726 112 676 112 c 4
 598 112 504 106 428 98 c 4
 300 86 266 68 264 66 c 6
 262 66 l 5
 248 56 230 52 214 52 c 4
 167 52 124 89 124 142 c 4
 124 172 138 200 164 218 c 4
 188 234 236 256 368 272 c 5
 366 314 358 364 350 418 c 5
 268 402 194 384 138 364 c 4
 130 362 120 360 110 360 c 4xc8
 65 360 20 394 20 448 c 4x98
 20 488 44 522 82 534 c 4
 142 556 224 576 318 594 c 5
 310 628 302 664 294 700 c 4
 292 708 292 714 292 722 c 4xc8
EndSplineSet
Validated: 1
EndChar

StartChar: uni00B2
Encoding: 178 178 111
Width: 512
VWidth: 1400
Flags: W
HStem: 448 179<308.45 459.383> 796 176<51.8746 148.013> 934 20G<365 383>
VStem: 20 438<823.484 921.276>
LayerCount: 2
Fore
SplineSet
20 880 m 4xd0
 20 934 63 972 108 972 c 4xd0
 120 972 130 970 140 966 c 4
 198 946 234 934 270 934 c 4
 292 934 314 938 340 948 c 4
 350 952 360 954 370 954 c 4xb0
 396 954 424 940 442 916 c 4
 452 900 458 882 458 864 c 4
 458 846 452 826 440 810 c 4
 406 764 374 730 346 702 c 4
 324 678 310 664 302 652 c 5
 310 648 318 644 330 640 c 4
 352 631 372 627 382 627 c 0
 385 627 387 628 388 628 c 4
 392 628 396 628 400 628 c 4
 446 628 484 598 490 552 c 4
 490 548 492 542 492 538 c 4
 492 494 460 456 416 450 c 4
 406 448 396 448 386 448 c 4
 350 448 308 456 270 470 c 4
 224 486 160 520 128 584 c 4
 119 599 116 619 116 640 c 4
 116 692 138 734 166 770 c 5
 138 776 110 786 80 796 c 4
 44 810 20 844 20 880 c 4xd0
EndSplineSet
Validated: 1
EndChar

StartChar: uni00B3
Encoding: 179 179 112
Width: 488
VWidth: 1388
Flags: W
HStem: 455 182<88.758 256.312> 789 184<57.1448 168>
LayerCount: 2
Fore
SplineSet
290 441 m 4
 246 441 198 447 150 455 c 4
 144 455 138 457 132 457 c 4
 88 465 54 501 54 545 c 4
 54 549 56 555 56 559 c 4
 62 605 100 637 144 637 c 4
 148 637 154 635 158 635 c 4
 164 635 170 633 174 633 c 4
 204 629 232 625 258 623 c 5
 240 637 220 649 208 653 c 4
 174 665 152 695 148 729 c 5
 148 737 l 6
 148 757 156 777 168 793 c 5
 152 793 136 793 122 791 c 4
 118 791 112 789 108 789 c 4
 64 789 26 823 20 869 c 5
 20 879 l 6
 20 923 54 963 98 969 c 4
 122 971 148 973 176 973 c 4
 257 973 328 956 364 925 c 4
 388 901 404 871 404 837 c 6
 404 833 l 5
 402 807 398 779 384 751 c 5
 388 747 392 745 394 741 c 4
 442 693 468 639 468 585 c 4
 468 543 450 507 422 481 c 4
 386 451 340 441 290 441 c 4
EndSplineSet
Validated: 1
EndChar

StartChar: acute
Encoding: 180 180 113
AltUni2: 000301.ffffffff.0
Width: 376
VWidth: 1356
Flags: W
HStem: 952 20G<259 289.5>
AnchorPoint: "top" 112 610 mark 0
LayerCount: 2
Fore
SplineSet
268 972 m 4
 311 972 356 936 356 884 c 4
 356 854 342 826 316 808 c 4
 254 764 224 726 188 664 c 4
 170 636 140 620 110 620 c 4
 56 620 20 666 20 712 c 4
 20 726 24 742 32 756 c 4
 80 834 126 896 216 956 c 4
 232 966 250 972 268 972 c 4
EndSplineSet
Validated: 1
EndChar

StartChar: mu
Encoding: 181 181 114
Width: 860
VWidth: 1706
Flags: W
HStem: -14 178<425.991 507.799> -2 21G<738 761> 498 20G<310 366>
VStem: 576 180<257.574 435.308>
LayerCount: 2
Fore
SplineSet
428 -14 m 0xb0
 385 -14 351 -5 324 10 c 1
 288 -100 244 -204 188 -302 c 0
 172 -332 142 -350 110 -350 c 0
 57 -350 20 -306 20 -260 c 0
 20 -246 24 -230 32 -216 c 0
 134 -32 194 160 242 444 c 0
 250 488 288 518 332 518 c 0
 336 518 340 518 344 518 c 0
 388 510 420 472 420 428 c 2
 420 418 l 1
 416 380 414 346 414 316 c 0
 414 246 422 194 428 164 c 1xb0
 438 164 456 166 484 170 c 1
 540 196 572 268 576 382 c 4
 580 430 618 468 666 468 c 6
 668 468 l 6
 716 468 756 428 756 380 c 4
 760 264 780 186 816 148 c 0
 832 130 840 108 840 86 c 0
 840 62 830 38 812 20 c 0
 794 4 772 -2 750 -2 c 0
 726 -2 702 6 684 26 c 0
 672 40 660 54 650 72 c 1
 614 34 576 12 540 -2 c 0x70
 534 -4 528 -4 522 -6 c 0
 492 -10 460 -14 428 -14 c 0xb0
EndSplineSet
Validated: 1
EndChar

StartChar: paragraph
Encoding: 182 182 115
Width: 832
VWidth: 1580
Flags: W
HStem: -12 21G<437 487 698 750> 218 180<217.189 340> 570 180<487.693 557.309>
VStem: 372 180<14.982 212.023> 632 180<20.4688 306.924>
LayerCount: 2
Fore
SplineSet
812 82 m 1
 812 78 l 2
 812 30 774 -10 726 -12 c 1
 722 -12 l 2
 674 -12 634 24 632 72 c 0
 622 288 594 432 552 570 c 1
 530 570 508 570 486 570 c 1
 528 410 552 252 552 74 c 0
 552 24 512 -16 462 -16 c 0
 412 -16 372 24 372 74 c 0
 372 134 368 160 364 218 c 1
 356 218 348 218 340 218 c 0
 227 218 132 244 78 298 c 0
 40 334 20 380 20 432 c 0
 20 504 62 576 136 636 c 0
 200 686 280 722 360 736 c 1
 362 736 l 1
 436 746 480 750 528 750 c 0
 558 750 586 748 624 746 c 0
 660 742 690 720 702 686 c 0
 762 522 798 348 812 82 c 1
200 430 m 1
 204 422 242 400 340 398 c 1
 330 448 320 492 310 532 c 1
 288 522 266 508 250 494 c 0
 212 466 200 440 200 432 c 2
 200 430 l 1
EndSplineSet
Validated: 1
EndChar

StartChar: periodcentered
Encoding: 183 183 116
Width: 262
VWidth: 1519
Flags: W
HStem: 314 214<92.0312 169.361>
VStem: 20 222<379.95 460.621>
LayerCount: 2
Fore
SplineSet
152 528 m 4
 199 528 242 491 242 440 c 4
 242 414 232 388 210 370 c 6
 168 334 l 5
 150 320 130 314 110 314 c 4
 84 314 58 324 42 346 c 4
 28 364 20 384 20 404 c 4
 20 430 32 454 52 472 c 6
 94 508 l 6
 110 522 130 528 152 528 c 4
EndSplineSet
Validated: 1
EndChar

StartChar: cedilla
Encoding: 184 184 117
AltUni2: 000327.ffffffff.0
Width: 590
VWidth: 1907
Flags: W
HStem: -760 186<141.204 374.847> -752 178<131.575 284.312> -402 180<245.275 348.4> -14 20G<83 126>
VStem: 20 170<-88.6092 -26.2664> 390 180<-561.478 -437.046>
AnchorPoint: "bottom" 100 -44 mark 0
LayerCount: 2
Fore
SplineSet
20 -84 m 4xbc
 20 -39 56 6 110 6 c 4
 142 6 174 -12 190 -44 c 4
 226 -116 242 -168 248 -222 c 5
 268 -222 l 6
 338 -222 406 -242 460 -280 c 4
 530 -330 570 -402 570 -482 c 4
 570 -576 544 -648 488 -696 c 4
 434 -746 360 -760 286 -760 c 4xbc
 250 -760 214 -756 178 -752 c 4x7c
 132 -746 100 -708 100 -664 c 4
 100 -660 100 -656 100 -652 c 4
 106 -606 146 -574 188 -574 c 4
 192 -574 196 -574 200 -574 c 4
 234 -578 264 -580 288 -580 c 4
 330 -580 356 -574 370 -562 c 4
 388 -546 390 -510 390 -482 c 4
 390 -456 370 -436 358 -428 c 4
 336 -414 304 -402 266 -402 c 4
 242 -402 216 -406 188 -416 c 4
 178 -420 166 -422 156 -422 c 4
 108 -422 68 -379 68 -334 c 6
 68 -324 l 5
 70 -302 70 -286 70 -270 c 4
 70 -220 62 -186 30 -124 c 4
 24 -110 20 -96 20 -84 c 4xbc
EndSplineSet
Validated: 1
EndChar

StartChar: uni00B9
Encoding: 185 185 118
Width: 404
VWidth: 1384
Flags: W
VStem: 188 180<580.374 729.52> 208 176<522.793 715.943>
LayerCount: 2
Fore
SplineSet
384 580 m 4x40
 384 534 348 492 294 492 c 4
 254 492 218 520 208 562 c 4x40
 194 618 188 668 188 730 c 5x80
 166 715 143 698 110 698 c 4
 66 698 20 734 20 788 c 4
 20 818 36 848 64 866 c 4
 122 900 196 942 254 970 c 4
 266 976 280 980 294 980 c 4
 342 980 384 937 384 892 c 4x40
 384 886 382 882 382 876 c 4
 372 808 368 758 368 718 c 4x80
 368 674 374 638 382 602 c 4
 384 594 384 588 384 580 c 4x40
EndSplineSet
Validated: 1
EndChar

StartChar: ordmasculine
Encoding: 186 186 119
Width: 554
VWidth: 1385
Flags: W
HStem: 461 180<211.781 320.48> 953 20G<244 322>
VStem: 20 180<652.926 762.388> 354 180<676.924 769.12>
LayerCount: 2
Fore
SplineSet
252 973 m 4
 392 973 534 886 534 747 c 4
 534 675 510 607 466 555 c 4
 418 495 348 461 270 461 c 4
 204 461 144 481 100 519 c 4
 64 551 20 607 20 703 c 4
 20 803 66 881 136 925 c 5
 150 949 176 969 206 971 c 4
 222 973 236 973 252 973 c 4
270 641 m 4
 322 641 354 694 354 747 c 4
 354 751 350 759 342 765 c 4
 334 771 316 785 280 791 c 5
 206 771 200 743 200 703 c 4
 200 685 200 641 270 641 c 4
EndSplineSet
Validated: 1
EndChar

StartChar: guillemotright
Encoding: 187 187 120
Width: 1004
VWidth: 1612
Flags: W
HStem: 360 178<52.6172 204.602>
VStem: 574 174<-15.5114 48.8435>
LayerCount: 2
Fore
SplineSet
172 -94 m 0
 154 -94 134 -90 118 -76 c 0
 94 -58 84 -32 84 -6 c 0
 84 14 90 34 102 50 c 0
 166 136 252 220 330 288 c 1
 270 324 196 346 96 360 c 0
 52 366 20 406 20 450 c 0
 20 454 20 458 20 462 c 0
 28 506 68 538 112 538 c 0
 116 538 120 538 124 538 c 0
 252 518 404 482 536 360 c 0
 556 342 566 316 566 290 c 0
 566 264 554 240 532 224 c 0
 408 122 308 24 244 -60 c 0
 226 -82 200 -94 172 -94 c 0
530 496 m 0
 530 546 572 588 620 588 c 0
 640 588 662 580 680 564 c 0
 733 518 861 464 938 420 c 0
 964 406 980 382 984 354 c 0
 984 350 984 346 984 342 c 0
 984 316 976 294 958 276 c 0
 852 176 784 88 748 6 c 0
 732 -26 700 -46 666 -46 c 0
 652 -46 640 -44 628 -40 c 0
 596 -26 574 8 574 44 c 0
 574 56 576 68 582 80 c 0
 622 170 684 250 744 316 c 1
 676 352 608 388 560 428 c 0
 540 446 530 472 530 496 c 0
EndSplineSet
Validated: 1
EndChar

StartChar: onequarter
Encoding: 188 188 121
Width: 1122
VWidth: 1548
Flags: W
HStem: 16 21G<208 250 994 1017> 113 397<639.201 743.371> 934 20G<78 133>
VStem: 20 180<756.245 922.227> 596 180<278.698 477.635> 884 180<281.857 481.205>
LayerCount: 2
Fore
SplineSet
166 566 m 0
 132 566 98 584 84 618 c 0
 52 684 30 752 20 856 c 0
 20 858 20 862 20 864 c 0
 20 910 54 950 102 954 c 0
 104 954 108 954 110 954 c 0
 156 954 196 920 200 872 c 0
 206 792 222 746 246 694 c 0
 252 682 254 668 254 654 c 0
 254 620 236 588 204 574 c 0
 190 568 178 566 166 566 c 0
234 16 m 0
 182 16 144 62 144 108 c 0
 144 122 148 136 156 150 c 0
 252 324 408 632 430 778 c 4
 436 822 476 854 520 854 c 4
 524 854 528 854 532 854 c 4
 578 846 610 808 610 766 c 4
 610 762 608 756 608 752 c 4
 582 584 420 256 312 62 c 0
 296 34 266 16 234 16 c 0
1010 13 m 0
 978 13 946 31 930 63 c 0
 924 77 918 91 912 105 c 1
 892 101 868 97 840 97 c 0
 832 97 826 97 818 97 c 0
 768 97 716 103 678 113 c 0
 646 121 622 147 614 179 c 0
 596 253 596 327 596 419 c 0
 596 467 636 510 686 510 c 0
 736 510 776 467 776 419 c 0
 776 363 776 313 780 277 c 1
 792 277 806 275 818 275 c 0
 842 275 860 279 872 281 c 1
 876 299 882 335 884 409 c 0
 884 411 884 413 884 413 c 1
 884 425 l 2
 884 475 924 513 974 513 c 2
 974 513 974 513 976 513 c 0
 1024 513 1064 471 1064 423 c 0
 1064 417 1064 411 1064 405 c 0
 1064 373 1064 345 1064 319 c 0
 1064 241 1068 191 1092 143 c 0
 1098 131 1102 117 1102 103 c 0
 1102 71 1082 39 1050 23 c 0
 1038 15 1024 13 1010 13 c 0
866 265 m 1
 866 265 l 1
EndSplineSet
Validated: 1
EndChar

StartChar: onehalf
Encoding: 189 189 122
Width: 846
VWidth: 1561
Flags: W
HStem: 325 178<468.267 533.533> 631 334<75.9807 169.577>
VStem: 44 180<663.692 856.105> 346 176<789.574 894.234> 438 352<354.842 447.616> 474 352<70.3719 173.614>
LayerCount: 2
Fore
SplineSet
20 875 m 0xe0
 20 921 55 965 108 965 c 0
 142 965 174 949 190 919 c 0
 220 863 224 807 224 753 c 0
 224 741 224 729 224 717 c 0
 220 669 182 631 134 631 c 2
 130 631 l 1
 82 633 44 673 44 721 c 2
 44 751 l 2
 44 793 40 815 32 831 c 0
 24 845 20 861 20 875 c 0xe0
434 925 m 0
 489 925 522 880 522 835 c 0
 522 827 522 821 520 813 c 0
 470 625 374 387 272 189 c 0
 256 157 224 139 192 139 c 0
 139 139 102 184 102 229 c 0
 102 243 104 257 112 271 c 0
 208 459 300 683 346 857 c 0xf0
 356 899 394 925 434 925 c 0
736 205 m 0
 781 205 826 171 826 117 c 0
 826 79 802 43 764 31 c 0
 728 19 694 13 662 13 c 0
 594 13 542 37 520 51 c 0
 494 65 476 91 474 121 c 1
 474 143 l 2xe4
 474 205 496 261 534 319 c 1
 524 321 516 323 506 325 c 0
 466 335 438 373 438 413 c 0
 438 467 479 503 526 503 c 0
 547 503 566 496 584 493 c 0
 620 483 648 475 670 475 c 0
 674 475 678 477 682 477 c 0
 688 479 694 479 700 479 c 0
 747 479 790 442 790 389 c 0xe8
 790 369 782 349 768 331 c 0
 728 283 690 235 668 195 c 1
 688 195 715 205 736 205 c 0
EndSplineSet
Validated: 1
EndChar

StartChar: threequarters
Encoding: 190 190 123
Width: 1154
VWidth: 1550
Flags: W
HStem: 16 21G<404.5 452 1022 1079> 122 180<876.006 939.527> 444 180<102.966 248.966> 934 20G<149 173>
VStem: 342 176<47.4316 136.024> 606 178<719.407 835.553> 718 178<331.024 484.425> 954 180<49.1055 124.737 306.375 478.485>
LayerCount: 2
Fore
SplineSet
260 436 m 0xf9
 224 436 186 438 148 444 c 0
 104 450 70 488 70 532 c 0
 70 536 72 542 72 546 c 0
 78 590 116 624 158 624 c 0
 162 624 168 622 172 622 c 0
 202 618 228 616 250 616 c 1
 232 624 212 632 188 636 c 0
 146 646 118 682 118 724 c 0
 118 742 122 758 132 772 c 1
 110 772 l 2
 64 772 24 806 20 854 c 1
 20 862 l 2
 20 908 54 946 102 952 c 0
 122 954 140 954 158 954 c 0
 188 954 216 952 242 950 c 0
 323 938 394 901 394 820 c 0
 394 806 394 778 384 748 c 1
 390 744 396 740 402 736 c 0
 480 680 496 620 496 582 c 0
 496 546 480 512 452 488 c 0
 413 452 344 436 260 436 c 0xf9
694 868 m 0
 749 868 784 821 784 776 c 0
 784 770 784 764 782 758 c 0
 738 568 668 420 616 300 c 0
 582 226 542 156 518 80 c 0
 506 40 472 16 432 16 c 0
 377 16 342 60 342 106 c 0
 342 114 344 124 346 132 c 0
 372 218 416 294 450 374 c 0
 502 492 566 624 606 798 c 0xfd
 614 840 652 868 694 868 c 0
1044 16 m 0
 1000 16 960 48 954 94 c 0
 954 104 952 116 950 126 c 1
 926 122 904 122 890 122 c 0
 842 124 774 132 726 170 c 0
 702 191 688 229 688 270 c 0
 688 298 694 322 700 346 c 0
 706 368 712 396 718 438 c 0
 724 484 762 516 806 516 c 0
 810 516 814 516 818 516 c 0
 864 510 896 470 896 428 c 0
 896 424 896 420 896 416 c 0xfb
 890 364 882 330 876 304 c 1
 882 304 890 302 898 302 c 0
 914 302 930 304 940 306 c 1
 942 314 942 322 944 332 c 0
 946 364 950 398 954 434 c 0
 962 478 1000 510 1044 510 c 0
 1048 510 1052 510 1056 510 c 0
 1100 504 1134 466 1134 420 c 2
 1134 410 l 1
 1132 394 1130 376 1128 358 c 0
 1126 344 1124 330 1124 316 c 0
 1122 298 1122 280 1122 262 c 0
 1122 212 1126 166 1134 118 c 0
 1134 114 1134 110 1134 106 c 0
 1134 64 1102 24 1056 16 c 0
 1052 16 1048 16 1044 16 c 0
EndSplineSet
Validated: 1
EndChar

StartChar: questiondown
Encoding: 191 191 124
Width: 590
VWidth: 1715
Flags: W
HStem: -580 180<240.638 427.274> 394 196<151.641 213.719 214.189 274.359>
VStem: 20 180<-364.849 -251.928> 106 214<427.828 541.812> 236 180<-21.3441 140.505>
LayerCount: 2
Fore
SplineSet
320 484 m 0xd0
 320 441 283 394 230 394 c 0
 224 394 218 394 214 396 c 0
 208 395 202 394 196 394 c 0
 143 394 106 441 106 484 c 0
 106 498 110 512 116 524 c 0
 146 584 194 590 214 590 c 0
 232 590 280 584 310 524 c 0
 316 512 320 498 320 484 c 0xd0
480 -362 m 0
 524 -362 570 -401 570 -452 c 0
 570 -482 554 -512 526 -530 c 0
 470 -562 406 -580 336 -580 c 2
 334 -580 l 2
 268 -580 204 -564 152 -534 c 0
 68 -488 20 -408 20 -320 c 0
 20 -250 46 -180 92 -122 c 0
 130 -76 178 -42 234 -18 c 1
 236 -2 236 12 236 26 c 0
 236 68 230 102 216 136 c 0
 212 146 210 158 210 170 c 0
 210 217 244 258 300 258 c 0
 336 258 370 238 384 202 c 0
 406 144 416 88 416 22 c 0
 416 -16 412 -56 406 -100 c 0
 400 -136 374 -166 338 -174 c 0
 244 -196 200 -264 200 -320 c 0xe8
 200 -328 200 -356 240 -378 c 0
 266 -392 300 -400 336 -400 c 0
 370 -400 406 -392 432 -376 c 0
 446 -366 464 -362 480 -362 c 0
316 -86 m 1
 318 -86 l 1
 316 -86 l 1
EndSplineSet
Validated: 1
EndChar

StartChar: AE
Encoding: 198 198 125
Width: 976
VWidth: 1570
Flags: W
HStem: -22 178<720.438 922.75> -8 180<616.493 882.74> 252 180<610.344 897.86> 272 180<610 841.811> 558 180<571.737 835.208> 570 178<694.249 871.798>
VStem: 438 178<166 238>
LayerCount: 2
Fore
SplineSet
814 748 m 4x06
 861 748 904 711 904 658 c 4
 904 616 874 578 830 570 c 4x06
 786 562 740 558 692 558 c 4
 652 558 612 560 570 564 c 5
 576 528 582 490 586 452 c 5
 600 452 614 452 628 452 c 4x1a
 708 452 782 444 856 432 c 4
 900 424 932 386 932 344 c 4
 932 340 930 334 930 330 c 4
 922 284 884 252 842 252 c 4x22
 838 252 832 254 828 254 c 4
 764 264 698 272 632 272 c 6
 610 272 l 5
 612 234 616 200 616 166 c 5
 652 170 684 172 718 172 c 4x52
 770 172 822 166 880 156 c 4
 924 148 956 112 956 68 c 4
 956 62 954 58 954 52 c 4
 946 10 908 -22 866 -22 c 4x82
 862 -22 856 -22 850 -20 c 4
 800 -12 756 -8 714 -8 c 4
 660 -8 606 -14 540 -24 c 4
 536 -26 530 -26 526 -26 c 4
 504 -26 482 -18 464 -2 c 4
 446 16 436 42 436 66 c 6
 436 74 l 5
 438 86 438 100 438 118 c 4
 438 150 436 190 432 238 c 5
 342 204 258 142 186 30 c 4
 168 4 140 -10 110 -10 c 4
 94 -10 78 -6 62 4 c 4
 34 20 20 50 20 80 c 4
 20 96 24 112 32 126 c 4
 140 308 228 496 302 704 c 4
 314 742 350 764 388 764 c 6
 398 764 l 5
 422 760 l 5
 518 750 612 738 692 738 c 4x4a
 730 738 764 740 796 746 c 4
 802 748 808 748 814 748 c 4x06
380 412 m 5
 390 414 400 418 410 420 c 5
 408 436 404 450 402 464 c 5
 396 446 388 430 380 412 c 5
EndSplineSet
Validated: 1
EndChar

StartChar: Eth
Encoding: 208 208 126
Width: 840
VWidth: 1572
Flags: W
HStem: 16 21G<391 464> 264 174<52.4258 137.062> 302 190<418 522.496> 302 180<419.932 535.554> 538 180<329.272 516.006>
VStem: 640 180<331.711 463.765>
LayerCount: 2
Fore
SplineSet
110 264 m 4xcc
 66 264 20 299 20 354 c 4
 20 390 42 424 78 438 c 4
 106 450 134 460 162 466 c 5
 146 500 126 536 106 574 c 4
 98 588 94 604 94 620 c 4
 94 666 134 703 172 706 c 4
 230 714 288 718 342 718 c 4
 509 718 646 681 730 606 c 4
 788 556 820 488 820 412 c 4
 820 312 774 214 694 136 c 4
 614 60 512 16 416 16 c 6
 400 16 l 5
 382 18 364 24 350 36 c 5
 304 38 266 76 266 124 c 6
 266 128 l 6
 266 174 256 232 232 298 c 5
 202 292 174 282 142 272 c 4
 132 266 120 264 110 264 c 4xcc
570 266 m 4
 596 292 640 344 640 412 c 4
 640 436 630 454 610 472 c 4
 562 514 464 538 342 538 c 6
 328 538 l 5
 336 522 342 506 350 492 c 5xac
 394 492 440 488 490 482 c 4x9c
 534 476 568 438 568 394 c 4
 568 390 566 384 566 380 c 4
 560 336 524 302 480 302 c 4xac
 476 302 470 304 466 304 c 4
 450 306 434 308 418 308 c 5
 430 270 436 232 442 198 c 5
 484 206 532 230 570 266 c 4
EndSplineSet
Validated: 1
EndChar

StartChar: multiply
Encoding: 215 215 127
Width: 630
VWidth: 1527
Flags: W
VStem: 112 170<187.957 250.991>
LayerCount: 2
Fore
SplineSet
610 215 m 4
 610 170 569 125 520 125 c 4
 494 125 470 135 452 155 c 4
 410 203 368 247 324 289 c 5
 310 263 296 237 282 209 c 4
 268 175 236 157 202 157 c 4
 146 157 112 201 112 247 c 4
 112 259 114 273 120 285 c 4
 142 331 164 373 188 411 c 5
 146 445 102 479 58 511 c 4
 34 529 20 557 20 585 c 4
 20 634 64 675 110 675 c 4
 128 675 146 669 162 657 c 4
 208 625 250 593 290 559 c 5
 318 595 346 629 374 663 c 5
 391 688 419 701 448 701 c 4
 498 701 538 657 538 611 c 4
 538 591 532 571 518 553 c 5
 512 549 l 5
 482 511 454 477 426 441 c 5
 482 389 534 333 586 275 c 4
 602 257 610 237 610 215 c 4
EndSplineSet
Validated: 1
EndChar

StartChar: Oslash
Encoding: 216 216 128
Width: 776
VWidth: 1573
Flags: W
HStem: 28 180<366.305 455.464>
VStem: 20 180<310.394 437.986> 86 172<-64.7812 6.85414> 576 180<311.219 432.733>
LayerCount: 2
Fore
SplineSet
524 826 m 4xd0
 576 826 616 782 616 736 c 4
 616 720 610 704 602 690 c 4
 592 674 582 658 574 642 c 5
 584 638 594 632 604 626 c 4
 702 566 756 476 756 370 c 4
 756 282 710 194 628 126 c 4
 554 64 460 28 372 28 c 4
 348 28 320 32 294 38 c 5
 282 12 270 -16 258 -42 c 4
 244 -76 210 -96 176 -96 c 4
 122 -96 86 -52 86 -6 c 4xb0
 86 6 88 18 94 30 c 4
 108 60 120 92 134 122 c 5
 60 186 20 272 20 370 c 4
 20 504 98 610 232 664 c 5
 246 694 278 712 312 712 c 6
 322 712 l 5
 348 708 374 704 400 700 c 5
 414 728 430 754 448 782 c 4
 464 810 494 826 524 826 c 4xd0
296 496 m 5
 244 474 200 436 200 370 c 4xd0
 200 348 204 328 212 308 c 5
 238 370 266 432 296 496 c 5
372 208 m 4
 466 208 576 296 576 370 c 4
 576 398 568 436 510 472 c 4
 504 476 496 480 490 484 c 5
 444 392 404 302 366 208 c 5
 368 208 370 208 372 208 c 4
EndSplineSet
Validated: 1
EndChar

StartChar: Thorn
Encoding: 222 222 129
Width: 758
VWidth: 1573
Flags: W
HStem: -1 180<331.347 490.988> 451 180<348.725 517.121> 737 20G<84.5 131>
VStem: 20 176<617.236 725.125> 158 180<-131.949 -0.917969> 558 180<255.836 413.091>
LayerCount: 2
Fore
SplineSet
20 669 m 4xf4
 20 714 57 757 112 757 c 4
 150 757 186 731 196 691 c 4xf4
 208 649 218 607 228 567 c 5
 290 609 356 631 424 631 c 4
 512 631 586 607 642 563 c 4
 686 525 738 459 738 343 c 4
 738 261 708 177 658 113 c 4
 600 39 518 -1 432 -1 c 4
 394 -1 362 1 330 9 c 5
 334 -17 336 -43 338 -69 c 4
 338 -71 338 -73 338 -75 c 4
 338 -121 302 -161 254 -165 c 4
 252 -165 250 -165 248 -165 c 4
 202 -165 162 -129 158 -81 c 4xec
 142 129 98 367 24 643 c 4
 22 651 20 659 20 669 c 4xf4
432 179 m 4
 504 179 558 265 558 343 c 4
 558 371 558 451 424 451 c 4
 374 451 324 423 274 367 c 5
 284 317 294 269 302 221 c 5
 325 198 343 179 432 179 c 4
EndSplineSet
Validated: 1
EndChar

StartChar: germandbls
Encoding: 223 223 130
Width: 676
VWidth: 1602
Flags: W
HStem: -68 180<312.982 465.054> 16 21G<112 136> 558 180<228.541 349.85>
VStem: 20 180<121.738 521.449> 374 180<424.299 535.229>
LayerCount: 2
Fore
SplineSet
270 738 m 4x78
 447 738 554 635 554 458 c 4
 554 406 536 358 496 314 c 5
 520 306 542 296 564 284 c 4
 624 246 656 190 656 124 c 4
 656 64 618 10 550 -26 c 4
 498 -54 436 -68 372 -68 c 4
 322 -68 282 -28 282 22 c 4
 282 72 322 112 372 112 c 4xb8
 414 112 446 122 466 132 c 5
 462 134 458 136 454 138 c 4
 436 146 414 152 392 158 c 4
 364 166 340 174 316 184 c 4
 248 218 240 272 240 294 c 4
 240 326 256 354 282 370 c 4
 324 398 374 434 374 458 c 4
 374 534 350 558 270 558 c 4
 248 558 240 552 234 544 c 4
 222 530 200 486 200 368 c 4
 200 308 206 226 222 120 c 4
 222 116 224 110 224 106 c 4
 224 64 192 26 148 18 c 4
 144 18 138 16 134 16 c 4
 90 16 52 48 44 94 c 4
 28 200 20 292 20 370 c 4
 20 506 46 600 98 662 c 4
 140 712 200 738 270 738 c 4x78
EndSplineSet
Validated: 1
EndChar

StartChar: ae
Encoding: 230 230 131
Width: 1046
VWidth: 1614
Flags: W
HStem: -64 180<690.598 849.14> -56 180<269.076 360.726> 386 180<50.982 239.397> 434 180<679.377 741.722>
LayerCount: 2
Fore
SplineSet
934 174 m 4x90
 981 174 1026 136 1026 84 c 4
 1026 56 1012 28 988 12 c 4
 920 -38 842 -64 766 -64 c 4x90
 730 -64 696 -58 662 -46 c 4
 602 -26 552 10 518 58 c 5
 482 -13 410 -56 330 -56 c 4
 292 -56 236 -52 188 -26 c 4
 122 6 86 64 86 136 c 4
 86 174 100 232 162 280 c 4
 196 304 238 324 294 340 c 5
 298 340 l 5
 298 342 l 5
 238 370 170 386 110 386 c 4
 60 386 20 426 20 476 c 4
 20 526 60 566 110 566 c 4x60
 206 566 312 540 400 492 c 4
 432 474 462 454 484 434 c 5
 500 476 520 512 548 540 c 4
 552 544 556 546 560 550 c 4
 618 592 674 614 728 614 c 6
 736 614 l 5
 776 612 838 598 894 536 c 4
 916 514 926 474 926 440 c 4
 926 416 920 390 910 364 c 4
 876 288 804 236 712 220 c 4
 694 216 674 214 648 210 c 5
 650 202 652 192 654 182 c 4
 666 146 711 116 768 116 c 4
 800 116 838 126 882 158 c 4
 898 170 916 174 934 174 c 4x90
268 134 m 5
 278 130 298 124 330 124 c 4x40
 354 124 365 147 374 174 c 5
 304 158 276 142 268 134 c 5
672 408 m 4
 668 404 666 400 662 394 c 5
 668 394 674 396 678 396 c 4
 680 396 680 398 682 398 c 4
 716 402 734 420 742 430 c 5
 736 434 734 434 732 434 c 4x10
 724 434 706 432 672 408 c 4
EndSplineSet
Validated: 1
EndChar

StartChar: eth
Encoding: 240 240 132
Width: 738
VWidth: 1552
Flags: W
HStem: 16 180<324.599 439.027> 336 180<368.157 497.998>
VStem: 128 180<210.174 305.904>
LayerCount: 2
Fore
SplineSet
564 920 m 4
 609 920 654 886 654 830 c 4
 654 796 636 764 604 748 c 4
 598 746 592 744 586 740 c 5
 670 664 718 536 718 370 c 4
 718 268 674 174 594 106 c 4
 528 50 442 16 364 16 c 4
 294 16 232 46 188 100 c 4
 150 146 128 206 128 266 c 4
 128 326 156 388 206 436 c 4
 220 450 238 464 254 474 c 5
 252 476 250 476 248 478 c 4
 216 494 198 524 198 556 c 4
 198 568 200 578 204 588 c 5
 194 580 184 572 172 562 c 4
 156 544 132 536 108 536 c 4
 86 536 64 544 46 562 c 4
 28 580 20 602 20 624 c 4
 20 648 30 672 48 690 c 4
 126 768 212 818 372 818 c 4
 374 818 376 818 378 818 c 4
 420 854 468 884 526 912 c 4
 538 918 550 920 564 920 c 4
364 196 m 4
 410 196 482 228 518 292 c 5
 516 294 l 5
 512 304 496 334 398 336 c 4
 340 336 308 284 308 266 c 4
 308 240 324 196 364 196 c 4
402 516 m 6
 448 516 488 510 524 498 c 5
 510 552 484 602 436 624 c 5
 412 594 390 560 368 518 c 4
 368 516 368 516 366 514 c 5
 378 516 388 516 400 516 c 6
 402 516 l 6
EndSplineSet
Validated: 1
EndChar

StartChar: divide
Encoding: 247 247 133
Width: 804
VWidth: 1499
Flags: W
HStem: 268 178<53.4213 157.703> 326 178<528.814 751.383> 340 178<322.45 731.381> 554 220<371.716 448.999>
VStem: 288 232<623.659 701.648>
LayerCount: 2
Fore
SplineSet
110 268 m 4x98
 66 268 20 305 20 360 c 4
 20 398 46 434 84 446 c 4x98
 208 482 310 502 404 512 c 4
 446 516 486 518 526 518 c 4x38
 586 518 648 514 708 504 c 4
 752 496 784 458 784 414 c 4
 784 410 782 404 782 400 c 4
 774 356 736 326 694 326 c 6
 678 326 l 5x58
 626 334 576 340 524 340 c 4x38
 412 340 292 318 136 272 c 4
 126 270 118 268 110 268 c 4x98
520 644 m 4
 520 594 476 554 430 554 c 4
 410 554 390 560 374 572 c 4
 364 582 354 590 348 598 c 5
 314 609 288 641 288 684 c 4
 288 732 326 774 382 774 c 4
 430 774 464 746 480 720 c 4
 482 718 484 716 486 714 c 4
 508 696 520 670 520 644 c 4
486 714 m 5
 486 714 l 5
430 88 m 4
 404 88 378 98 362 120 c 4
 340 144 332 166 328 186 c 5
 316 200 312 220 312 238 c 4
 312 256 316 276 328 292 c 4
 346 316 374 328 402 328 c 4
 420 328 438 324 454 312 c 4
 496 282 504 246 506 226 c 5
 516 212 520 194 520 178 c 4
 520 152 508 126 488 108 c 4
 470 94 450 88 430 88 c 4
348 166 m 5
 348 166 l 5
EndSplineSet
Validated: 1
EndChar

StartChar: oslash
Encoding: 248 248 134
Width: 746
VWidth: 1623
Flags: W
HStem: 724 20G<501 549.5>
VStem: 20 180<198.423 269.59> 434 180<578.258 711.271> 548 178<216.191 353.667>
LayerCount: 2
Fore
SplineSet
522 744 m 4xe0
 577 744 614 701 614 652 c 4xe0
 614 648 612 642 612 638 c 4
 606 604 596 570 586 532 c 5
 644 504 688 458 710 402 c 4
 710 398 712 396 712 392 c 4
 722 354 726 318 726 284 c 4xd0
 726 222 710 166 680 118 c 4
 628 44 542 -4 424 -18 c 4
 412 -20 400 -22 388 -22 c 5
 380 -44 370 -66 362 -86 c 6
 344 -134 l 5
 330 -168 296 -190 260 -190 c 4
 205 -190 170 -144 170 -100 c 4
 170 -88 172 -78 176 -66 c 6
 194 -20 l 5
 198 -14 200 -8 202 -2 c 5
 194 2 186 6 178 8 c 4
 100 47 40 114 24 212 c 4
 22 226 20 242 20 256 c 4
 20 314 38 372 74 422 c 4
 122 488 194 534 286 556 c 4
 293 558 300 558 306 558 c 0
 316 558 326 556 336 554 c 5
 360 560 384 564 408 564 c 5
 420 602 428 638 434 670 c 4
 442 714 480 744 522 744 c 4xe0
200 264 m 5
 200 217 220 188 254 172 c 4
 258 170 264 168 268 166 c 5
 296 238 322 304 344 368 c 5
 314 356 284 334 266 306 c 4
 250 282 226 268 200 264 c 5
464 174 m 5
 512 191 548 222 548 284 c 4xd0
 548 304 544 324 540 340 c 4
 538 346 534 350 530 354 c 5
 510 298 488 238 464 174 c 5
EndSplineSet
Validated: 1
EndChar

StartChar: thorn
Encoding: 254 254 135
Width: 756
VWidth: 1629
Flags: W
HStem: -9 180<353.599 525.353> 361 180<287.379 485.565>
VStem: 20 180<559.439 820.081> 170 180<-257.949 -31.7065> 556 180<199.662 296.628>
LayerCount: 2
Fore
SplineSet
736 243 m 4xe8
 736 90 597 -9 436 -9 c 4
 394 -9 358 -3 328 7 c 5
 338 -59 346 -127 350 -195 c 5
 350 -199 l 6
 350 -247 312 -287 266 -291 c 4
 264 -291 262 -291 260 -291 c 4
 212 -291 172 -255 170 -207 c 4xd8
 150 95 20 457 20 741 c 4
 20 749 20 757 20 765 c 4
 22 813 62 853 108 853 c 6
 112 853 l 5
 160 851 200 813 200 765 c 6
 200 745 l 6
 200 681 212 599 228 511 c 5
 276 531 336 541 414 541 c 6
 416 541 l 6
 490 541 568 509 630 455 c 4
 698 397 736 319 736 243 c 4xe8
436 171 m 4
 492 171 556 189 556 243 c 4
 556 297 480 361 416 361 c 6
 414 361 l 6
 340 361 306 351 290 341 c 4
 282 337 274 331 270 315 c 5
 274 289 280 265 284 239 c 4
 288 239 290 237 292 235 c 4
 342 197 376 171 436 171 c 4
EndSplineSet
Validated: 1
EndChar

StartChar: Aring
Encoding: 197 197 141
Width: 788
VWidth: 1507
Flags: W
HStem: -13 59G<87.5 118 660 702.5>
VStem: 446 122<776.27 866.47>
LayerCount: 2
Fore
SplineSet
346 999 m 4
 461 999 568 946 568 843 c 4
 568 789 552 743 524 707 c 4
 510 691 494 677 476 665 c 5
 756 159 l 6
 764 145 768 131 768 115 c 4
 768 70 729 25 676 25 c 4
 644 25 614 43 598 71 c 6
 530 195 l 5
 274 167 l 5
 264 149 254 133 246 117 c 4
 196 29 176 13 158 1 c 4
 144 -9 126 -13 110 -13 c 4
 65 -13 20 24 20 77 c 4
 20 103 36 123 52 145 c 4
 62 159 94 207 128 275 c 4
 132 283 136 295 142 305 c 4
 156 331 168 359 182 391 c 4
 236 513 264 595 272 643 c 5
 248 649 226 657 210 675 c 4
 184 699 170 733 170 775 c 4
 170 833 214 893 284 935 c 5
 284 941 l 6
 284 971 312 999 346 999 c 4
356 749 m 5
 416 755 446 779 446 843 c 4
 446 853 436 861 424 867 c 5
 382 855 348 837 322 815 c 4
 298 793 294 779 292 775 c 4
 290 765 292 763 296 759 c 4
 296 757 298 757 308 753 c 5
 316 751 328 749 348 749 c 6
 356 749 l 5
366 359 m 5
 436 367 l 5
 396 435 l 5
 388 411 376 385 366 359 c 5
EndSplineSet
Validated: 1
EndChar

StartChar: Ccedilla
Encoding: 199 199 142
Width: 890
VWidth: 1708
Flags: W
HStem: -576 186<440.78 674.847> -568 178<430.898 584.312> -238 500<330 508.772> -218 180<545.275 650.93> 518 180<295.337 442.044>
VStem: 690 180<-377.478 -253.046>
LayerCount: 2
Fore
SplineSet
612 298 m 4x2c
 658 298 702 264 702 208 c 4
 702 168 674 132 634 122 c 4
 590 110 548 102 510 96 c 5
 532 46 542 4 548 -38 c 5
 568 -38 l 6
 638 -38 704 -58 760 -96 c 4
 830 -146 870 -218 870 -298 c 4
 870 -392 844 -464 788 -512 c 4
 734 -562 660 -576 586 -576 c 4x9c
 550 -576 514 -572 478 -568 c 4x4c
 432 -562 398 -524 398 -480 c 4
 398 -476 400 -472 400 -468 c 4
 406 -422 444 -390 488 -390 c 4
 492 -390 496 -390 500 -390 c 4
 534 -394 564 -396 588 -396 c 4
 628 -396 656 -390 670 -378 c 4
 688 -362 690 -326 690 -298 c 4
 690 -272 670 -252 658 -244 c 4
 636 -228 604 -218 566 -218 c 4x9c
 542 -218 516 -222 488 -232 c 4
 478 -236 466 -238 456 -238 c 4
 408 -238 366 -194 366 -150 c 4
 366 -146 368 -144 368 -140 c 4
 370 -118 370 -102 370 -86 c 4
 370 -36 362 -2 330 60 c 4
 326 68 324 74 322 82 c 5
 141 92 30 200 20 376 c 5
 20 392 l 5
 30 476 68 552 132 606 c 4
 194 658 280 690 378 698 c 5
 386 698 l 6
 432 698 472 662 476 616 c 5
 476 612 l 6
 476 564 440 522 392 518 c 4
 326 514 216 490 200 380 c 5
 206 314 232 296 242 288 c 4
 262 274 298 262 362 262 c 4
 416 262 490 270 590 296 c 4
 598 298 604 298 612 298 c 4x2c
EndSplineSet
Validated: 1
EndChar

StartChar: aring
Encoding: 229 229 162
Width: 872
VWidth: 1495
Flags: W
HStem: -5 180<206.387 362.539> 15 180<716.57 819.383> 357 296<266.141 386.966>
VStem: 20 180<188.58 287.002> 48 174<662.602 726.43> 438 174<702.164 819.156>
LayerCount: 2
Fore
SplineSet
408 825 m 5x2c
 350 807 300 781 264 749 c 4
 230 717 222 695 222 691 c 4
 222 675 224 667 226 665 c 5
 226 665 240 653 302 653 c 6
 314 653 l 5
 402 663 438 701 438 789 c 4
 438 803 426 815 408 825 c 5x2c
338 357 m 4
 264 357 216 300 202 237 c 4
 201 232 200 223 200 215 c 0
 200 207 201 198 206 193 c 4
 214 183 238 175 270 175 c 4xb4
 278 175 286 177 294 177 c 4
 392 193 406 221 440 289 c 4
 446 297 450 305 454 315 c 4
 458 321 462 327 466 333 c 5
 461 332 455 331 450 331 c 0
 418 339 l 4
 390 351 362 357 338 357 c 4
544 423 m 4
 544 398 532 377 520 361 c 5
 524 361 528 363 532 363 c 4
 564 363 596 345 612 317 c 4
 642 265 704 207 776 195 c 4
 820 187 852 149 852 105 c 4
 852 101 850 95 850 91 c 4
 842 47 806 15 762 15 c 4x6c
 756 15 752 17 746 17 c 4
 666 29 598 69 546 117 c 5
 536 105 526 93 514 81 c 4
 466 39 404 13 322 -1 c 4
 320 -1 318 -1 316 -1 c 4
 300 -3 286 -5 270 -5 c 4
 188 -5 118 21 74 71 c 4
 48 99 20 145 20 215 c 4xb4
 20 233 22 251 26 273 c 4
 46 369 106 451 186 499 c 5
 158 507 128 521 104 543 c 4
 68 579 48 629 48 691 c 4xac
 48 773 112 861 210 923 c 5
 210 931 l 6
 210 975 250 1015 298 1015 c 4
 382 1015 456 997 510 963 c 4
 576 921 612 861 612 789 c 4
 612 709 590 643 550 591 c 4
 526 559 494 535 456 517 c 5
 466 513 478 509 488 505 c 4
 522 491 544 457 544 423 c 4
EndSplineSet
Validated: 1
EndChar

StartChar: ccedilla
Encoding: 231 231 163
Width: 840
VWidth: 1745
Flags: W
HStem: -638 172<404.625 616.933> -630 172<370.898 528.22> -312 464<338.099 438.948> -294 174<487.275 598.088> 348 180<281.906 447.116>
VStem: 636 184<-446.82 -328.038>
LayerCount: 2
Fore
SplineSet
550 238 m 4x2c
 600 238 640 194 640 148 c 4
 640 128 632 108 620 92 c 4
 590 56 552 26 504 6 c 4
 490 0 476 -6 460 -10 c 5
 478 -50 486 -86 490 -120 c 5
 510 -120 l 6
 582 -120 650 -140 706 -176 c 4
 778 -224 820 -294 820 -370 c 4
 820 -462 792 -530 736 -576 c 4
 680 -624 604 -638 530 -638 c 4x9c
 492 -638 456 -634 418 -630 c 4
 372 -624 338 -588 338 -546 c 4
 338 -542 338 -538 340 -534 c 4
 344 -490 386 -458 430 -458 c 4x4c
 434 -458 438 -458 442 -460 c 4
 476 -464 506 -466 532 -466 c 4
 574 -466 600 -460 614 -448 c 4
 634 -432 636 -398 636 -370 c 4
 636 -346 614 -326 602 -318 c 4
 582 -304 548 -294 508 -294 c 4x9c
 484 -294 458 -298 430 -308 c 4
 418 -310 408 -312 396 -312 c 4
 348 -312 306 -272 306 -228 c 6
 306 -220 l 5
 308 -198 310 -182 310 -166 c 4
 310 -120 300 -88 268 -26 c 4
 266 -24 264 -20 264 -18 c 4
 202 0 140 34 94 80 c 4
 46 130 20 184 20 242 c 4
 20 244 20 246 20 248 c 4
 20 314 60 386 130 442 c 4
 170 472 214 496 258 512 c 4
 292 522 326 528 360 528 c 4
 378 528 396 526 414 522 c 4
 456 512 484 476 484 434 c 4
 484 379 442 344 394 344 c 4
 379 344 369 348 356 348 c 4
 326 348 284 332 250 306 c 4
 214 280 200 252 200 246 c 6
 200 244 l 6
 200 238 206 224 222 208 c 4
 254 176 304 152 342 152 c 4
 388 154 448 166 480 204 c 4
 498 226 524 238 550 238 c 4x2c
EndSplineSet
Validated: 1
EndChar

StartChar: dotlessi
Encoding: 305 305 168
Width: 504
VWidth: 1595
Flags: W
HStem: -5 21G<200 264> 495 20G<108 132>
AnchorPoint: "top" 104 509 basechar 0
AnchorPoint: "bottom" 212 -13 basechar 0
LayerCount: 2
Fore
SplineSet
394 271 m 4
 439 271 484 230 484 183 c 4
 484 157 474 133 454 115 c 4
 374 43 316 -5 212 -5 c 4
 188 -5 144 3 110 57 c 4
 96 77 86 105 76 141 c 4
 60 195 44 277 22 411 c 4
 22 415 20 421 20 425 c 4
 20 467 52 505 96 513 c 4
 100 513 106 515 110 515 c 4
 154 515 192 483 200 439 c 4
 214 345 226 279 238 233 c 4
 242 211 246 195 250 183 c 5
 268 191 290 209 332 247 c 4
 350 263 372 271 394 271 c 4
EndSplineSet
Validated: 1
EndChar

StartChar: gravecomb
Encoding: 768 768 181
Width: 434
VWidth: 771
Flags: W
HStem: -12 322
LayerCount: 2
Fore
SplineSet
322 -12 m 0
 302 -12 280 -6 264 10 c 0
 136 120 96 132 90 132 c 0
 48 142 20 180 20 222 c 0
 20 228 20 234 22 240 c 0
 30 282 68 310 110 310 c 0
 118 310 124 310 130 308 c 0
 190 296 264 246 382 146 c 0
 402 128 414 104 414 78 c 0
 414 58 406 36 390 18 c 0
 374 -2 348 -12 322 -12 c 0
EndSplineSet
Validated: 1
EndChar

StartChar: uni00AD
Encoding: 173 173 191
Width: 544
VWidth: 949
Flags: W
HStem: 335 180<53.9099 348.691> 367 180<282.98 493.065>
LayerCount: 2
Fore
SplineSet
148 515 m 6x80
 239 515 336 537 426 547 c 5
 434 547 l 6
 480 547 520 513 524 467 c 5
 524 457 l 6
 524 411 490 373 446 367 c 4x40
 414 363 380 359 350 355 c 4
 286 345 218 335 146 335 c 6
 104 335 l 5
 58 339 20 379 20 427 c 6
 20 431 l 5
 22 479 62 515 108 515 c 6
 148 515 l 6x80
EndSplineSet
Validated: 1
EndChar

